<svg width="593" height="94" viewBox="0 0 593 94" fill="none" xmlns="http://www.w3.org/2000/svg">
<path d="M193.396 9.23049C192.7 5.69424 180.411 7.4741 179.727 8.76C177.945 12.1134 181.094 39.6094 181.778 50.5397C182.461 61.4699 178.091 92.2564 180.412 92.8023C184.512 93.7669 191.346 95.0653 193.396 92.4934C197.03 87.9365 195.105 58.8214 195.61 58.8214C196.114 58.8214 207.749 57.8608 209.62 58.8214C211.492 59.782 207.749 85.0997 207.749 92.4934C207.749 94.1011 216.913 92.4934 222.784 92.4934C224.151 92.4934 224.493 7.1938 222.784 6.65866C219.708 5.6952 208.207 4.64568 207.749 6.65866C206.723 11.1594 212.422 45.3734 209.62 46.522C206.819 47.6706 196.814 48.1509 195.105 46.522C193.396 44.8931 195.105 17.9107 193.396 9.23049Z" fill="#CDCAF3"/>
<path d="M49.3064 50.0983C39.1049 43.1648 24.1334 39.6436 26.8371 28.9243C29.3217 19.0739 38.804 17.3459 44.4117 22.2887C48.1048 25.5438 48.1332 32.1429 47.9542 33.7642C47.5035 37.8476 61.3181 37.8476 62.2197 33.7643C62.7002 31.5883 59.3036 18.9384 55.4603 14.6609C51.6169 10.3834 45.1408 6.46004 38.826 5.50628C30.1426 4.59545 20.9406 7.04886 15.4324 14.6608C8.41432 24.3593 6.94784 40.4001 18.6643 49.0771C35.4049 61.4748 46.6031 65.4114 42.5475 73.5786C31.1977 86.876 19.1151 64.3901 18.6643 62.8591C18.2134 61.3282 17.763 59.9238 16.4109 59.5331C12.3552 58.361 4.24414 62.8596 4.24414 65.9222C4.24414 70.0058 14.9238 87.4418 25.095 90.4354C35.2661 93.4291 52.7329 90.7881 57.4176 81.2357C61.9235 72.0476 53.8126 53.161 49.3064 50.0983Z" fill="#C0D9FF"/>
<path d="M251.613 8.48514C246.448 4.88094 235.719 7.09851 235.719 8.48514C235.719 9.87178 235.719 9.87178 235.719 12.1824C235.719 14.4931 234.394 91.206 235.719 92.5929C237.044 93.9797 249.405 94.904 251.613 92.5929C253.82 90.2817 254.262 10.3339 251.613 8.48514Z" fill="#FFEDC0"/>
<path d="M263.18 12.9079C263.18 10.6064 263.642 9.21587 264.014 9.16929C273.815 7.94175 295.02 6.22327 309.252 9.16936C310.1 11.4864 311.285 23.334 309.252 25.9571C299.695 26.1133 281.297 24.9169 281.297 25.9571C281.297 26.8939 280.28 41.4147 281.297 43.2884C282.313 45.162 307.728 41.4147 309.252 44.6936C310.777 47.9725 310.777 57.8091 309.252 59.6828C307.728 61.5564 281.297 58.7459 280.28 59.6828C279.264 60.6196 279.263 79.3561 280.28 79.8245C281.297 80.2929 309.252 77.014 309.252 79.8245C309.253 82.635 311.285 90.6042 309.252 92.9432C307.22 95.2821 263.18 92.9991 263.18 92.9991C261.856 91.6177 263.18 15.2094 263.18 12.9079Z" fill="#FFDDF5"/>
<path d="M353.251 91.8222C349.51 80.7842 338.693 9.82296 344.274 9.2753C349.855 8.72765 350.227 7.96945 356.991 9.2753C360.066 9.86902 361.416 64.0512 363.12 64.0512C364.823 64.0512 368.913 9.73929 372.342 9.2753C376.389 8.72762 377.188 8.04728 382.961 9.2753C386.18 9.96007 393.173 66.0774 393.623 66.0774C394.074 66.0774 395.339 10.4427 398.589 10.0185C404.282 9.2753 406.323 9.2753 410.475 9.2753C413.833 9.2753 403.496 91.8222 400.75 91.8222C393.623 91.8222 392.717 93.089 386.163 91.8222C384.102 91.4238 377.188 42.87 377.188 42.87C377.188 42.87 371.827 91.8222 367.837 91.8222C363.848 91.8222 354.064 94.2221 353.251 91.8222Z" fill="#BEBCD1"/>
<path d="M479.118 10.7685C479.118 10.7685 476.398 90.3736 480.423 91.0482C484.449 91.7228 493.471 91.0482 493.471 91.0482L492.725 38.4279L514.254 90.3736C514.254 90.3736 524.701 91.7397 528.103 90.3736C531.506 89.0075 528.103 10.7685 528.103 10.7685C528.103 10.7685 516.603 8.04736 515.857 10.0887C515.112 12.1301 516.538 65.1953 516.538 65.1953C516.538 65.1953 496.127 12.8097 493.471 10.7685C490.815 8.72726 479.118 10.7685 479.118 10.7685Z" fill="#D1E0B1"/>
<path d="M592.101 80.5192C591.682 82.5456 586.184 86.5933 582.69 88.6196C579.196 90.646 558.738 94.1923 550.554 87.6113C540.4 79.446 538.537 67.866 538.046 56.2217C537.205 36.303 545.784 20.6162 558.738 13.1876C573.707 4.60337 587.894 14.7067 590.002 16.225C592.11 17.7433 590.745 27.9503 589.051 29.4683C587.357 30.9864 578.195 20.4567 567.017 24.9817C556.856 29.0948 551.562 38.9476 551.763 49.553C552.186 71.826 560.05 81.8845 577.298 76.3172C581.799 74.8644 581.522 69.3843 581.522 64.3215C581.099 62.2921 582.69 60.267 569.71 62.2921V51.1553C569.71 48.1213 591.681 49.1338 592.101 51.1553C592.522 53.1769 592.52 78.4929 592.101 80.5192Z" fill="#F2B6B6"/>
<path fill-rule="evenodd" clip-rule="evenodd" d="M416.753 91.5436C414.232 90.2766 433.763 12.9857 435.18 11.7187C436.598 10.4517 453.608 10.4517 455.025 11.7187C456.443 12.9857 475.973 89.643 473.453 91.5436C471.509 93.0094 465.068 92.2141 461.501 91.7736C460.443 91.643 459.638 91.5436 459.278 91.5436C458.17 91.5436 455.588 75.0692 453.985 64.8418C453.308 60.52 452.805 57.3137 452.663 56.9374C452.183 55.6706 438.376 56.351 437.543 56.9374C437.222 57.1633 436.4 62.1971 435.394 68.3602C433.789 78.1958 431.714 90.9077 430.455 91.5436C428.408 92.578 419.273 92.8106 416.753 91.5436ZM444.907 22.629C444.019 22.4543 441.127 40.1628 441.127 40.1628C441.127 40.1628 448.442 41.1939 449.16 40.1628C449.877 39.1318 445.795 22.8037 444.907 22.629Z" fill="#C2DEED"/>
<path fill-rule="evenodd" clip-rule="evenodd" d="M93.6271 90.319C108.643 90.319 120.816 72.2634 120.816 48.1087C120.816 23.954 104.17 6.40734 93.6271 6.40698C79.6558 6.40651 65.8835 21.6521 65.8835 45.8068C65.8835 69.9615 77.8687 89.8104 93.6271 90.319ZM94.5162 68.3406C101.595 68.3406 107.334 58.9902 107.334 47.4559C107.334 35.9215 99.4589 23.5876 92.38 23.5876C85.3011 23.5876 81.6987 35.9215 81.6987 47.4559C81.6987 58.9902 87.4373 68.3406 94.5162 68.3406Z" fill="#FFD5C8"/>
<path d="M190.152 4.90456C189.456 1.36831 177.167 3.14817 176.483 4.43407C174.701 7.7875 177.85 35.2835 178.534 46.2137C179.217 57.144 174.847 87.9305 177.167 88.4764C181.268 89.441 188.102 90.7394 190.152 88.1675C193.785 83.6105 191.861 54.4955 192.366 54.4955C192.87 54.4955 204.505 53.5349 206.376 54.4955C208.247 55.456 204.505 80.7738 204.505 88.1675C204.505 89.7752 213.668 88.1675 219.54 88.1675C220.907 88.1675 221.249 2.86787 219.54 2.33274C216.464 1.36928 204.963 0.319753 204.505 2.33274C203.479 6.83351 209.178 41.0475 206.376 42.1961C203.574 43.3447 193.57 43.825 191.861 42.1961C190.152 40.5672 191.861 13.5848 190.152 4.90456Z" stroke="black" stroke-width="2"/>
<path fill-rule="evenodd" clip-rule="evenodd" d="M128.332 8.85263C128.332 11.5926 128.332 88.1498 128.332 90.7393C128.331 93.3289 139.52 95.6466 141.046 91.9372C142.035 89.5313 141.741 79.3144 141.412 67.8876C141.234 61.6962 141.046 55.1497 141.046 49.298C154.099 50.4285 174.204 47.8037 174.61 30.748C174.845 20.9126 170.542 10.0505 161.388 8.43004C145.81 4.67834 128.332 7.37668 128.332 8.85263ZM141.882 20.0214C141.57 24.0317 141.05 30.7223 143.052 31.1038C145.594 31.5884 163.598 31.6665 162.377 26.2396C161.69 23.1858 160.454 18.5226 156.274 17.5356C151.17 16.3302 142.035 15.1134 142.035 17.5362C142.035 18.0513 141.966 18.9387 141.882 20.0214Z" fill="#CFE3CE"/>
<path d="M125.088 86.4142C125.088 83.8246 125.088 7.26746 125.088 4.52746C125.087 3.05151 142.566 0.35317 158.144 4.10487C167.298 5.72533 171.601 16.5874 171.366 26.4229C170.96 43.4785 150.855 46.1034 137.802 44.9728C137.802 61.6244 139.327 83.9026 137.802 87.612C136.276 91.3214 125.087 89.0037 125.088 86.4142Z" stroke="black" stroke-width="2"/>
<path d="M139.836 30.2685C137.294 29.784 138.819 19.1237 138.819 16.7009C138.819 14.2781 147.954 15.4949 153.059 16.7003C157.239 17.6872 158.475 22.3505 159.162 25.4043C160.382 30.8311 142.379 30.753 139.836 30.2685Z" stroke="black" stroke-width="2"/>
<path d="M46.0622 45.7727C35.8608 38.8392 20.8893 35.318 23.593 24.5987C26.0775 14.7484 35.5598 13.0204 41.1676 17.9631C44.8606 21.2182 44.889 27.8173 44.7101 29.4387C44.2594 33.522 58.0739 33.5221 58.9755 29.4387C59.456 27.2627 56.0595 14.6128 52.2161 10.3353C48.3728 6.05786 41.8967 2.13448 35.5819 1.18072C26.8984 0.269891 17.6965 2.7233 12.1883 10.3353C5.17018 20.0338 3.7037 36.0746 15.4201 44.7515C32.1607 57.1492 43.3589 61.0859 39.3033 69.253C27.9535 82.5505 15.8709 60.0646 15.4201 58.5336C14.9693 57.0026 14.5188 55.5983 13.1668 55.2075C9.11109 54.0354 1 58.534 1 61.5966C1 65.6802 11.6797 83.1162 21.8509 86.1099C32.022 89.1036 49.4888 86.4625 54.1734 76.9101C58.6794 67.722 50.5685 48.8354 46.0622 45.7727Z" stroke="black" stroke-width="2"/>
<path d="M247.671 4.90653C247.669 4.90065 247.667 4.8951 247.665 4.88985C245.37 3.36905 241.77 3.01747 238.568 3.2842C236.963 3.41788 235.536 3.70082 234.535 4.0201C234.033 4.1803 233.681 4.33613 233.474 4.46202V4.46756V4.47451V4.48143V4.48833V4.49521V4.50206V4.50889V4.51569V4.52247V4.52923V4.53596V4.54267V4.54936V4.55602V4.56266V4.56928V4.57587V4.58245V4.589V4.59553V4.60203V4.60852V4.61498V4.62143V4.62785V4.63425V4.64063V4.64699V4.65333V4.65964V4.66594V4.67222V4.67848V4.68472V4.69094V4.69714V4.70332V4.70948V4.71562V4.72175V4.72785V4.73394V4.74001V4.74606V4.75209V4.75811V4.7641V4.77008V4.77605V4.78199V4.78792V4.79384V4.79973V4.80561V4.81148V4.81732V4.82316V4.82897V4.83477V4.84056V4.84633V4.85208V4.85782V4.86355V4.86926V4.87495V4.88064V4.8863V4.89196V4.8976V4.90323V4.90884V4.91444V4.92003V4.9256V4.93116V4.93671V4.94225V4.94777V4.95328V4.95879V4.96427V4.96975V4.97522V4.98067V4.98611V4.99155V4.99697V5.00238V5.00778V5.01317V5.01855V5.02392V5.02928V5.03463V5.03998V5.04531V5.05063V5.05595V5.06125V5.06655V5.07184V5.07712V5.08239V5.08765V5.09291V5.09816V5.1034V5.10863V5.11386V5.11908V5.1243V5.1295V5.1347V5.1399V5.14508V5.15027V5.15544V5.16061V5.16578V5.17094V5.17609V5.18124V5.18639V5.19153V5.19666V5.20179V5.20692V5.21205V5.21716V5.22228V5.22739V5.2325V5.23761V5.24271V5.24781V5.25291V5.258V5.2631V5.26819V5.27328V5.27836V5.28345V5.28853V5.29361V5.2987V5.30378V5.30886V5.31393V5.31901V5.32409V5.32917V5.33425V5.33932V5.3444V5.34948V5.35456V5.35964V5.36472V5.3698V5.37489V5.37997V5.38506V5.39015V5.39524V5.40033V5.40543V5.41052V5.41562V5.42073V5.42583V5.43094V5.43605V5.44117V5.44629V5.45141V5.45654V5.46167V5.46681V5.47195V5.47709V5.48224V5.4874V5.49255V5.49772V5.50289V5.50807V5.51325V5.51844V5.52363V5.52883V5.53404V5.53925V5.54447V5.5497V5.55493V5.56017V5.56542V5.57067V5.57594V5.58121V5.58649V5.59178V5.59708V5.60238V5.6077V5.61302V5.61835V5.62369V5.62904V5.6344V5.63977V5.64515V5.65054V5.65594V5.66135V5.66677V5.67221V5.67765V5.6831V5.68857V5.69405V5.69953V5.70503V5.71055V5.71607V5.72161V5.72715V5.73271V5.73829V5.74388V5.74947V5.75509V5.76071V5.76635V5.77201V5.77767V5.78336V5.78905V5.79476V5.80049V5.80623V5.81198V5.81775V5.82353V5.82933V5.83515V5.84098V5.84683V5.85269V5.85857V5.86446V5.87038V5.87631V5.88225V5.88821V5.89419V5.90019V5.90621V5.91224V5.91829V5.92436V5.93044V5.93655V5.94267V5.94881V5.95497V5.96115V5.96735V5.97357V5.97981V5.98606V5.99234V5.99864V6.00496V6.01129V6.01765V6.02403V6.03043V6.03685V6.04329V6.04976V6.05624V6.06275V6.06928V6.07583V6.0824V6.08899V6.09561V6.10225V6.10891V6.1156V6.12231V6.12904V6.13579V6.14257V6.14937V6.1562V6.16305V6.16993V6.17683V6.18375V6.1907V6.19767V6.20467V6.2117V6.21875V6.22582V6.23292V6.24005V6.2472V6.25438V6.26159V6.26882V6.27608V6.28337V6.29068V6.29802V6.30539V6.31279V6.32021V6.32766V6.33514V6.34265V6.35018V6.35775V6.36534V6.37296V6.38062V6.3883V6.39601V6.40375V6.41152V6.41932V6.42715V6.435V6.44289V6.45082V6.45877V6.46675V6.47476V6.48281V6.49088V6.49899V6.50713V6.5153V6.52351V6.53174V6.54001V6.54831V6.55664V6.56501V6.57341V6.58184V6.59031V6.5988V6.60734V6.6159V6.62451V6.63314V6.64181V6.65051V6.65925V6.66803V6.67684V6.68568V6.69456V6.70347V6.71242V6.72141V6.73043V6.73949V6.74859V6.75772V6.76689V6.77609V6.78533V6.79461V6.80393V6.81328V6.82267V6.8321V6.84157V6.85108V6.86062V6.8702V6.87983V6.88949V6.89918V6.90892V6.9187V6.92852V6.93837V6.94827V6.95821V6.96818V6.9782V6.98826V6.99836V7.0085V7.01868V7.0289V7.03916V7.04946V7.05981V7.0702V7.08063V7.0911V7.10161V7.11217V7.12277V7.13341V7.14409V7.15482V7.16559V7.17641V7.18727V7.19817V7.20912V7.22011V7.23114V7.24222V7.25334V7.26451V7.27572V7.28698V7.29829V7.30964V7.32103V7.33247V7.34396V7.35549V7.36707V7.37869V7.39037V7.40208V7.41385V7.42566V7.43752V7.44943V7.46139V7.47339V7.48544V7.49754V7.50969V7.52188V7.53412V7.54642V7.55876V7.57115V7.58359V7.59608V7.60862V7.62121V7.63385V7.64654V7.65927V7.67206V7.6849V7.69779V7.71074V7.72373V7.73677V7.74987V7.76302V7.77621V7.78947V7.80277V7.81612V7.82953V7.84299V7.8565C233.474 8.17218 233.45 9.876 233.41 12.5856C233.306 19.8026 233.098 34.1548 232.977 48.4166C232.895 58.2355 232.853 68.02 232.915 75.4343C232.946 79.143 233.003 82.2495 233.093 84.4679C233.138 85.5795 233.191 86.4529 233.251 87.0624C233.276 87.3116 233.3 87.5025 233.323 87.6407C233.411 87.6826 233.55 87.7414 233.758 87.8095C234.167 87.9432 234.717 88.0743 235.382 88.1925C236.706 88.4282 238.396 88.5977 240.123 88.6542C241.853 88.7108 243.583 88.6528 244.996 88.4474C245.703 88.3446 246.304 88.2085 246.776 88.0435C247.189 87.8988 247.442 87.7524 247.581 87.6357C247.589 87.6131 247.6 87.582 247.612 87.5411C247.661 87.3759 247.717 87.1291 247.776 86.7906C247.893 86.1174 248.007 85.1706 248.115 83.9751C248.331 81.5893 248.518 78.2891 248.673 74.3706C248.983 66.5376 249.162 56.2827 249.19 46.037C249.217 35.7909 249.093 25.5666 248.797 17.7941C248.649 13.9051 248.459 10.6456 248.225 8.3089C248.107 7.13699 247.981 6.22226 247.85 5.58495C247.784 5.26364 247.722 5.04309 247.671 4.90653Z" stroke="black" stroke-width="2"/>
<path d="M261.368 5.59044C261.368 5.59043 261.368 5.59105 261.367 5.59234C261.368 5.5911 261.368 5.59045 261.368 5.59044ZM261.28 5.78776C261.251 5.87004 261.217 5.97716 261.183 6.11224C261.046 6.6536 260.936 7.49083 260.936 8.58196C260.936 8.89639 260.911 10.5935 260.872 13.2924C260.767 20.4808 260.559 34.7761 260.439 48.9811C260.356 58.761 260.315 68.5066 260.377 75.8914C260.408 79.5853 260.465 82.6794 260.555 84.8889C260.6 85.996 260.652 86.8658 260.713 87.4727C260.721 87.5596 260.73 87.6394 260.738 87.7123C261.038 87.7271 261.421 87.7459 261.88 87.7678C263.087 87.8256 264.813 87.9056 266.891 87.9942C271.048 88.1716 276.61 88.3836 282.234 88.5226C287.862 88.6617 293.537 88.7272 297.926 88.613C300.124 88.5558 301.976 88.4541 303.33 88.2978C304.01 88.2193 304.536 88.1302 304.907 88.0349C305.092 87.9871 305.214 87.9439 305.287 87.9111C305.291 87.9093 305.295 87.9075 305.299 87.9058C305.57 87.5544 305.783 86.903 305.87 85.8911C305.957 84.8609 305.9 83.6279 305.775 82.3307C305.669 81.2308 305.518 80.121 305.377 79.0817C305.352 78.8983 305.327 78.7172 305.303 78.5386C305.167 77.5284 305.044 76.5652 305.015 75.8158C304.918 75.7773 304.776 75.7313 304.576 75.6843C303.908 75.5271 302.891 75.4251 301.588 75.3781C299.002 75.2848 295.515 75.4139 291.961 75.6186C289.198 75.7777 286.419 75.981 284.015 76.1567C283.331 76.2067 282.677 76.2545 282.063 76.2984C280.682 76.3971 279.495 76.4767 278.618 76.5167C278.182 76.5367 277.808 76.5475 277.52 76.5448C277.377 76.5435 277.239 76.5388 277.117 76.5276L277.114 76.5274C277.035 76.52 276.821 76.5003 276.618 76.4068C276.318 76.2686 276.157 76.0341 276.088 75.92C276.007 75.7855 275.951 75.6452 275.911 75.528C275.83 75.2907 275.768 75.0046 275.717 74.7051C275.613 74.0972 275.531 73.2844 275.467 72.3546C275.337 70.4866 275.274 68.0466 275.274 65.6034C275.274 63.1597 275.337 60.6915 275.466 58.7664C275.531 57.8069 275.613 56.9621 275.715 56.3159C275.765 55.9952 275.825 55.6978 275.898 55.4498C275.935 55.3259 275.98 55.1937 276.04 55.068C276.093 54.9555 276.19 54.7767 276.358 54.6215C276.574 54.4232 276.826 54.3471 276.936 54.3163C277.082 54.2758 277.239 54.2495 277.388 54.2308C277.689 54.193 278.066 54.1734 278.49 54.1649C279.344 54.1478 280.49 54.1745 281.816 54.2259C283.579 54.2941 285.7 54.408 287.937 54.528C289.066 54.5886 290.225 54.6507 291.382 54.7094C294.846 54.8851 298.299 55.03 300.976 55.0156C302.318 55.0083 303.435 54.961 304.249 54.8635C304.658 54.8144 304.958 54.7564 305.158 54.6968C305.215 54.6798 305.256 54.6651 305.283 54.6542C305.355 54.539 305.452 54.3346 305.554 54.0095C305.677 53.6183 305.787 53.1204 305.877 52.5332C306.058 51.36 306.152 49.9054 306.151 48.3892C306.151 46.8751 306.058 45.3248 305.875 43.9632C305.69 42.5925 305.423 41.4901 305.11 40.8074C305.098 40.7946 305.058 40.7567 304.961 40.7021C304.797 40.6088 304.538 40.5072 304.164 40.4117C303.416 40.2209 302.371 40.0952 301.087 40.0269C298.529 39.8907 295.222 39.9906 291.884 40.1371C290.974 40.1771 290.06 40.2205 289.161 40.2633C286.788 40.3763 284.513 40.4845 282.65 40.5112C281.367 40.5297 280.236 40.5105 279.379 40.4208C278.955 40.3764 278.553 40.3104 278.217 40.2048C277.948 40.12 277.439 39.9284 277.174 39.4393C276.945 39.0179 276.837 38.4082 276.768 37.8375C276.693 37.2166 276.648 36.4583 276.624 35.6248C276.576 33.9549 276.608 31.911 276.672 29.9136C276.736 27.9129 276.832 25.9436 276.911 24.4188C276.937 23.9216 276.961 23.4782 276.981 23.0984C277.025 22.2879 277.053 21.767 277.053 21.6312C277.053 21.1842 277.311 20.8958 277.479 20.761C277.641 20.6307 277.814 20.5591 277.929 20.5186C278.168 20.4341 278.455 20.3831 278.734 20.3471C279.312 20.2727 280.113 20.2329 281.057 20.2145C282.957 20.1774 285.576 20.2253 288.472 20.3C289.74 20.3327 291.061 20.3706 292.402 20.409C296.978 20.5402 301.779 20.6778 305.435 20.6388C305.512 20.4668 305.589 20.2507 305.663 19.9848C305.804 19.4751 305.913 18.8459 305.991 18.1214C306.145 16.6725 306.162 14.9267 306.089 13.1639C306.016 11.4053 305.855 9.65579 305.661 8.20832C305.516 7.13549 305.36 6.2746 305.22 5.70483C291.356 2.99597 271.096 4.58253 261.28 5.78776ZM305.335 87.8869C305.335 87.8869 305.333 87.8877 305.331 87.8895C305.334 87.8878 305.335 87.8869 305.335 87.8869Z" stroke="black" stroke-width="2"/>
<path d="M116.977 43.9045C116.977 55.8243 113.972 66.1784 109.176 73.5208C104.382 80.8612 97.8686 85.1083 90.8046 85.1148C83.379 84.8685 76.713 80.0656 71.8582 72.2007C67.005 64.3384 64.0449 53.5261 64.0449 41.6026C64.0449 17.7278 77.6072 3.20237 90.7884 3.20282C93.1607 3.2029 95.9859 4.19778 98.9308 6.15495C101.864 8.10416 104.851 10.9667 107.532 14.5906C112.894 21.8373 116.977 32.0568 116.977 43.9045Z" stroke="black" stroke-width="2"/>
<path d="M103.251 45.3936C103.251 51.0067 101.853 56.0404 99.6449 59.6383C97.4266 63.2527 94.4952 65.2784 91.4338 65.2784C88.3725 65.2784 85.4411 63.2527 83.2228 59.6383C81.0147 56.0404 79.6163 51.0067 79.6163 45.3936C79.6163 39.7114 80.5061 33.8769 82.2326 29.5011C83.9941 25.0364 86.4297 22.5253 89.2976 22.5253C90.7756 22.5253 92.3853 23.1723 94.01 24.4247C95.6294 25.6731 97.2029 27.4785 98.5832 29.6675C101.348 34.0514 103.251 39.8358 103.251 45.3936Z" stroke="black" stroke-width="2"/>
<path d="M350.006 87.4963C346.266 76.4583 335.449 5.49703 341.03 4.94937C346.611 4.40172 346.983 3.64352 353.747 4.94937C356.822 5.54309 358.172 59.7253 359.875 59.7253C361.579 59.7253 365.669 5.41336 369.097 4.94937C373.144 4.40169 373.943 3.72135 379.716 4.94937C382.936 5.63414 389.928 61.7515 390.379 61.7515C390.829 61.7515 392.094 6.11676 395.344 5.69254C401.038 4.94937 403.079 4.94937 407.231 4.94937C410.589 4.94937 400.252 87.4963 397.506 87.4963C390.379 87.4963 389.473 88.7631 382.919 87.4963C380.858 87.0978 373.943 38.544 373.943 38.544C373.943 38.544 368.582 87.4963 364.593 87.4963C360.603 87.4963 350.82 89.8962 350.006 87.4963Z" stroke="black" stroke-width="2"/>
<path d="M431.936 7.39313C430.518 8.66013 410.988 85.951 413.508 87.218C416.029 88.485 425.164 88.2524 427.211 87.218C429.258 86.1836 433.465 53.1983 434.298 52.6118C435.132 52.0254 448.939 51.3451 449.418 52.6118C449.898 53.8786 454.458 87.218 456.033 87.218C457.609 87.218 467.688 89.1186 470.208 87.218C472.728 85.3175 453.198 8.66016 451.781 7.39313C450.363 6.1261 433.353 6.12613 431.936 7.39313Z" stroke="black" stroke-width="2"/>
<path d="M475.874 6.44257C475.874 6.44257 473.153 86.0477 477.179 86.7223C481.204 87.3969 490.227 86.7223 490.227 86.7223L489.481 34.1019L511.009 86.0477C511.009 86.0477 521.457 87.4137 524.859 86.0477C528.262 84.6816 524.859 6.44257 524.859 6.44257C524.859 6.44257 513.359 3.72143 512.613 5.76278C511.868 7.80413 513.293 60.8694 513.293 60.8694C513.293 60.8694 492.883 8.4838 490.227 6.44257C487.57 4.40134 475.874 6.44257 475.874 6.44257Z" stroke="black" stroke-width="2"/>
<path d="M589.857 77.1932C589.438 79.2196 583.94 83.2672 580.446 85.2936C576.952 87.32 556.493 90.8662 548.309 84.2852C538.156 76.1199 536.293 64.5399 535.801 52.8956C534.961 32.977 543.539 17.2902 556.493 9.86152C571.462 1.27732 585.649 11.3806 587.757 12.899C589.866 14.4173 588.501 24.6242 586.806 26.1423C585.112 27.6603 575.951 17.1307 564.772 21.6557C554.612 25.7688 549.318 35.6215 549.519 46.2269C549.941 68.4999 557.805 78.5585 575.053 72.9912C579.554 71.5383 579.277 66.0582 579.277 60.9955C578.855 58.966 580.446 56.9409 567.466 58.966V47.8293C567.466 44.7952 589.436 45.8078 589.857 47.8293C590.277 49.8508 590.276 75.1668 589.857 77.1932Z" stroke="black" stroke-width="2"/>
<path d="M442 21.5C441.2 21.1 439.333 33 438.5 39C440.5 39.3333 444.9 39.8 446.5 39C448.5 38 443 22 442 21.5Z" stroke="black" stroke-width="2"/>
</svg>
