<svg width="349" height="158" viewBox="0 0 349 158" fill="none" xmlns="http://www.w3.org/2000/svg">
<path d="M246.594 10.3455C230.594 -8.85452 191.261 32.0121 173.594 54.8455C173.25 56.5179 173.1 58.8059 173.41 61.3443M246.594 10.3455L255.594 27.8456M246.594 10.3455C250.928 9.34559 259.994 7.64578 261.594 8.84564C261.961 9.12126 262.413 9.65017 262.897 10.3455M255.594 27.8456C255.594 27.8456 255.558 53.1909 253.094 54.8455C250.631 56.5 246.001 59.5 242.594 60.3456M255.594 27.8456C258.761 26.679 265.394 23.8456 266.594 21.8456C267.028 21.1216 266.959 19.8524 266.594 18.3781M242.594 60.3456C240.001 57.5 237.501 54 237.501 54M242.594 60.3456C221.095 83.3456 206.094 94.8456 200.594 89.3456C196.194 84.9456 189.761 80.5123 187.094 78.8456C185.617 78.2375 184.288 77.5453 183.094 76.7871M237.501 54C237.501 54 234.594 46.1913 229.594 44.3456C224.594 42.5 192.594 73.3456 192.594 73.3456L204.094 85.8456C211.928 81.679 229.094 70.7456 235.094 60.3456C235.094 60.3456 227.591 59.1913 224.594 60.3456C221.598 61.5 214.591 74.6913 213.594 73.3456C212.598 72 218.594 58.6456 224.594 57.8456C230.594 57.0456 235.761 55 237.501 54ZM262.897 10.3455C271.129 6.5122 289.294 -0.654356 296.094 1.34564C304.594 3.84564 314.594 3.34576 347.094 23.8457C347.261 26.179 347.094 29.5 343.598 30.5C339.178 31.7641 302.501 8.5 294.098 10.3455C286.501 11 273.394 14.0041 266.594 18.3781M262.897 10.3455C264.283 12.3381 265.929 15.6972 266.594 18.3781M173.41 61.3443L163.094 73.3456C163.6 74.3186 164.289 75.5188 165.11 76.7871M173.41 61.3443C174.035 66.4729 176.535 72.624 183.094 76.7871M183.094 76.7871L175.594 85.8456C174.288 85.8456 172.927 85.2285 171.595 84.246M165.11 76.7871C157.105 86.9733 147.595 111.246 173.594 126.846C179.428 128.846 190.295 137.646 187.094 156.846M165.11 76.7871C166.848 79.4718 169.175 82.4615 171.595 84.246M171.595 84.246C167.595 90.4459 163.495 105.246 179.095 114.846C187.262 119.346 202.495 133.546 198.095 154.346" stroke="black" stroke-width="2"/>
<path d="M242.501 12.9992C232.4 -0.893001 195.501 35.9992 177.001 56.9992C175.501 66.499 189.501 74.4994 188.501 72.9994C187.701 71.7994 218.002 47.9994 221.001 45.4994C224.001 42.9994 230.001 39.4994 232.501 41.9994C235.002 44.4994 241.783 55.1955 243.001 55.5C244.219 55.8045 250.101 52.5 251.001 51C251.901 49.5 254.048 36.9626 252.001 28.9994C250.192 21.9613 246.501 18.4997 242.501 12.9992Z" fill="#FFA8A8"/>
<path d="M189.001 75C193.501 78.8333 202.935 87.9343 203.501 88.5C204.001 89.0001 215.001 82.4999 221.001 78.9999C226.668 73.6666 238.101 62.1 238.501 60.5C239.001 58.5 235.001 56.9996 234.001 58.0002" stroke="#BFBFBF" stroke-opacity="0.5" stroke-width="2"/>
<path d="M256.501 24.5L250.001 12.5652C251.945 12.0435 256.418 11 258.751 11C261.668 11 264.001 18.3043 264.001 20.3913C264.001 22.0609 259.223 24.3261 256.501 24.5Z" fill="#DBDDDE"/>
<path d="M110.097 36.1025C110.097 44.0693 103.672 50.5354 95.7207 50.602C90.851 49.3476 87.2087 47.6763 84.7842 45.3801C82.3799 43.103 81.0966 40.1388 81.0966 36.1025C81.0966 31.9707 82.1729 27.272 84.2541 23.6395C86.3353 20.007 89.3101 17.6025 93.0966 17.6025C96.9779 17.6025 101.229 20.1125 104.564 23.8119C107.892 27.504 110.097 32.1508 110.097 36.1025Z" stroke="black" stroke-width="2"/>
<path d="M108 35.6C108 42.4483 102.404 48 95.5 48C87.4355 45.9594 83 42.4483 83 35.6C83 28.7517 86.5803 20 93.4839 20C100.387 20 108 28.7517 108 35.6Z" fill="#A0DFD0"/>
<path d="M90.5966 39.0518C90.5966 39.7172 89.8796 40.5518 88.5966 40.5518C87.3135 40.5518 86.5966 39.7172 86.5966 39.0518C86.5966 38.3863 87.3135 37.5518 88.5966 37.5518C89.8796 37.5518 90.5966 38.3863 90.5966 39.0518Z" stroke="black" stroke-width="2"/>
<path d="M91.0966 18.0518L89.0966 8.55176M102.097 20.5518L108.097 16.0518M109.097 29.0518L113.597 26.0518M108.097 45.0518L116.597 52.0518M96.5966 51.0518V60.5518M85.0966 46.0518L78.5966 52.0518M81.5966 29.0518L71.5966 24.5518" stroke="black" stroke-width="2"/>
<circle cx="97.0966" cy="43.0518" r="1.5" stroke="black" stroke-width="2"/>
<path d="M90.4353 7.48176C90.1916 8.06079 89.3454 8.78353 88.1498 9.27092C86.9541 9.75831 85.8438 9.8331 85.2648 9.58943C84.8923 9.43269 84.65 9.07858 84.6888 8.20569C84.7275 7.33678 85.0564 6.28425 85.4375 5.37857C85.6998 4.75539 86.3917 4.13212 87.318 3.75451C88.2444 3.37689 89.1748 3.33884 89.798 3.60109C90.3439 3.83079 90.6743 4.3054 90.7909 5.02428C90.9113 5.76655 90.7749 6.67464 90.4353 7.48176Z" stroke="black" stroke-width="2"/>
<path d="M72.5326 22.0078C72.521 22.6359 72.0032 23.6209 71.0736 24.5169C70.1439 25.413 69.1405 25.8942 68.5124 25.8826C68.2545 25.8779 67.9066 25.7667 67.4924 25.4902C67.0852 25.2182 66.6703 24.8229 66.2969 24.351C65.5208 23.3699 65.0835 22.2692 65.0964 21.5702C65.0993 21.4118 65.1929 21.1373 65.5518 20.7607C65.9002 20.3952 66.4141 20.0255 67.0292 19.6933C68.2863 19.0143 69.7093 18.6256 70.5016 18.6401C71.0937 18.651 71.5766 18.9693 71.9515 19.5936C72.3385 20.2383 72.5487 21.1322 72.5326 22.0078Z" stroke="black" stroke-width="2"/>
<path d="M80.1289 54.0357C80.1173 54.6638 79.5995 55.6488 78.6698 56.5449C77.7402 57.4409 76.7368 57.9221 76.1087 57.9106C75.8508 57.9058 75.5028 57.7947 75.0887 57.5181C74.6815 57.2462 74.2665 56.8509 73.8932 56.379C73.1171 55.3979 72.6798 54.2972 72.6927 53.5981C72.7049 52.9336 73.1026 52.1606 73.8067 51.5263C74.5087 50.894 75.3632 50.539 76.0723 50.5521C76.7764 50.565 77.8287 51.0252 78.7413 51.8079C79.6748 52.6086 80.1394 53.4639 80.1289 54.0357Z" stroke="black" stroke-width="2"/>
<path d="M100.26 63.1911C99.8159 64.1105 99.1312 65.1464 98.3437 65.9318C97.5294 66.7439 96.7631 67.1348 96.1463 67.1235C95.5387 67.1123 94.6735 66.632 93.9 65.7376C93.1357 64.8539 92.7119 63.8522 92.7244 63.17C92.729 62.9204 92.8417 62.5675 93.135 62.1543C93.4227 61.7489 93.8473 61.34 94.3703 60.9933C95.4317 60.2899 96.7472 59.9366 97.9181 60.2134C98.9806 60.4645 99.7389 60.9592 100.129 61.4908C100.485 61.9758 100.578 62.5336 100.26 63.1911Z" stroke="black" stroke-width="2"/>
<path d="M123.597 56.0334C123.593 56.2239 123.495 56.5048 123.179 56.8647C122.868 57.2189 122.407 57.5762 121.85 57.897C120.709 58.5527 119.397 58.9254 118.609 58.9109C118.415 58.9073 118.06 58.7871 117.571 58.4052C117.103 58.0407 116.613 57.5157 116.165 56.907C115.719 56.3008 115.337 55.6421 115.072 55.0312C114.799 54.4002 114.688 53.9039 114.693 53.5985C114.696 53.4402 114.79 53.1656 115.149 52.789C115.497 52.4235 116.011 52.0538 116.626 51.7216C117.883 51.0426 119.306 50.6539 120.098 50.6685C120.277 50.6718 120.598 50.7815 121.04 51.1564C121.464 51.5161 121.902 52.0385 122.301 52.6512C122.697 53.2601 123.032 53.925 123.264 54.5449C123.501 55.1807 123.603 55.6991 123.597 56.0334Z" stroke="black" stroke-width="2"/>
<path d="M114.136 24.4965L114.197 24.3358L114.2 24.1641C114.207 23.7434 114.501 23.3148 115.387 22.9531C116.246 22.6026 117.375 22.4564 118.309 22.4736C118.661 22.4801 118.888 22.564 119.043 22.665C119.202 22.7679 119.345 22.9269 119.468 23.1707C119.73 23.6899 119.846 24.4824 119.828 25.4557C119.812 26.3165 119.562 27.1161 119.159 27.6683C118.774 28.1959 118.266 28.4886 117.616 28.4766C117.321 28.4712 116.898 28.3524 116.408 28.0804C115.929 27.8145 115.445 27.4355 115.04 26.9935C114.173 26.0501 113.902 25.123 114.136 24.4965Z" stroke="black" stroke-width="2"/>
<path d="M112.554 13.9666C112.566 14.7631 112.337 15.6873 111.912 16.4197C111.456 17.2057 110.892 17.5944 110.336 17.6244C110.078 17.6383 109.723 17.5525 109.29 17.3066C108.864 17.0647 108.422 16.7004 108.015 16.2566C107.17 15.3341 106.655 14.2678 106.617 13.5696C106.596 13.177 106.881 12.688 107.845 12.2105C108.753 11.7608 109.938 11.5056 110.855 11.4562C111.227 11.4361 111.412 11.5025 111.507 11.5568C111.603 11.6111 111.704 11.707 111.819 11.913C111.941 12.133 112.046 12.4206 112.174 12.8179C112.199 12.8956 112.226 12.978 112.253 13.0641C112.34 13.3399 112.439 13.6529 112.554 13.9666Z" stroke="black" stroke-width="2"/>
<path d="M89.73 100.631C95.5606 99.8423 91.1675 97.7513 87.9571 96.0974C80.9245 91.5641 83.9928 85.4203 85.6521 86.0451C90.0441 87.6989 100.17 96.2945 101.549 90.3814C102.928 84.4683 101.607 82.1801 103.38 82.1801C107.123 82.1801 107.261 89.3959 109.822 91.5641C112.383 93.7322 112.835 84.4123 116.775 80.2731C120.715 76.1339 123.078 83.1658 121.247 86.0451C119.129 89.375 113.762 94.1264 114.353 96.2945C114.944 98.4626 126.624 91.4738 126.624 95.3861C126.624 98.934 118.095 103.193 119.277 105.755C120.223 107.805 125.836 108.712 128.535 108.712C136.079 109.972 131.746 114.781 127.747 114.064C114.781 111.741 116.696 115.579 116.775 116.87C117.957 136.186 111.063 124.557 109.822 120.538C107.625 113.418 104.504 113.442 101.549 117.976C98.5943 122.509 91.6998 123.1 89.73 120.538C87.7602 117.976 94.2607 110.88 91.6998 107.924C89.1388 104.967 80.8658 110.88 76.9262 107.924C72.9866 104.967 82.4417 101.616 89.73 100.631Z" stroke="black" stroke-width="2"/>
<path d="M94.4633 100.97C98.866 100.36 95.5488 98.7416 93.1246 97.4618C87.8143 93.9539 86.6014 89.1998 87.8543 89.6833C91.1707 90.963 102.347 97.6143 103.388 93.0387C104.429 88.4631 102.996 86.9232 104.334 86.9232C107.16 86.9232 106.647 92.7053 109.635 93.9539C113.049 95.3806 114.885 83.1643 117.923 82.008C122.009 80.4531 119.947 84.6098 117.634 86.9232C115.49 89.0678 112.61 95.9366 113.056 97.6143C113.502 99.292 123.17 94.5869 123.17 97.6143C123.17 100.36 115.585 104.022 116.478 106.004C117.37 107.987 124.848 110.341 126.886 110.341C132.582 111.316 128.749 112.63 125.73 112.076C115.938 110.278 114.825 112.537 114.885 113.536C115.777 128.483 110.572 119.484 109.635 116.374C107.976 110.864 103.404 112.656 102.021 114.391C98.9301 118.27 94.612 119.554 93.1246 117.571C91.6372 115.589 97.0458 109.401 95.9507 106.613C94.4633 102.826 83.3121 108.901 80.3373 106.613C77.3625 104.325 88.9599 101.732 94.4633 100.97Z" fill="#AADFBF"/>
<path d="M104.491 106.584C104.491 106.961 104.187 107.494 103.427 108C102.697 108.486 101.803 108.764 101.154 108.764C99.9499 108.764 98.9738 107.788 98.9738 106.584C98.9738 105.956 99.2368 105.232 99.6864 104.67C100.138 104.105 100.671 103.825 101.154 103.825C101.712 103.825 102.576 104.177 103.341 104.814C104.126 105.467 104.491 106.152 104.491 106.584Z" fill="#F7FBFD" stroke="black" stroke-width="2"/>
<path d="M108.249 97.621C108.249 98.3351 107.937 99.2978 107.399 100.081C106.843 100.892 106.238 101.247 105.779 101.247C105.186 101.247 104.413 100.888 103.753 100.229C103.092 99.5698 102.732 98.7975 102.732 98.1992C102.732 97.4405 102.999 96.4625 103.467 95.6923C103.952 94.8943 104.482 94.5732 104.912 94.5732C105.522 94.5732 106.376 94.947 107.116 95.622C107.861 96.3029 108.249 97.0671 108.249 97.621Z" fill="#F7FBFD" stroke="black" stroke-width="2"/>
<path d="M114.321 103.596C114.321 103.664 114.239 103.931 113.736 104.254C113.272 104.551 112.705 104.717 112.318 104.717C111.618 104.717 111.116 104.18 111.116 103.596C111.116 103.273 111.262 102.867 111.531 102.543C111.799 102.22 112.09 102.091 112.318 102.091C112.618 102.091 113.153 102.286 113.65 102.685C114.173 103.104 114.321 103.474 114.321 103.596Z" fill="#F7FBFD" stroke="black" stroke-width="2"/>
<path d="M293.5 3.5C285.5 3.5001 272.833 8.83333 264.5 11.5L266.5 15.5C271.5 12.0002 292.5 7.5 298 8C303.5 8.5 342 28 342 28C342 28 345 26.9996 344 24.9998C343 23 329 15.5 317.5 10C306.517 5.37788 297.204 3.49995 293.5 3.5Z" fill="#C4C4C4"/>
<path d="M165.5 74L173.5 64L180.5 75.5L174.5 83.5C172.1 83.9 167 77 165.5 74Z" fill="#7D7D7D"/>
<path d="M170.001 84L166.001 79.5C160.001 82.5 152.501 114.5 174.001 124C188.349 130.34 190.834 147.167 190.001 155.5L195.501 154C197.834 145.833 198.001 127.4 180.001 119C162.001 110.6 165.501 90.5 170.001 84Z" fill="#7D7D7D"/>
</svg>
