<svg width="285" height="158" viewBox="0 0 285 158" fill="none" xmlns="http://www.w3.org/2000/svg">
<path d="M229.5 3.5C221.5 3.5001 208.833 8.83333 200.5 11.5L202.5 15.5C207.5 12.0002 228.5 7.5 234 8C239.5 8.5 278 28 278 28C278 28 281 26.9996 280 24.9998C279 23 265 15.5 253.5 10C242.517 5.37788 233.204 3.49995 229.5 3.5Z" fill="#C4C4C4"/>
<path d="M101.5 74L109.5 64L116.5 75.5L110.5 83.5C108.1 83.9 103 77 101.5 74Z" fill="#7D7D7D"/>
<path d="M106.001 84L102.001 79.5C96.001 82.5 88.5008 114.5 110.001 124C124.349 130.34 126.834 147.167 126.001 155.5L131.501 154C133.834 145.833 134.001 127.4 116.001 119C98.0006 110.6 101.501 90.5 106.001 84Z" fill="#7D7D7D"/>
<path d="M182.594 10.3455C166.594 -8.85452 127.261 32.0121 109.594 54.8455C109.25 56.5179 109.1 58.8059 109.41 61.3443M182.594 10.3455L191.594 27.8456M182.594 10.3455C186.928 9.34559 195.994 7.64578 197.594 8.84564C197.961 9.12126 198.413 9.65017 198.897 10.3455M191.594 27.8456C191.594 27.8456 191.558 53.1909 189.094 54.8455C186.631 56.5 182.001 59.5 178.594 60.3456M191.594 27.8456C194.761 26.679 201.394 23.8456 202.594 21.8456C203.028 21.1216 202.959 19.8524 202.594 18.3781M178.594 60.3456C176.001 57.5 173.501 54 173.501 54M178.594 60.3456C157.095 83.3456 142.094 94.8456 136.594 89.3456C132.194 84.9456 125.761 80.5123 123.094 78.8456C121.617 78.2375 120.288 77.5453 119.094 76.7871M173.501 54C173.501 54 170.594 46.1913 165.594 44.3456C160.594 42.5 128.594 73.3456 128.594 73.3456L140.094 85.8456C147.928 81.679 165.094 70.7456 171.094 60.3456C171.094 60.3456 163.591 59.1913 160.594 60.3456C157.598 61.5 150.591 74.6913 149.594 73.3456C148.598 72 154.594 58.6456 160.594 57.8456C166.594 57.0456 171.761 55 173.501 54ZM198.897 10.3455C207.129 6.5122 225.294 -0.654356 232.094 1.34564C240.594 3.84564 250.594 3.34576 283.094 23.8457C283.261 26.179 283.094 29.5 279.598 30.5C275.178 31.7641 238.501 8.5 230.098 10.3455C222.501 11 209.394 14.0041 202.594 18.3781M198.897 10.3455C200.283 12.3381 201.929 15.6972 202.594 18.3781M109.41 61.3443L99.0939 73.3456C99.5999 74.3186 100.289 75.5188 101.11 76.7871M109.41 61.3443C110.035 66.4729 112.535 72.624 119.094 76.7871M119.094 76.7871L111.594 85.8456C110.288 85.8456 108.927 85.2285 107.595 84.246M101.11 76.7871C93.1052 86.9733 83.5947 111.246 109.594 126.846C115.428 128.846 126.295 137.646 123.094 156.846M101.11 76.7871C102.848 79.4718 105.175 82.4615 107.595 84.246M107.595 84.246C103.595 90.4459 99.4947 105.246 115.095 114.846C123.262 119.346 138.495 133.546 134.095 154.346" stroke="black" stroke-width="2"/>
<path d="M178.501 12.9992C168.4 -0.893001 131.501 35.9992 113.001 56.9992C111.501 66.499 125.501 74.4994 124.501 72.9994C123.701 71.7994 154.002 47.9994 157.001 45.4994C160.001 42.9994 166.001 39.4994 168.501 41.9994C171.002 44.4994 177.783 55.1955 179.001 55.5C180.219 55.8045 186.101 52.5 187.001 51C187.901 49.5 190.048 36.9626 188.001 28.9994C186.192 21.9613 182.501 18.4997 178.501 12.9992Z" fill="#FFA8A8"/>
<path d="M125.001 75C129.501 78.8333 138.935 87.9343 139.501 88.5C140.001 89.0001 151.001 82.4999 157.001 78.9999C162.668 73.6666 174.101 62.1 174.501 60.5C175.001 58.5 171.001 56.9996 170.001 58.0002" stroke="#BFBFBF" stroke-opacity="0.5" stroke-width="2"/>
<path d="M192.501 24.5L186.001 12.5652C187.945 12.0435 192.418 11 194.751 11C197.668 11 200.001 18.3043 200.001 20.3913C200.001 22.0609 195.223 24.3261 192.501 24.5Z" fill="#DBDDDE"/>
<path d="M46.0967 36.1025C46.0967 44.0693 39.6718 50.5354 31.7208 50.602C26.8512 49.3476 23.2088 47.6763 20.7843 45.3801C18.38 43.103 17.0967 40.1388 17.0967 36.1025C17.0967 31.9707 18.1731 27.272 20.2542 23.6395C22.3354 20.007 25.3102 17.6025 29.0967 17.6025C32.978 17.6025 37.2292 20.1125 40.5641 23.8119C43.8923 27.504 46.0967 32.1508 46.0967 36.1025Z" stroke="black" stroke-width="2"/>
<path d="M44 35.6C44 42.4483 38.4036 48 31.5 48C23.4355 45.9594 19 42.4483 19 35.6C19 28.7517 22.5803 20 29.4839 20C36.3874 20 44 28.7517 44 35.6Z" fill="#A0DFD0"/>
<path d="M26.5967 39.0518C26.5967 39.7172 25.8797 40.5518 24.5967 40.5518C23.3137 40.5518 22.5967 39.7172 22.5967 39.0518C22.5967 38.3863 23.3137 37.5518 24.5967 37.5518C25.8797 37.5518 26.5967 38.3863 26.5967 39.0518Z" stroke="black" stroke-width="2"/>
<path d="M27.0967 18.0518L25.0967 8.55176M38.0967 20.5518L44.0967 16.0518M45.0967 29.0518L49.5967 26.0518M44.0967 45.0518L52.5967 52.0518M32.5967 51.0518V60.5518M21.0967 46.0518L14.5967 52.0518M17.5967 29.0518L7.59668 24.5518" stroke="black" stroke-width="2"/>
<circle cx="33.0967" cy="43.0518" r="1.5" stroke="black" stroke-width="2"/>
<path d="M26.4354 7.48176C26.1917 8.06079 25.3456 8.78353 24.1499 9.27092C22.9543 9.75831 21.844 9.8331 21.2649 9.58943C20.8925 9.43269 20.6501 9.07858 20.6889 8.20569C20.7276 7.33678 21.0565 6.28425 21.4376 5.37857C21.6999 4.75539 22.3918 4.13212 23.3181 3.75451C24.2445 3.37689 25.175 3.33884 25.7981 3.60109C26.344 3.83079 26.6744 4.3054 26.791 5.02428C26.9114 5.76655 26.7751 6.67464 26.4354 7.48176Z" stroke="black" stroke-width="2"/>
<path d="M8.53272 22.0078C8.52116 22.6359 8.00335 23.6209 7.0737 24.5169C6.14405 25.413 5.14065 25.8942 4.51254 25.8826C4.2546 25.8779 3.90668 25.7667 3.49255 25.4902C3.08532 25.2182 2.6704 24.8229 2.29704 24.351C1.5209 23.3699 1.08364 22.2692 1.09651 21.5702C1.09942 21.4118 1.19302 21.1373 1.55196 20.7607C1.90032 20.3952 2.41417 20.0255 3.0293 19.6933C4.28646 19.0143 5.70942 18.6256 6.50174 18.6401C7.09385 18.651 7.57676 18.9693 7.95161 19.5936C8.33867 20.2383 8.54884 21.1322 8.53272 22.0078Z" stroke="black" stroke-width="2"/>
<path d="M16.129 54.0357C16.1174 54.6638 15.5996 55.6488 14.67 56.5449C13.7403 57.4409 12.7369 57.9221 12.1088 57.9106C11.8509 57.9058 11.503 57.7947 11.0888 57.5181C10.6816 57.2462 10.2667 56.8509 9.89332 56.379C9.11718 55.3979 8.67991 54.2972 8.69278 53.5981C8.70502 52.9336 9.10275 52.1606 9.80687 51.5263C10.5089 50.894 11.3633 50.539 12.0724 50.5521C12.7765 50.565 13.8288 51.0252 14.7414 51.8079C15.6749 52.6086 16.1395 53.4639 16.129 54.0357Z" stroke="black" stroke-width="2"/>
<path d="M36.2602 63.1911C35.816 64.1105 35.1313 65.1464 34.3439 65.9318C33.5295 66.7439 32.7632 67.1348 32.1464 67.1235C31.5388 67.1123 30.6737 66.632 29.9001 65.7376C29.1358 64.8539 28.712 63.8522 28.7246 63.17C28.7292 62.9204 28.8418 62.5675 29.1351 62.1543C29.4228 61.7489 29.8474 61.34 30.3704 60.9933C31.4318 60.2899 32.7473 59.9366 33.9182 60.2134C34.9807 60.4645 35.739 60.9592 36.1292 61.4908C36.4852 61.9758 36.5777 62.5336 36.2602 63.1911Z" stroke="black" stroke-width="2"/>
<path d="M59.5968 56.0334C59.5933 56.2239 59.4953 56.5048 59.1792 56.8647C58.8681 57.2189 58.4075 57.5762 57.8496 57.897C56.7091 58.5527 55.3967 58.9254 54.6093 58.9109C54.4147 58.9073 54.0605 58.7871 53.5707 58.4052C53.1031 58.0407 52.613 57.5157 52.1649 56.907C51.7187 56.3008 51.3368 55.6421 51.0722 55.0312C50.7991 54.4002 50.6876 53.9039 50.6933 53.5985C50.6962 53.4402 50.7898 53.1656 51.1487 52.789C51.4971 52.4235 52.0109 52.0538 52.626 51.7216C53.8832 51.0426 55.3062 50.6539 56.0985 50.6685C56.2774 50.6718 56.5978 50.7815 57.0399 51.1564C57.464 51.5161 57.9025 52.0385 58.3012 52.6512C58.6973 53.2601 59.0326 53.925 59.2639 54.5449C59.5013 55.1807 59.603 55.6991 59.5968 56.0334Z" stroke="black" stroke-width="2"/>
<path d="M50.1364 24.4965L50.1966 24.3358L50.1998 24.1641C50.2075 23.7434 50.5006 23.3148 51.3874 22.9531C52.2465 22.6026 53.3749 22.4564 54.3096 22.4736C54.6615 22.4801 54.888 22.564 55.0435 22.665C55.2017 22.7679 55.345 22.9269 55.4681 23.1707C55.7305 23.6899 55.8461 24.4824 55.8282 25.4557C55.8123 26.3165 55.5623 27.1161 55.1593 27.6683C54.7742 28.1959 54.2663 28.4886 53.6158 28.4766C53.3216 28.4712 52.8986 28.3524 52.4081 28.0804C51.9287 27.8145 51.4456 27.4355 51.0398 26.9935C50.1735 26.0501 49.9017 25.123 50.1364 24.4965Z" stroke="black" stroke-width="2"/>
<path d="M48.5542 13.9666C48.5663 14.7631 48.337 15.6873 47.9123 16.4197C47.4566 17.2057 46.8924 17.5944 46.3357 17.6244C46.0781 17.6383 45.7231 17.5525 45.2901 17.3066C44.8643 17.0647 44.4219 16.7004 44.0155 16.2566C43.1706 15.3341 42.655 14.2678 42.6174 13.5696C42.5963 13.177 42.8812 12.688 43.8453 12.2105C44.7533 11.7608 45.9383 11.5056 46.8555 11.4562C47.2274 11.4361 47.4117 11.5025 47.5073 11.5568C47.6029 11.6111 47.7045 11.707 47.8188 11.913C47.9408 12.133 48.0465 12.4206 48.1746 12.8179C48.1996 12.8956 48.2256 12.978 48.2528 13.0641C48.34 13.3399 48.4388 13.6529 48.5542 13.9666Z" stroke="black" stroke-width="2"/>
<path d="M25.73 100.631C31.5606 99.8423 27.1675 97.7513 23.9571 96.0974C16.9245 91.5641 19.9928 85.4203 21.6521 86.0451C26.0441 87.6989 36.1701 96.2945 37.549 90.3814C38.9279 84.4683 37.6075 82.1801 39.3803 82.1801C43.1229 82.1801 43.2615 89.3959 45.8222 91.5641C48.383 93.7322 48.8354 84.4123 52.775 80.2731C56.7146 76.1339 59.0784 83.1658 57.2471 86.0451C55.1293 89.375 49.7618 94.1264 50.3528 96.2945C50.9437 98.4626 62.624 91.4738 62.624 95.3861C62.624 98.934 54.0954 103.193 55.2773 105.755C56.2228 107.805 61.8361 108.712 64.5354 108.712C72.0791 109.972 67.7455 114.781 63.7474 114.064C50.7805 111.741 52.696 115.579 52.775 116.87C53.9569 136.186 47.0626 124.557 45.8222 120.538C43.6247 113.418 40.5037 113.442 37.549 117.976C34.5943 122.509 27.6998 123.1 25.73 120.538C23.7602 117.976 30.2607 110.88 27.6998 107.924C25.1388 104.967 16.8658 110.88 12.9262 107.924C8.98661 104.967 18.4417 101.616 25.73 100.631Z" stroke="black" stroke-width="2"/>
<path d="M30.4632 100.97C34.8659 100.36 31.5487 98.7417 29.1245 97.4619C23.8141 93.954 22.6013 89.1999 23.8542 89.6834C27.1706 90.9631 38.3466 97.6144 39.3877 93.0388C40.4289 88.4632 38.9956 86.9234 40.3342 86.9234C43.1603 86.9234 42.6472 92.7054 45.6349 93.954C49.049 95.3808 50.8849 83.1645 53.9231 82.0081C58.0085 80.4533 55.947 84.6099 53.634 86.9234C51.4898 89.0679 48.6097 95.9367 49.0559 97.6144C49.5021 99.2921 59.1702 94.587 59.1702 97.6144C59.1702 100.36 51.585 104.022 52.4775 106.004C53.3699 107.987 60.8477 110.341 62.8859 110.341C68.5822 111.316 64.7484 112.63 61.7294 112.076C51.9381 110.278 50.8253 112.537 50.8849 113.536C51.7774 128.483 46.5715 119.484 45.6349 116.374C43.9755 110.865 39.4041 112.656 38.0212 114.391C34.93 118.27 30.6119 119.554 29.1245 117.571C27.6371 115.589 33.0457 109.401 31.9506 106.613C30.4632 102.826 19.312 108.901 16.3372 106.613C13.3624 104.325 24.9598 101.732 30.4632 100.97Z" fill="#AADFBF"/>
<path d="M40.4909 106.584C40.4909 106.961 40.1873 107.494 39.427 108C38.6971 108.486 37.8025 108.764 37.154 108.764C35.9498 108.764 34.9736 107.788 34.9736 106.584C34.9736 105.956 35.2367 105.232 35.6863 104.67C36.1375 104.105 36.671 103.825 37.154 103.825C37.7119 103.825 38.5761 104.177 39.3412 104.814C40.1256 105.467 40.4909 106.152 40.4909 106.584Z" fill="#F7FBFD" stroke="black" stroke-width="2"/>
<path d="M44.2492 97.621C44.2492 98.3351 43.9376 99.2978 43.3995 100.081C42.8428 100.892 42.2379 101.247 41.7797 101.247C41.1861 101.247 40.4134 100.888 39.7529 100.229C39.0927 99.5698 38.7319 98.7975 38.7319 98.1992C38.7319 97.4405 38.9988 96.4625 39.4672 95.6923C39.9524 94.8943 40.4825 94.5732 40.9123 94.5732C41.5221 94.5732 42.3765 94.947 43.1158 95.622C43.8615 96.3029 44.2492 97.0671 44.2492 97.621Z" fill="#F7FBFD" stroke="black" stroke-width="2"/>
<path d="M50.3204 103.596C50.3204 103.663 50.2385 103.931 49.7356 104.254C49.2714 104.551 48.7054 104.717 48.318 104.717C47.6184 104.717 47.1162 104.18 47.1162 103.596C47.1162 103.273 47.2619 102.867 47.5306 102.543C47.7986 102.22 48.0896 102.091 48.318 102.091C48.6177 102.091 49.153 102.286 49.6496 102.684C50.1732 103.104 50.3204 103.474 50.3204 103.596Z" fill="#F7FBFD" stroke="black" stroke-width="2"/>
</svg>
