<svg width="31" height="31" viewBox="0 0 31 31" fill="none" xmlns="http://www.w3.org/2000/svg">
<path d="M31 19.0046V31H24.3542V19.8085C24.3542 16.9984 23.3947 15.0794 20.9885 15.0794C19.1522 15.0794 18.0614 16.3713 17.5796 17.6223C17.4047 18.0694 17.3596 18.6902 17.3596 19.3173V30.9995H10.7133C10.7133 30.9995 10.8025 12.0447 10.7133 10.0827H17.3601V13.0468C17.3467 13.0701 17.3278 13.0929 17.316 13.1152H17.3601V13.0468C18.2433 11.6246 19.8183 9.59149 23.3496 9.59149C27.722 9.59149 31 12.581 31 19.0046ZM3.76076 0C1.48735 0 0 1.56167 0 3.61347C0 5.6217 1.44423 7.22849 3.67353 7.22849H3.71665C6.03466 7.22849 7.47592 5.6217 7.47592 3.61347C7.43181 1.56167 6.03466 0 3.76076 0ZM0.395008 31H7.03879V10.0827H0.395008V31Z" fill="#404040"/>
</svg>
