<svg width="31" height="30" viewBox="0 0 31 30" fill="none" xmlns="http://www.w3.org/2000/svg">
<path d="M31 18.3915V30H24.3542V19.1695C24.3542 16.4501 23.3947 14.5929 20.9885 14.5929C19.1522 14.5929 18.0614 15.8432 17.5796 17.0539C17.4047 17.4865 17.3596 18.0873 17.3596 18.6942V29.9995H10.7133C10.7133 29.9995 10.8025 11.6562 10.7133 9.7574H17.3601V12.6259C17.3467 12.6485 17.3278 12.6706 17.316 12.6922H17.3601V12.6259C18.2433 11.2496 19.8183 9.28208 23.3496 9.28208C27.722 9.28208 31 12.1752 31 18.3915ZM3.76076 0C1.48735 0 0 1.51129 0 3.49691C0 5.44036 1.44423 6.99532 3.67353 6.99532H3.71665C6.03466 6.99532 7.47592 5.44036 7.47592 3.49691C7.43181 1.51129 6.03466 0 3.76076 0ZM0.395008 30H7.03879V9.7574H0.395008V30Z" fill="#404040"/>
</svg>
