<svg width="470" height="75" viewBox="0 0 470 75" fill="none" xmlns="http://www.w3.org/2000/svg">
<path d="M153.383 7.51873C152.832 4.71793 143.098 6.12762 142.557 7.14609C141.145 9.80209 143.64 31.5796 144.181 40.2366C144.722 48.8937 141.261 73.2773 143.099 73.7097C146.347 74.4736 151.759 75.502 153.383 73.465C156.261 69.8558 154.737 46.796 155.136 46.796C155.536 46.796 164.751 46.0352 166.233 46.796C167.715 47.5568 164.751 67.609 164.751 73.465C164.751 74.7383 172.009 73.465 176.659 73.465C177.742 73.465 178.012 5.90562 176.659 5.48178C174.223 4.7187 165.114 3.88745 164.751 5.48178C163.939 9.04651 168.452 36.1448 166.233 37.0545C164.014 37.9643 156.09 38.3447 154.737 37.0545C153.383 35.7644 154.737 14.3937 153.383 7.51873Z" fill="#CDCAF3"/>
<path d="M39.2597 39.8869C31.1799 34.3954 19.3221 31.6065 21.4635 23.1166C23.4314 15.3148 30.9416 13.9462 35.383 17.861C38.308 20.4391 38.3305 25.6657 38.1888 26.9499C37.8318 30.184 48.7733 30.1841 49.4874 26.9499C49.8679 25.2265 47.1778 15.2075 44.1338 11.8196C41.0897 8.43173 35.9605 5.32432 30.9591 4.56892C24.0815 3.84752 16.7934 5.79068 12.4307 11.8196C6.87222 19.501 5.71073 32.2057 14.9904 39.078C28.2494 48.8974 37.1187 52.0153 33.9065 58.4839C24.9172 69.0158 15.3475 51.2064 14.9904 49.9938C14.6334 48.7812 14.2766 47.669 13.2057 47.3595C9.99352 46.4311 3.56934 49.9941 3.56934 52.4198C3.56934 55.6541 12.0279 69.4638 20.0837 71.8349C28.1395 74.206 41.9736 72.1142 45.684 64.5484C49.2528 57.2713 42.8288 42.3126 39.2597 39.8869Z" fill="#C0D9FF"/>
<path d="M199.491 6.92793C195.401 4.07332 186.902 5.82968 186.902 6.92793C186.902 8.02618 186.902 8.02618 186.902 9.85627C186.902 11.6864 185.853 72.4449 186.902 73.5433C187.952 74.6417 197.743 75.3738 199.491 73.5433C201.24 71.7129 201.589 8.39222 199.491 6.92793Z" fill="#FFEDC0"/>
<path d="M208.653 10.4308C208.653 8.608 209.019 7.50667 209.314 7.46977C217.076 6.49753 233.871 5.13645 245.143 7.46983C245.814 9.30498 246.754 18.6886 245.143 20.7661C237.573 20.8898 223.002 19.9423 223.002 20.7661C223.002 21.5081 222.197 33.0089 223.002 34.4929C223.807 35.9769 243.936 33.0089 245.143 35.6059C246.351 38.2029 246.351 45.9937 245.143 47.4777C243.936 48.9617 223.002 46.7357 222.197 47.4777C221.391 48.2197 221.391 63.0594 222.197 63.4304C223.002 63.8014 245.143 61.2045 245.143 63.4304C245.144 65.6564 246.753 71.9683 245.143 73.8207C243.533 75.6732 208.653 73.865 208.653 73.865C207.604 72.771 208.653 12.2537 208.653 10.4308Z" fill="#FFDDF5"/>
<path d="M279.991 72.933C277.028 64.1907 268.461 7.98759 272.881 7.55384C277.302 7.12008 277.596 6.51957 282.953 7.55384C285.389 8.02408 286.458 50.9377 287.807 50.9377C289.156 50.9377 292.396 7.92133 295.111 7.55384C298.317 7.12006 298.949 6.58122 303.522 7.55384C306.072 8.09619 311.61 52.5425 311.967 52.5425C312.323 52.5425 313.325 8.47843 315.9 8.14245C320.409 7.55384 322.026 7.55384 325.314 7.55384C327.973 7.55384 319.787 72.933 317.612 72.933C311.967 72.933 311.249 73.9364 306.058 72.933C304.426 72.6174 298.949 34.1616 298.949 34.1616C298.949 34.1616 294.703 72.933 291.544 72.933C288.384 72.933 280.635 74.8338 279.991 72.933Z" fill="#BEBCD1"/>
<path d="M379.682 8.73647C379.682 8.73647 377.527 71.7857 380.715 72.32C383.903 72.8543 391.049 72.32 391.049 72.32L390.459 30.6434L407.51 71.7857C407.51 71.7857 415.784 72.8676 418.479 71.7857C421.174 70.7037 418.479 8.73647 418.479 8.73647C418.479 8.73647 409.37 6.58126 408.78 8.19807C408.189 9.81487 409.319 51.8439 409.319 51.8439C409.319 51.8439 393.153 10.3532 391.049 8.73647C388.945 7.11977 379.682 8.73647 379.682 8.73647Z" fill="#D1E0B1"/>
<path d="M469.167 63.9808C468.835 65.5858 464.48 68.7916 461.713 70.3965C458.946 72.0015 442.742 74.8102 436.26 69.5979C428.218 63.1308 426.743 53.9591 426.354 44.7365C425.688 28.9605 432.482 16.5362 442.742 10.6525C454.598 3.85358 465.834 11.8557 467.504 13.0582C469.174 14.2607 468.093 22.3449 466.751 23.5472C465.409 24.7496 458.153 16.4098 449.299 19.9938C441.252 23.2514 437.059 31.055 437.218 39.4548C437.553 57.0955 443.781 65.0621 457.442 60.6527C461.007 59.502 460.787 55.1616 460.787 51.1518C460.453 49.5444 461.713 47.9405 451.433 49.5444V40.7239C451.433 38.3208 468.833 39.1228 469.167 40.7239C469.5 42.325 469.499 62.3759 469.167 63.9808Z" fill="#F2B6B6"/>
<path fill-rule="evenodd" clip-rule="evenodd" d="M330.286 72.7127C328.29 71.7092 343.758 10.4929 344.881 9.48945C346.004 8.48595 359.476 8.48593 360.599 9.48945C361.721 10.493 377.19 71.2074 375.194 72.7127C373.654 73.8737 368.553 73.2438 365.728 72.8949C364.89 72.7915 364.252 72.7127 363.967 72.7127C363.09 72.7127 361.045 59.6646 359.775 51.5643C359.238 48.1413 358.84 45.6018 358.728 45.3038C358.347 44.3005 347.412 44.8393 346.752 45.3038C346.498 45.4827 345.847 49.4696 345.05 54.3509C343.779 62.141 342.136 72.2091 341.139 72.7127C339.517 73.532 332.282 73.7162 330.286 72.7127ZM352.585 18.1304C351.882 17.9921 349.591 32.0176 349.591 32.0176C349.591 32.0176 355.385 32.8342 355.953 32.0176C356.522 31.201 353.289 18.2688 352.585 18.1304Z" fill="#C2DEED"/>
<path fill-rule="evenodd" clip-rule="evenodd" d="M74.3632 71.7431C86.2561 71.7431 95.8973 57.4426 95.8973 38.3115C95.8973 19.1804 82.7131 5.283 74.3632 5.28271C63.2976 5.28234 52.3896 17.3572 52.3896 36.4883C52.3896 55.6195 61.8822 71.3403 74.3632 71.7431ZM75.0676 54.3361C80.6742 54.3361 85.2193 46.9304 85.2193 37.7949C85.2193 28.6594 78.9823 18.8906 73.3756 18.8906C67.7689 18.8906 64.9158 28.6594 64.9158 37.7949C64.9158 46.9304 69.4609 54.3361 75.0676 54.3361Z" fill="#FFD5C8"/>
<path d="M150.813 4.09246C150.262 1.29166 140.528 2.70135 139.987 3.71982C138.575 6.37582 141.07 28.1533 141.611 36.8104C142.152 45.4674 138.691 69.851 140.529 70.2834C143.776 71.0474 149.189 72.0757 150.813 70.0387C153.691 66.4295 152.166 43.3697 152.566 43.3697C152.966 43.3697 162.18 42.6089 163.663 43.3697C165.145 44.1305 162.18 64.1828 162.18 70.0387C162.18 71.3121 169.438 70.0387 174.089 70.0387C175.171 70.0387 175.442 2.47935 174.089 2.05551C171.653 1.29243 162.544 0.46118 162.18 2.05551C161.368 5.62024 165.881 32.7185 163.663 33.6283C161.444 34.538 153.52 34.9184 152.166 33.6283C150.813 32.3381 152.166 10.9674 150.813 4.09246Z" stroke="black" stroke-width="2"/>
<path fill-rule="evenodd" clip-rule="evenodd" d="M101.851 7.22004C101.851 9.39019 101.851 70.0254 101.851 72.0763C101.85 74.1273 110.712 75.963 111.92 73.0251C112.704 71.1196 112.471 63.0275 112.211 53.9772C112.07 49.0735 111.92 43.8884 111.92 39.2537C122.259 40.1492 138.182 38.0703 138.504 24.5617C138.69 16.7718 135.282 8.16879 128.032 6.88534C115.694 3.9139 101.85 6.05106 101.851 7.22004ZM112.582 16.0662C112.335 19.2425 111.923 24.5416 113.509 24.8437C115.523 25.2275 129.781 25.2894 128.815 20.9912C128.271 18.5725 127.292 14.8791 123.981 14.0974C119.938 13.1427 112.703 12.1789 112.703 14.0979C112.703 14.5058 112.648 15.2086 112.582 16.0662Z" fill="#CFE3CE"/>
<path d="M99.2808 68.6505C99.2813 66.5996 99.2812 5.96438 99.2808 3.79423C99.2805 2.62525 113.124 0.488091 125.462 3.45953C132.712 4.74297 136.12 13.346 135.935 21.1359C135.612 34.6444 119.689 36.7234 109.35 35.8279C109.35 49.0165 110.559 66.6613 109.35 69.5993C108.142 72.5372 99.2803 70.7015 99.2808 68.6505Z" stroke="black" stroke-width="2"/>
<path d="M110.962 24.1816C108.949 23.7978 110.157 15.3546 110.157 13.4357C110.157 11.5168 117.392 12.4805 121.435 13.4352C124.745 14.2169 125.724 17.9103 126.268 20.329C127.235 24.6272 112.976 24.5654 110.962 24.1816Z" stroke="black" stroke-width="2"/>
<path d="M36.6904 36.4611C28.6106 30.9696 16.7528 28.1807 18.8942 19.6908C20.862 11.8891 28.3722 10.5204 32.8137 14.4352C35.7387 17.0133 35.7612 22.24 35.6195 23.5241C35.2625 26.7582 46.204 26.7583 46.9181 23.5242C47.2986 21.8007 44.6084 11.7817 41.5644 8.39381C38.5204 5.00595 33.3912 1.89854 28.3897 1.14314C21.5122 0.421736 14.224 2.3649 9.86138 8.39377C4.30288 16.0752 3.1414 28.7799 12.4211 35.6523C25.68 45.4716 34.5493 48.5895 31.3372 55.0581C22.3479 65.59 12.7781 47.7806 12.4211 46.568C12.064 45.3554 11.7072 44.2432 10.6364 43.9337C7.42418 43.0053 1 46.5683 1 48.994C1 52.2283 9.45859 66.038 17.5144 68.4091C25.5702 70.7802 39.4043 68.6884 43.1147 61.1227C46.6835 53.8455 40.2594 38.8868 36.6904 36.4611Z" stroke="black" stroke-width="2"/>
<path d="M196.307 4.6736C196.264 4.46337 196.224 4.31468 196.192 4.21693C194.431 3.0837 191.673 2.8087 189.177 3.01662C187.918 3.12148 186.804 3.34315 186.029 3.59035C185.716 3.69011 185.486 3.78535 185.333 3.86427V3.86848V3.87356V3.87863V3.88369V3.88872V3.89374V3.89875V3.90373V3.90871V3.91366V3.91861V3.92353V3.92844V3.93334V3.93822V3.94308V3.94793V3.95277V3.95759V3.9624V3.96719V3.97197V3.97673V3.98148V3.98622V3.99094V3.99565V4.00035V4.00503V4.0097V4.01436V4.019V4.02363V4.02825V4.03286V4.03745V4.04203V4.0466V4.05116V4.05571V4.06024V4.06477V4.06928V4.07378V4.07827V4.08274V4.08721V4.09167V4.09611V4.10055V4.10498V4.10939V4.1138V4.11819V4.12258V4.12695V4.13132V4.13567V4.14002V4.14436V4.14869V4.15301V4.15732V4.16162V4.16592V4.1702V4.17448V4.17875V4.18301V4.18726V4.19151V4.19575V4.19998V4.2042V4.20842V4.21263V4.21683V4.22102V4.22521V4.2294V4.23357V4.23774V4.2419V4.24606V4.25021V4.25436V4.2585V4.26263V4.26676V4.27089V4.275V4.27912V4.28323V4.28733V4.29143V4.29553V4.29962V4.3037V4.30779V4.31186V4.31594V4.32001V4.32408V4.32814V4.3322V4.33626V4.34032V4.34437V4.34842V4.35246V4.35651V4.36055V4.36459V4.36863V4.37266V4.3767V4.38073V4.38476V4.38879V4.39281V4.39684V4.40087V4.40489V4.40891V4.41294V4.41696V4.42098V4.425V4.42903V4.43305V4.43707V4.44109V4.44511V4.44914V4.45316V4.45718V4.46121V4.46524V4.46926V4.47329V4.47732V4.48135V4.48539V4.48942V4.49346V4.4975V4.50154V4.50559V4.50963V4.51368V4.51773V4.52179V4.52585V4.52991V4.53397V4.53804V4.54211V4.54618V4.55026V4.55435V4.55843V4.56252V4.56662V4.57072V4.57482V4.57893V4.58304V4.58716V4.59129V4.59541V4.59955V4.60369V4.60783V4.61198V4.61614V4.62031V4.62447V4.62865V4.63283V4.63702V4.64122V4.64542V4.64963V4.65384V4.65807V4.6623V4.66653V4.67078V4.67503V4.67929V4.68356V4.68784V4.69212V4.69642V4.70072V4.70503V4.70935V4.71368V4.71802V4.72236V4.72672V4.73109V4.73546V4.73985V4.74424V4.74864V4.75306V4.75748V4.76192V4.76636V4.77082V4.77529V4.77977V4.78425V4.78875V4.79327V4.79779V4.80232V4.80687V4.81143V4.81599V4.82058V4.82517V4.82978V4.83439V4.83902V4.84367V4.84832V4.85299V4.85768V4.86237V4.86708V4.8718V4.87654V4.88129V4.88605V4.89083V4.89562V4.90043V4.90525V4.91008V4.91493V4.9198V4.92468V4.92957V4.93448V4.93941V4.94435V4.9493V4.95428V4.95926V4.96427V4.96929V4.97432V4.97937V4.98444V4.98953V4.99463V4.99975V5.00489V5.01004V5.01521V5.0204V5.0256V5.03083V5.03607V5.04133V5.0466V5.0519V5.05721V5.06254V5.06789V5.07326V5.07865V5.08406V5.08948V5.09493V5.10039V5.10588V5.11138V5.1169V5.12245V5.12801V5.13359V5.1392V5.14482V5.15047V5.15613V5.16182V5.16753V5.17325V5.179V5.18478V5.19057V5.19638V5.20222V5.20807V5.21395V5.21986V5.22578V5.23173V5.2377V5.24369V5.2497V5.25574V5.2618V5.26788V5.27399V5.28012V5.28627V5.29245V5.29865V5.30488V5.31112V5.3174V5.3237V5.33002V5.33636V5.34274V5.34913V5.35555V5.362V5.36847V5.37497V5.38149V5.38804V5.39462V5.40122V5.40784V5.41449V5.42117V5.42788V5.43461V5.44137V5.44815V5.45497V5.4618V5.46867V5.47556V5.48249V5.48944V5.49641V5.50342V5.51045V5.51751V5.5246V5.53172V5.53886V5.54604V5.55324V5.56047V5.56773V5.57502V5.58234V5.58969V5.59707V5.60448V5.61192V5.61939V5.62689V5.63442V5.64197V5.64956V5.65718V5.66484V5.67252V5.68023V5.68797V5.69575V5.70356V5.7114V5.71927V5.72717V5.7351V5.74307V5.75107V5.7591V5.76716V5.77525V5.78338V5.79154V5.79974V5.80796V5.81622V5.82452V5.83285V5.84121V5.8496V5.85803V5.86649V5.87499V5.88352V5.89209V5.90069V5.90932V5.91799V5.92669V5.93543V5.94421V5.95302V5.96186V5.97075V5.97966V5.98862V5.9976V6.00663V6.01569V6.02479V6.03392V6.04309V6.0523V6.06155V6.07083V6.08015V6.0895V6.0989V6.10833V6.11779V6.1273V6.13685V6.14643V6.15605V6.16571V6.17541V6.18514V6.19492V6.20473V6.21458V6.22448V6.23441V6.24438V6.25439V6.26444V6.27453V6.28466V6.29483V6.30504V6.31529V6.32558V6.33591V6.34628V6.35669V6.36715V6.37764V6.38818V6.39876V6.40937V6.42003V6.43074C185.333 6.68091 185.314 8.03163 185.282 10.1794C185.2 15.8978 185.035 27.2663 184.94 38.5571C184.874 46.3336 184.841 54.0818 184.89 59.9523C184.915 62.889 184.96 65.3468 185.031 67.1004C185.067 67.9796 185.108 68.6666 185.155 69.1433C185.169 69.2774 185.182 69.3882 185.194 69.4776C185.25 69.5003 185.322 69.5275 185.415 69.5578C185.726 69.6596 186.152 69.7614 186.672 69.8541C187.71 70.0387 189.038 70.1722 190.398 70.2166C191.761 70.2612 193.118 70.2152 194.221 70.0549C194.773 69.9746 195.235 69.8693 195.591 69.7445C195.861 69.65 196.027 69.5594 196.121 69.4923C196.122 69.4894 196.122 69.4864 196.123 69.4834C196.159 69.3637 196.202 69.1773 196.248 68.9129C196.339 68.388 196.428 67.6446 196.514 66.6998C196.684 64.8154 196.833 62.2057 196.955 59.1033C197.2 52.9027 197.342 44.7833 197.364 36.6701C197.386 28.5564 197.288 20.4616 197.053 14.3094C196.936 11.2306 196.786 8.65409 196.601 6.80978C196.508 5.88406 196.409 5.16789 196.307 4.6736ZM196.09 69.5778C196.09 69.5779 196.092 69.5754 196.094 69.5697C196.092 69.5748 196.09 69.5777 196.09 69.5778Z" stroke="black" stroke-width="2"/>
<path d="M207.394 4.74602C207.394 4.746 207.394 4.74696 207.392 4.74901C207.394 4.74707 207.394 4.74604 207.394 4.74602ZM207.305 4.98259C207.295 5.01755 207.284 5.05667 207.273 5.1002C207.17 5.50822 207.083 6.15349 207.083 7.00529C207.083 7.25448 207.064 8.59988 207.033 10.7392C206.95 16.435 206.785 27.7584 206.69 39.0041C206.624 46.7498 206.592 54.4672 206.641 60.3143C206.665 63.2394 206.71 65.6873 206.781 67.4338C206.817 68.3094 206.859 68.9936 206.906 69.4682C206.906 69.472 206.906 69.4757 206.907 69.4795C207.112 69.4896 207.355 69.5014 207.633 69.5147C208.589 69.5605 209.956 69.6238 211.601 69.694C214.893 69.8344 219.297 70.0023 223.75 70.1123C228.206 70.2225 232.697 70.2743 236.167 70.184C237.906 70.1387 239.366 70.0583 240.429 69.9356C240.964 69.8739 241.37 69.8046 241.65 69.7326C241.755 69.7053 241.829 69.6812 241.878 69.6626C242.043 69.4212 242.193 68.9651 242.257 68.2184C242.325 67.4211 242.281 66.4592 242.183 65.436C242.099 64.5693 241.98 63.6949 241.868 62.8716C241.848 62.7262 241.829 62.5824 241.81 62.4405C241.711 61.7055 241.619 60.9899 241.586 60.4064C241.534 60.3903 241.469 60.3726 241.392 60.3545C240.883 60.2348 240.094 60.1545 239.066 60.1173C237.028 60.0438 234.275 60.1455 231.46 60.3076C229.274 60.4335 227.075 60.5943 225.171 60.7335C224.629 60.7731 224.111 60.811 223.624 60.8458C222.53 60.924 221.587 60.9872 220.89 61.0191C220.543 61.0349 220.243 61.0437 220.009 61.0415C219.893 61.0405 219.777 61.0366 219.672 61.027L219.668 61.0266C219.602 61.0206 219.403 61.0024 219.209 60.9132C218.915 60.7779 218.762 60.5502 218.699 60.4464C218.623 60.3221 218.573 60.1955 218.539 60.0953C218.47 59.892 218.418 59.6528 218.377 59.4114C218.293 58.9197 218.228 58.268 218.177 57.5291C218.074 56.0432 218.023 54.1055 218.023 52.1676C218.023 50.2294 218.074 48.2695 218.177 46.7387C218.228 45.9763 218.293 45.3001 218.375 44.7793C218.416 44.5212 218.465 44.2758 218.527 44.067C218.557 43.9628 218.597 43.847 218.65 43.7344C218.697 43.635 218.788 43.4659 218.95 43.3168C219.158 43.1246 219.399 43.0538 219.493 43.0277C219.622 42.9918 219.757 42.9694 219.88 42.954C220.129 42.9227 220.437 42.907 220.775 42.9002C221.458 42.8865 222.37 42.9079 223.421 42.9486C224.819 43.0027 226.502 43.093 228.274 43.1881C229.169 43.2361 230.086 43.2853 231.001 43.3317C233.744 43.4708 236.473 43.5853 238.587 43.5739C239.648 43.5681 240.523 43.5307 241.156 43.4549C241.474 43.4167 241.699 43.3725 241.841 43.3301C241.847 43.3284 241.852 43.3267 241.858 43.3251C241.899 43.2452 241.955 43.1164 242.016 42.9227C242.109 42.626 242.194 42.2426 242.265 41.7841C242.406 40.8682 242.48 39.7271 242.479 38.5336C242.479 37.3422 242.406 36.1238 242.262 35.0559C242.12 34.0052 241.919 33.1733 241.692 32.6573C241.681 32.6494 241.665 32.6389 241.642 32.6261C241.534 32.5648 241.349 32.4899 241.062 32.4168C240.489 32.2707 239.678 32.172 238.665 32.1181C236.65 32.0109 234.041 32.0895 231.396 32.2055C230.678 32.2371 229.956 32.2714 229.244 32.3053C227.363 32.3948 225.556 32.4808 224.076 32.502C223.059 32.5166 222.153 32.5017 221.461 32.4293C221.12 32.3935 220.785 32.3395 220.5 32.2498C220.281 32.1809 219.806 32.009 219.554 31.5443C219.351 31.1716 219.263 30.6517 219.208 30.2013C219.148 29.7006 219.113 29.0929 219.093 28.4299C219.055 27.101 219.081 25.4772 219.131 23.8938C219.182 22.3072 219.258 20.7458 219.321 19.5377C219.342 19.1341 219.361 18.7767 219.377 18.473C219.411 17.842 219.432 17.4424 219.432 17.3406C219.432 16.9004 219.687 16.6183 219.848 16.4894C220.002 16.3649 220.164 16.2988 220.265 16.2633C220.476 16.1889 220.72 16.1463 220.946 16.1173C221.415 16.0569 222.059 16.0252 222.808 16.0106C224.318 15.9812 226.397 16.0192 228.69 16.0784C229.696 16.1043 230.744 16.1344 231.807 16.1648C235.374 16.267 239.108 16.3741 241.98 16.348C242.02 16.2457 242.06 16.1242 242.1 15.9812C242.208 15.592 242.293 15.1056 242.353 14.5387C242.474 13.4051 242.488 12.0335 242.43 10.6429C242.373 9.25653 242.246 7.87724 242.092 6.73706C241.989 5.96483 241.878 5.34023 241.778 4.90518C230.898 2.81383 215.094 4.03416 207.305 4.98259ZM241.714 32.6743C241.714 32.6743 241.714 32.6739 241.713 32.673C241.714 32.6739 241.714 32.6744 241.714 32.6743ZM241.946 43.2919C241.946 43.2918 241.943 43.2931 241.938 43.296C241.944 43.2934 241.946 43.292 241.946 43.2919ZM241.939 69.6355C241.939 69.6354 241.936 69.6368 241.932 69.6396C241.937 69.637 241.939 69.6355 241.939 69.6355Z" stroke="black" stroke-width="2"/>
<path d="M92.6487 34.9817C92.6487 44.3896 90.2766 52.5491 86.5043 58.3248C82.7334 64.0984 77.6334 67.4067 72.1308 67.4132C66.3439 67.2198 61.1204 63.4753 57.2985 57.2837C53.478 51.0946 51.1411 42.5702 51.1411 33.1585C51.1411 14.3072 61.8391 2.95253 72.1146 2.95288C73.9388 2.95294 76.1365 3.71973 78.4485 5.25628C80.7485 6.78486 83.0977 9.0343 85.209 11.888C89.431 17.5945 92.6487 25.6457 92.6487 34.9817Z" stroke="black" stroke-width="2"/>
<path d="M81.7777 36.1609C81.7777 40.5745 80.6777 44.5224 78.952 47.3342C77.2161 50.1626 74.9511 51.7021 72.6259 51.7021C70.3007 51.7021 68.0357 50.1626 66.2998 47.3342C64.5741 44.5224 63.4741 40.5745 63.4741 36.1609C63.4741 31.6781 64.1766 27.0846 65.5317 23.6499C66.922 20.1264 68.8022 18.2566 70.9339 18.2566C72.0439 18.2566 73.2752 18.7432 74.5393 19.7177C75.7981 20.6881 77.0288 22.0979 78.1124 23.8163C80.2834 27.2591 81.7777 31.8025 81.7777 36.1609Z" stroke="black" stroke-width="2"/>
<path d="M277.421 69.5075C274.459 60.7651 265.891 4.56206 270.312 4.1283C274.732 3.69455 275.027 3.09403 280.384 4.1283C282.819 4.59854 283.889 47.5121 285.238 47.5121C286.587 47.5121 289.826 4.49579 292.542 4.1283C295.747 3.69452 296.38 3.15568 300.952 4.1283C303.502 4.67066 309.041 49.117 309.397 49.117C309.754 49.117 310.756 5.0529 313.33 4.71691C317.84 4.1283 319.456 4.1283 322.744 4.1283C325.404 4.1283 317.217 69.5075 315.042 69.5075C309.397 69.5075 308.68 70.5108 303.489 69.5075C301.857 69.1919 296.38 30.7361 296.38 30.7361C296.38 30.7361 292.134 69.5075 288.974 69.5075C285.815 69.5075 278.066 71.4082 277.421 69.5075Z" stroke="black" stroke-width="2"/>
<path d="M342.312 6.06391C341.189 7.0674 325.721 68.2837 327.717 69.2872C329.713 70.2907 336.948 70.1065 338.569 69.2872C340.191 68.4679 343.523 42.3427 344.183 41.8782C344.843 41.4138 355.778 40.8749 356.158 41.8782C356.538 42.8816 360.15 69.2872 361.397 69.2872C362.645 69.2872 370.628 70.7925 372.624 69.2872C374.62 67.7819 359.152 7.06743 358.029 6.06391C356.907 5.06039 343.434 5.06041 342.312 6.06391Z" stroke="black" stroke-width="2"/>
<path d="M377.112 5.31094C377.112 5.31094 374.957 68.3601 378.146 68.8945C381.334 69.4288 388.48 68.8945 388.48 68.8945L387.889 27.2178L404.94 68.3601C404.94 68.3601 413.215 69.4421 415.91 68.3601C418.604 67.2782 415.91 5.31094 415.91 5.31094C415.91 5.31094 406.801 3.15573 406.21 4.77253C405.62 6.38933 406.749 48.4183 406.749 48.4183C406.749 48.4183 390.583 6.92764 388.48 5.31094C386.376 3.69423 377.112 5.31094 377.112 5.31094Z" stroke="black" stroke-width="2"/>
<path d="M467.388 61.3473C467.056 62.9522 462.702 66.1581 459.935 67.763C457.167 69.3679 440.963 72.1767 434.482 66.9643C426.44 60.4972 424.964 51.3256 424.575 42.103C423.909 26.3269 430.704 13.9026 440.963 8.01893C452.819 1.22004 464.056 9.22211 465.726 10.4247C467.395 11.6272 466.314 19.7113 464.972 20.9137C463.63 22.116 456.374 13.7763 447.521 17.3602C439.473 20.6179 435.28 28.4215 435.44 36.8212C435.774 54.462 442.003 62.4286 455.663 58.0192C459.228 56.8685 459.009 52.5281 459.009 48.5183C458.674 46.9109 459.935 45.307 449.654 46.9109V38.0903C449.654 35.6873 467.055 36.4892 467.388 38.0903C467.721 39.6914 467.72 59.7423 467.388 61.3473Z" stroke="black" stroke-width="2"/>
</svg>
