<svg width="361" height="159" viewBox="0 0 361 159" fill="none" xmlns="http://www.w3.org/2000/svg">
<rect x="205.547" y="11" width="50.1815" height="50.664" transform="rotate(2.8809 205.547 11)" fill="#C0E1FF"/>
<rect x="296" y="53.5967" width="50.1815" height="50.664" transform="rotate(-19.3135 296 53.5967)" fill="#C0E1FF"/>
<rect x="236.939" y="101" width="50.1815" height="50.664" transform="rotate(9.01534 236.939 101)" fill="#C0E1FF"/>
<path d="M20.3763 25.1568C17.1511 25.3691 22.7938 40.2429 26.0182 47.6533L27.9801 52.5811C69.7123 54.6525 151.091 57.6294 154.615 51.7021C158.139 45.7748 154.812 31.6258 152.708 25.2923L113.398 22.702C110.543 23.7528 101.548 25.3372 88.4102 23.2679C71.9878 20.6813 24.4079 24.8915 20.3763 25.1568Z" fill="#D0DAFF"/>
<path d="M19.3405 42.7041C16.116 35.2937 10.4734 20.4199 13.6986 20.2076C17.7301 19.9423 65.3101 15.7321 81.7324 18.3187C94.8703 20.388 103.865 18.8036 106.72 17.7528L146.031 20.3431C148.135 26.6766 151.461 40.8255 147.937 46.7529C144.413 52.6802 60.0681 50.0192 18.3359 47.9478" stroke="black" stroke-width="2"/>
<path d="M60.0112 31.9688C59.9799 31.8594 59.9174 31.7852 59.8237 31.7461C59.7378 31.707 59.6401 31.6875 59.5307 31.6875C59.4292 31.6797 59.3276 31.6836 59.226 31.6992C59.1245 31.7148 59.0463 31.7227 58.9917 31.7227C58.8588 31.7148 58.6284 31.6992 58.3003 31.6758C57.9721 31.6523 57.6167 31.6289 57.2338 31.6055C56.8588 31.5742 56.5073 31.5469 56.1792 31.5234C55.851 31.4922 55.6206 31.4727 55.4878 31.4648C55.4878 31.4492 55.4838 31.4102 55.476 31.3477C55.4682 31.2852 55.4643 31.2422 55.4643 31.2188C55.4643 31.1094 55.4721 31.0117 55.4878 30.9258C55.5112 30.8398 55.5893 30.7734 55.7221 30.7266C56.4565 30.7422 57.1792 30.7383 57.8901 30.7148C58.6088 30.6914 59.3237 30.6602 60.0346 30.6211C60.7534 30.5742 61.4682 30.5312 62.1792 30.4922C62.8979 30.4531 63.6206 30.4336 64.3471 30.4336C64.3471 30.7305 64.2768 30.9492 64.1362 31.0898C63.9956 31.2227 63.8198 31.3125 63.6088 31.3594C63.4057 31.4062 63.1792 31.4258 62.9292 31.418C62.6792 31.4102 62.437 31.4141 62.2026 31.4297C61.976 31.4453 61.7729 31.4922 61.5932 31.5703C61.4213 31.6406 61.3081 31.7734 61.2534 31.9688C61.2456 32.0156 61.2378 32.1055 61.2299 32.2383C61.2221 32.3711 61.2143 32.5117 61.2065 32.6602C61.2065 32.8086 61.2026 32.9492 61.1948 33.082C61.1948 33.207 61.1948 33.2969 61.1948 33.3516C61.1948 33.7969 61.2495 34.2383 61.3588 34.6758C61.476 35.1055 61.601 35.5352 61.7338 35.9648C61.8745 36.3867 61.9995 36.8125 62.1088 37.2422C62.226 37.6641 62.2846 38.0938 62.2846 38.5312C62.2846 38.8594 62.0971 39.0234 61.7221 39.0234C61.4956 39.0234 61.2924 38.8672 61.1128 38.5547C60.9409 38.2422 60.7885 37.8438 60.6557 37.3594C60.5307 36.875 60.4253 36.3477 60.3393 35.7773C60.2612 35.207 60.1948 34.6602 60.1401 34.1367C60.0932 33.6133 60.0581 33.1523 60.0346 32.7539C60.019 32.3555 60.0112 32.0938 60.0112 31.9688ZM65.0034 36.6211C65.0034 36.1367 65.1167 35.6875 65.3432 35.2734C65.5698 34.8516 65.8667 34.4922 66.2338 34.1953C66.6088 33.8906 67.0268 33.6523 67.4878 33.4805C67.9565 33.3086 68.4292 33.2227 68.9057 33.2227C69.1713 33.2227 69.4057 33.3086 69.6088 33.4805C69.8198 33.6523 69.9956 33.8633 70.1362 34.1133C70.2768 34.3555 70.3823 34.6133 70.4526 34.8867C70.5307 35.1602 70.5698 35.3984 70.5698 35.6016C70.5698 36.0391 70.4643 36.4648 70.2534 36.8789C70.0424 37.2852 69.769 37.6484 69.4331 37.9688C69.0971 38.2812 68.7182 38.5352 68.2963 38.7305C67.8745 38.9258 67.4526 39.0234 67.0307 39.0234C66.6557 39.0234 66.3393 38.9609 66.0815 38.8359C65.8237 38.7031 65.6167 38.5312 65.4604 38.3203C65.3042 38.1016 65.187 37.8477 65.1088 37.5586C65.0385 37.2617 65.0034 36.9492 65.0034 36.6211ZM65.9995 36.7383C65.9995 36.9414 66.0151 37.1211 66.0463 37.2773C66.0854 37.4258 66.1479 37.5547 66.2338 37.6641C66.3276 37.7734 66.4487 37.8594 66.5971 37.9219C66.7456 37.9766 66.9292 38.0039 67.1479 38.0039C67.437 38.0039 67.726 37.9258 68.0151 37.7695C68.3042 37.6055 68.562 37.4023 68.7885 37.1602C69.0229 36.9102 69.2104 36.6367 69.351 36.3398C69.4917 36.043 69.562 35.7539 69.562 35.4727C69.562 35.3477 69.5503 35.2109 69.5268 35.0625C69.5034 34.9141 69.4643 34.7773 69.4096 34.6523C69.3549 34.5273 69.2768 34.4219 69.1753 34.3359C69.0737 34.25 68.9448 34.207 68.7885 34.207C68.6479 34.207 68.4799 34.2539 68.2846 34.3477C68.0971 34.4414 67.8979 34.5625 67.687 34.7109C67.4838 34.8594 67.2807 35.0273 67.0776 35.2148C66.8823 35.4023 66.7026 35.5898 66.5385 35.7773C66.3745 35.9648 66.2417 36.1445 66.1401 36.3164C66.0463 36.4883 65.9995 36.6289 65.9995 36.7383ZM76.1713 37.6172C76.1713 37.1641 76.2846 36.7617 76.5112 36.4102C76.7378 36.0586 77.019 35.7539 77.3549 35.4961C77.6909 35.2305 78.0542 35.0078 78.4448 34.8281C78.8354 34.6406 79.1987 34.4883 79.5346 34.3711C79.8706 34.2461 80.1518 34.1484 80.3784 34.0781C80.6049 34 80.7182 33.9375 80.7182 33.8906C80.7182 33.6172 80.7026 33.3516 80.6713 33.0938C80.6479 32.8281 80.6206 32.5625 80.5893 32.2969C80.5581 32.0312 80.5268 31.7695 80.4956 31.5117C80.4721 31.2461 80.4604 30.9844 80.4604 30.7266V29.9648C80.7807 29.8477 81.0073 29.8594 81.1401 30C81.2807 30.1406 81.3042 30.3828 81.2104 30.7266C81.2417 30.8984 81.2846 31.168 81.3393 31.5352C81.394 31.9023 81.4526 32.3164 81.5151 32.7773C81.5854 33.2383 81.6557 33.7227 81.726 34.2305C81.8042 34.7383 81.8745 35.2266 81.937 35.6953C82.0073 36.1562 82.0659 36.5703 82.1128 36.9375C82.1596 37.2969 82.1948 37.5664 82.2182 37.7461C82.226 37.7852 82.2338 37.8633 82.2417 37.9805C82.2495 38.0898 82.2534 38.2109 82.2534 38.3438C82.2612 38.4688 82.2651 38.5859 82.2651 38.6953C82.2729 38.8047 82.2768 38.8828 82.2768 38.9297C81.9799 38.9297 81.7768 38.918 81.6674 38.8945C81.5659 38.8711 81.4995 38.8242 81.4682 38.7539C81.4448 38.6836 81.4331 38.582 81.4331 38.4492C81.4331 38.3164 81.394 38.1328 81.3159 37.8984C81.0268 38.125 80.7534 38.3125 80.4956 38.4609C80.2378 38.6094 79.9799 38.7305 79.7221 38.8242C79.4643 38.9102 79.2026 38.9688 78.937 39C78.6792 39.0391 78.4018 39.0586 78.1049 39.0586C77.8549 39.0586 77.6128 39.0391 77.3784 39C77.1518 38.9531 76.9487 38.875 76.769 38.7656C76.5893 38.6562 76.4448 38.5078 76.3354 38.3203C76.226 38.1328 76.1713 37.8984 76.1713 37.6172ZM77.1909 37.3711C77.1909 37.4961 77.2182 37.5977 77.2729 37.6758C77.3276 37.7539 77.3979 37.8203 77.4838 37.875C77.5698 37.9297 77.6596 37.9688 77.7534 37.9922C77.8549 38.0078 77.9526 38.0156 78.0463 38.0156C78.3198 38.0156 78.6128 37.9648 78.9253 37.8633C79.2456 37.7539 79.5385 37.6055 79.8042 37.418C80.0776 37.2227 80.3003 36.9922 80.4721 36.7266C80.6518 36.4609 80.7417 36.1719 80.7417 35.8594C80.7417 35.6172 80.6987 35.4492 80.6128 35.3555C80.5268 35.2617 80.3628 35.2148 80.1206 35.2148C79.8706 35.2148 79.5776 35.2734 79.2417 35.3906C78.9135 35.5078 78.5932 35.6641 78.2807 35.8594C77.976 36.0547 77.7182 36.2852 77.5073 36.5508C77.2963 36.8086 77.1909 37.082 77.1909 37.3711ZM82.9682 36.6211C82.9682 36.1367 83.0815 35.6875 83.3081 35.2734C83.5346 34.8516 83.8315 34.4922 84.1987 34.1953C84.5737 33.8906 84.9917 33.6523 85.4526 33.4805C85.9213 33.3086 86.394 33.2227 86.8706 33.2227C87.1362 33.2227 87.3706 33.3086 87.5737 33.4805C87.7846 33.6523 87.9604 33.8633 88.101 34.1133C88.2417 34.3555 88.3471 34.6133 88.4174 34.8867C88.4956 35.1602 88.5346 35.3984 88.5346 35.6016C88.5346 36.0391 88.4292 36.4648 88.2182 36.8789C88.0073 37.2852 87.7338 37.6484 87.3979 37.9688C87.062 38.2812 86.6831 38.5352 86.2612 38.7305C85.8393 38.9258 85.4174 39.0234 84.9956 39.0234C84.6206 39.0234 84.3042 38.9609 84.0463 38.8359C83.7885 38.7031 83.5815 38.5312 83.4253 38.3203C83.269 38.1016 83.1518 37.8477 83.0737 37.5586C83.0034 37.2617 82.9682 36.9492 82.9682 36.6211ZM83.9643 36.7383C83.9643 36.9414 83.9799 37.1211 84.0112 37.2773C84.0503 37.4258 84.1128 37.5547 84.1987 37.6641C84.2924 37.7734 84.4135 37.8594 84.562 37.9219C84.7104 37.9766 84.894 38.0039 85.1128 38.0039C85.4018 38.0039 85.6909 37.9258 85.9799 37.7695C86.269 37.6055 86.5268 37.4023 86.7534 37.1602C86.9878 36.9102 87.1753 36.6367 87.3159 36.3398C87.4565 36.043 87.5268 35.7539 87.5268 35.4727C87.5268 35.3477 87.5151 35.2109 87.4917 35.0625C87.4682 34.9141 87.4292 34.7773 87.3745 34.6523C87.3198 34.5273 87.2417 34.4219 87.1401 34.3359C87.0385 34.25 86.9096 34.207 86.7534 34.207C86.6128 34.207 86.4448 34.2539 86.2495 34.3477C86.062 34.4414 85.8628 34.5625 85.6518 34.7109C85.4487 34.8594 85.2456 35.0273 85.0424 35.2148C84.8471 35.4023 84.6674 35.5898 84.5034 35.7773C84.3393 35.9648 84.2065 36.1445 84.1049 36.3164C84.0112 36.4883 83.9643 36.6289 83.9643 36.7383ZM94.6753 32.3672C94.6753 32.1406 94.6596 31.9219 94.6284 31.7109C94.5971 31.4922 94.5893 31.3008 94.6049 31.1367C94.6206 30.9648 94.6792 30.8281 94.7807 30.7266C94.8901 30.625 95.0854 30.5742 95.3667 30.5742C95.4526 30.7539 95.5346 31.0273 95.6128 31.3945C95.6987 31.7617 95.7807 32.1836 95.8588 32.6602C95.937 33.1367 96.0112 33.6562 96.0815 34.2188C96.1518 34.7734 96.2143 35.332 96.269 35.8945C96.3315 36.457 96.3823 37.0117 96.4213 37.5586C96.4682 38.0977 96.5034 38.5898 96.5268 39.0352C96.269 39.207 96.062 39.2188 95.9057 39.0703C95.7495 38.9219 95.6206 38.6719 95.519 38.3203C95.4174 37.9609 95.3393 37.5273 95.2846 37.0195C95.2299 36.5039 95.1753 35.9727 95.1206 35.4258C95.0737 34.8711 95.0151 34.3281 94.9448 33.7969C94.8745 33.2578 94.7846 32.7812 94.6753 32.3672ZM97.6284 34.6055C97.6284 34.5586 97.6284 34.4844 97.6284 34.3828C97.6362 34.2734 97.6401 34.1602 97.6401 34.043C97.6479 33.9258 97.6518 33.8125 97.6518 33.7031C97.6596 33.5938 97.6635 33.5156 97.6635 33.4688C97.7495 33.3438 97.8588 33.2422 97.9917 33.1641C98.1323 33.0859 98.2729 33.0234 98.4135 32.9766C98.437 33.3984 98.5034 33.8477 98.6128 34.3242C98.7221 34.8008 98.8393 35.2812 98.9643 35.7656C99.0893 36.2422 99.1987 36.7148 99.2924 37.1836C99.394 37.6523 99.4448 38.0898 99.4448 38.4961C99.4448 38.8477 99.2651 39.0234 98.9057 39.0234C98.687 39.0234 98.5034 38.9336 98.3549 38.7539C98.2065 38.5742 98.0854 38.3477 97.9917 38.0742C97.9057 37.793 97.8354 37.4844 97.7807 37.1484C97.726 36.8047 97.687 36.4688 97.6635 36.1406C97.6479 35.8125 97.6362 35.5117 97.6284 35.2383C97.6284 34.9648 97.6284 34.7539 97.6284 34.6055ZM97.7924 30.2109C97.9409 30.2734 98.0659 30.375 98.1674 30.5156C98.269 30.6562 98.312 30.7852 98.2963 30.9023C98.2885 31.0117 98.2026 31.0898 98.0385 31.1367C97.8745 31.1758 97.601 31.1289 97.2182 30.9961C97.2182 30.7852 97.2573 30.6016 97.3354 30.4453C97.4213 30.2891 97.5737 30.2109 97.7924 30.2109ZM102.152 38.4727C102.277 38.3867 102.425 38.2773 102.597 38.1445C102.777 38.0039 102.957 37.8555 103.136 37.6992C103.316 37.543 103.484 37.3789 103.64 37.207C103.796 37.0352 103.917 36.8711 104.003 36.7148C104.097 36.5508 104.144 36.3984 104.144 36.2578C104.144 36.1172 104.074 36 103.933 35.9062C103.683 35.9062 103.41 35.918 103.113 35.9414C102.816 35.957 102.519 35.9648 102.222 35.9648C101.925 35.957 101.636 35.9297 101.355 35.8828C101.082 35.8359 100.835 35.75 100.617 35.625C100.398 35.5 100.222 35.3242 100.089 35.0977C99.9643 34.8633 99.9018 34.5664 99.9018 34.207C99.9018 33.7852 99.9799 33.4062 100.136 33.0703C100.3 32.7266 100.515 32.4258 100.781 32.168C101.046 31.9023 101.343 31.6719 101.671 31.4766C102.007 31.2734 102.343 31.1016 102.679 30.9609C102.882 31.0156 103.07 31.1133 103.242 31.2539C103.414 31.3945 103.562 31.5508 103.687 31.7227C103.632 31.8945 103.523 32.0273 103.359 32.1211C103.203 32.2148 103.019 32.2969 102.808 32.3672C102.605 32.4375 102.39 32.5117 102.164 32.5898C101.937 32.668 101.73 32.7734 101.542 32.9062C101.363 33.0312 101.21 33.1992 101.085 33.4102C100.96 33.6133 100.898 33.8828 100.898 34.2188C100.898 34.4688 100.96 34.6523 101.085 34.7695C101.21 34.8867 101.374 34.9688 101.578 35.0156C101.781 35.0547 102.011 35.0703 102.269 35.0625C102.527 35.0469 102.789 35.0273 103.054 35.0039C103.328 34.9805 103.593 34.9688 103.851 34.9688C104.109 34.9609 104.339 34.9922 104.542 35.0625C104.746 35.125 104.906 35.2305 105.023 35.3789C105.148 35.5273 105.21 35.7461 105.21 36.0352C105.21 36.1602 105.167 36.3203 105.082 36.5156C105.003 36.7109 104.894 36.9219 104.753 37.1484C104.621 37.3672 104.46 37.5859 104.273 37.8047C104.093 38.0234 103.902 38.2227 103.699 38.4023C103.503 38.5742 103.304 38.7188 103.101 38.8359C102.906 38.9453 102.722 39 102.55 39C102.386 39 102.277 38.9414 102.222 38.8242C102.175 38.707 102.152 38.5898 102.152 38.4727ZM105.421 33.0938C105.421 33.0703 105.425 33.0508 105.433 33.0352C105.433 33.0195 105.437 33 105.445 32.9766C105.476 32.9375 105.523 32.8867 105.585 32.8242C105.648 32.7617 105.687 32.7305 105.703 32.7305H108.058C108.058 32.6445 108.046 32.5078 108.023 32.3203C107.999 32.1328 107.976 31.9258 107.953 31.6992C107.937 31.4727 107.933 31.2383 107.941 30.9961C107.949 30.7461 107.98 30.5234 108.035 30.3281C108.097 30.125 108.191 29.9609 108.316 29.8359C108.449 29.7031 108.632 29.6367 108.867 29.6367C108.867 30.4258 108.921 31.0586 109.031 31.5352C109.14 32.0117 109.285 32.3789 109.464 32.6367C109.652 32.8945 109.863 33.0625 110.097 33.1406C110.332 33.2188 110.57 33.2539 110.812 33.2461C111.062 33.2305 111.304 33.1914 111.539 33.1289C111.773 33.0664 111.98 33.0234 112.16 33C112.347 32.9766 112.496 32.9961 112.605 33.0586C112.714 33.1133 112.769 33.25 112.769 33.4688C112.769 33.6328 112.73 33.75 112.652 33.8203C112.582 33.8906 112.441 33.9453 112.23 33.9844C112.167 33.9922 112.062 34.0078 111.914 34.0312C111.773 34.0469 111.613 34.0625 111.433 34.0781C111.253 34.0938 111.062 34.1133 110.859 34.1367C110.656 34.1523 110.464 34.168 110.285 34.1836C110.105 34.1992 109.941 34.2109 109.792 34.2188C109.644 34.2188 109.535 34.2188 109.464 34.2188C109.464 34.2578 109.46 34.3242 109.453 34.418C109.445 34.5117 109.441 34.5742 109.441 34.6055C109.441 34.9492 109.496 35.2852 109.605 35.6133C109.714 35.9336 109.832 36.2539 109.957 36.5742C110.089 36.8945 110.21 37.2148 110.32 37.5352C110.429 37.8555 110.484 38.1875 110.484 38.5312C110.484 38.5938 110.476 38.6602 110.46 38.7305C110.453 38.793 110.429 38.8516 110.39 38.9062C110.359 38.9531 110.308 38.9883 110.238 39.0117C110.175 39.043 110.085 39.0391 109.968 39C109.671 38.9219 109.449 38.7539 109.3 38.4961C109.16 38.2383 109.054 37.9336 108.984 37.582C108.914 37.2227 108.867 36.8438 108.843 36.4453C108.82 36.0469 108.781 35.6758 108.726 35.332C108.679 34.9805 108.601 34.6836 108.492 34.4414C108.382 34.1914 108.207 34.0391 107.964 33.9844L105.703 33.4688C105.671 33.4688 105.624 33.4375 105.562 33.375C105.499 33.3047 105.46 33.2539 105.445 33.2227C105.437 33.207 105.433 33.1875 105.433 33.1641C105.425 33.1484 105.421 33.125 105.421 33.0938Z" fill="black"/>
<path d="M219.934 29.7994C219.95 29.4716 220.037 29.1317 220.195 28.7795C220.36 28.4276 220.571 28.1132 220.827 27.8361C221.083 27.5512 221.372 27.3187 221.693 27.1386C222.022 26.9589 222.363 26.8775 222.714 26.8944C222.893 26.903 223.071 26.9429 223.248 27.0139C223.424 27.085 223.58 27.1824 223.715 27.3062C223.857 27.4304 223.968 27.5765 224.046 27.7445C224.131 27.9129 224.169 28.0985 224.16 28.3014C224.019 28.2947 223.891 28.2729 223.776 28.236C223.668 28.1996 223.56 28.1592 223.453 28.1149C223.346 28.0628 223.239 28.0186 223.131 27.9821C223.031 27.946 222.918 27.925 222.794 27.9189C222.474 27.9036 222.208 27.9729 221.998 28.127C221.795 28.2737 221.629 28.4652 221.501 28.7015C221.372 28.9378 221.277 29.1952 221.217 29.4739C221.165 29.7452 221.133 30.0017 221.121 30.2436C221.12 30.2827 221.116 30.3568 221.111 30.466C221.113 30.5757 221.112 30.6929 221.106 30.8178C221.108 30.9352 221.106 31.0485 221.101 31.1578C221.103 31.2674 221.108 31.3419 221.114 31.3813C221.19 31.5727 221.265 31.721 221.339 31.8262C221.42 31.9318 221.506 32.0141 221.597 32.0733C221.688 32.1246 221.788 32.1607 221.896 32.1815C222.005 32.1946 222.134 32.2047 222.282 32.2118C222.485 32.2216 222.662 32.1988 222.813 32.1435C222.972 32.0886 223.12 32.0214 223.257 31.942C223.394 31.8625 223.523 31.7749 223.645 31.679C223.768 31.5754 223.893 31.4837 224.022 31.4039C224.159 31.3166 224.303 31.2492 224.454 31.2017C224.613 31.1468 224.79 31.124 224.985 31.1334C224.967 31.5158 224.881 31.8519 224.726 32.1417C224.579 32.4318 224.375 32.6762 224.116 32.8749C223.864 33.074 223.567 33.2239 223.226 33.3249C222.893 33.4183 222.531 33.4557 222.141 33.4369C221.774 33.4193 221.449 33.2785 221.164 33.0145C220.887 32.7509 220.652 32.4346 220.459 32.0655C220.274 31.689 220.136 31.2952 220.046 30.8841C219.957 30.4731 219.919 30.1115 219.934 29.7994ZM230.63 32.3318C230.323 32.5204 230.057 32.6914 229.831 32.8448C229.613 32.9907 229.399 33.1134 229.191 33.2129C228.983 33.3124 228.761 33.3838 228.524 33.4272C228.295 33.4709 228.013 33.4847 227.677 33.4686C226.951 33.4337 226.422 33.2166 226.089 32.8173C225.757 32.4103 225.609 31.8244 225.646 31.0596C225.66 30.7631 225.714 30.4567 225.808 30.1405C225.901 29.8243 226.029 29.5137 226.193 29.2087C226.364 28.8963 226.562 28.6047 226.786 28.3339C227.011 28.0553 227.261 27.8131 227.537 27.6074C227.813 27.4017 228.102 27.2435 228.404 27.1329C228.715 27.0149 229.038 26.9639 229.374 26.9801C229.933 27.0617 230.367 27.2234 230.676 27.4651C230.986 27.699 231.214 27.9954 231.361 28.3545C231.508 28.7057 231.603 29.0974 231.644 29.5296C231.687 29.954 231.712 30.3933 231.722 30.8474C231.739 31.3018 231.764 31.7567 231.797 32.2119C231.83 32.6672 231.923 33.0901 232.076 33.4807C231.962 33.7333 231.856 33.9081 231.758 34.0051C231.667 34.1102 231.568 34.125 231.462 34.0495C231.356 33.974 231.236 33.7962 231.101 33.5159C230.973 33.236 230.816 32.8413 230.63 32.3318ZM226.64 31.1309C226.618 31.5757 226.685 31.9074 226.838 32.1259C227 32.3371 227.296 32.453 227.725 32.4736C228.045 32.489 228.352 32.449 228.646 32.3537C228.948 32.2509 229.213 32.1072 229.441 31.9226C229.669 31.7302 229.856 31.4968 230.003 31.2222C230.149 30.9477 230.23 30.6387 230.247 30.2954C230.253 30.1549 230.267 29.96 230.286 29.7107C230.307 29.4535 230.303 29.1992 230.276 28.9476C230.249 28.696 230.185 28.4778 230.085 28.2931C229.985 28.1006 229.825 27.999 229.607 27.9885C229.201 27.969 228.821 28.0564 228.468 28.2505C228.115 28.4369 227.806 28.6841 227.541 28.992C227.275 29.2999 227.063 29.6456 226.904 30.029C226.745 30.4046 226.657 30.7719 226.64 31.1309ZM233.392 27.3376C233.403 27.1113 233.398 26.8921 233.377 26.6799C233.356 26.4599 233.358 26.2683 233.381 26.1052C233.405 25.9343 233.47 25.8005 233.577 25.704C233.691 25.6078 233.888 25.5664 234.169 25.5799C234.246 25.7636 234.315 26.0406 234.376 26.4111C234.444 26.782 234.505 27.2074 234.561 27.6871C234.616 28.1669 234.665 28.6894 234.708 29.2546C234.752 29.812 234.787 30.373 234.815 30.9375C234.85 31.5023 234.874 32.0588 234.887 32.6069C234.908 33.1476 234.919 33.6409 234.921 34.0869C234.656 34.2461 234.448 34.2479 234.299 34.0921C234.15 33.9364 234.034 33.6805 233.949 33.3244C233.865 32.9606 233.808 32.5237 233.778 32.0139C233.748 31.4962 233.719 30.963 233.69 30.4141C233.67 29.8578 233.638 29.3126 233.593 28.7786C233.549 28.2368 233.482 27.7565 233.392 27.3376ZM236.131 27.4694C236.142 27.2431 236.137 27.0238 236.116 26.8116C236.095 26.5916 236.097 26.4001 236.12 26.2369C236.144 26.066 236.209 25.9323 236.316 25.8357C236.43 25.7395 236.627 25.6982 236.908 25.7117C236.985 25.8953 237.054 26.1724 237.115 26.5429C237.183 26.9138 237.244 27.3391 237.3 27.8189C237.355 28.2986 237.404 28.8211 237.447 29.3864C237.491 29.9438 237.526 30.5047 237.554 31.0692C237.589 31.6341 237.613 32.1906 237.626 32.7387C237.647 33.2794 237.658 33.7727 237.66 34.2186C237.395 34.3779 237.187 34.3796 237.038 34.2239C236.889 34.0681 236.773 33.8122 236.688 33.4562C236.604 33.0923 236.547 32.6555 236.517 32.1456C236.487 31.628 236.458 31.0947 236.429 30.5458C236.409 29.9895 236.377 29.4444 236.332 28.9104C236.288 28.3685 236.221 27.8882 236.131 27.4694ZM214.278 42.1474C214.287 41.9523 214.326 41.8016 214.394 41.6954C214.469 41.5895 214.616 41.5418 214.835 41.5523C214.858 41.5534 214.901 41.5594 214.963 41.5702C215.033 41.5736 215.076 41.5757 215.091 41.5764C215.134 41.8209 215.176 42.0889 215.217 42.3802C215.266 42.6642 215.322 42.9524 215.387 43.2449C215.451 43.5373 215.523 43.8263 215.603 44.1117C215.691 44.3975 215.8 44.657 215.929 44.89C216.077 44.7485 216.187 44.5778 216.259 44.3779C216.331 44.178 216.388 43.9774 216.429 43.776C216.47 43.5668 216.507 43.3691 216.539 43.183C216.58 42.9894 216.646 42.8283 216.739 42.6998C216.831 42.5635 216.961 42.468 217.128 42.4135C217.302 42.3593 217.537 42.3706 217.83 42.4473C218.158 42.463 218.416 42.538 218.605 42.6723C218.795 42.7987 218.955 42.9589 219.087 43.153C219.226 43.3396 219.357 43.5414 219.48 43.7585C219.611 43.9682 219.777 44.16 219.98 44.334C220.032 44.2348 220.096 44.1128 220.174 43.9679C220.252 43.8152 220.345 43.6593 220.454 43.5003C220.572 43.3339 220.693 43.1716 220.818 43.0133C220.951 42.8477 221.087 42.7017 221.226 42.5754C221.366 42.4413 221.508 42.3348 221.652 42.2557C221.797 42.1688 221.936 42.1285 222.069 42.1349C222.389 42.1503 222.661 42.2651 222.885 42.4792C223.11 42.6856 223.297 42.9449 223.446 43.2571C223.604 43.5619 223.728 43.9042 223.819 44.284C223.911 44.656 223.979 45.0152 224.025 45.3616C224.071 45.7079 224.099 46.026 224.109 46.3159C224.126 46.5983 224.132 46.8019 224.126 46.9268C224.121 47.0282 224.094 47.1051 224.045 47.1575C223.995 47.2099 223.935 47.25 223.863 47.2778C223.791 47.2979 223.713 47.3097 223.626 47.3134C223.548 47.3174 223.474 47.3178 223.404 47.3144C223.388 47.3136 223.364 47.3125 223.333 47.311C223.302 47.3017 223.268 47.2922 223.229 47.2825C223.198 47.2732 223.156 47.2595 223.102 47.2412L222.509 43.7048C222.511 43.6814 222.481 43.6369 222.422 43.5715C222.363 43.4983 222.318 43.4531 222.288 43.436C222.264 43.4349 222.245 43.43 222.23 43.4215C222.214 43.4207 222.203 43.4202 222.195 43.4198C222.187 43.4116 222.18 43.4073 222.172 43.407C222.008 43.3991 221.849 43.4579 221.694 43.5834C221.547 43.7093 221.406 43.8707 221.272 44.0676C221.137 44.2645 221.009 44.4852 220.888 44.7296C220.767 44.9741 220.657 45.2191 220.559 45.4647C220.462 45.7025 220.373 45.925 220.293 46.1323C220.22 46.3322 220.162 46.4858 220.118 46.5932C220.086 46.6073 220.023 46.6199 219.928 46.631C219.834 46.6343 219.772 46.6352 219.741 46.6337C219.522 46.6232 219.358 46.541 219.248 46.3871C219.138 46.2254 219.05 46.0295 218.983 45.7995C218.924 45.5698 218.873 45.321 218.831 45.0531C218.797 44.7777 218.747 44.525 218.68 44.2949C218.62 44.0652 218.528 43.8731 218.403 43.7184C218.285 43.5563 218.109 43.4697 217.875 43.4584C217.79 43.4543 217.703 43.5362 217.617 43.7041C217.531 43.872 217.45 44.0872 217.375 44.3495C217.3 44.604 217.228 44.8821 217.159 45.1838C217.09 45.4777 217.03 45.7564 216.978 46.0198C216.934 46.2758 216.9 46.4932 216.876 46.6719C216.852 46.8507 216.84 46.94 216.84 46.94C216.823 46.9627 216.79 46.9885 216.742 47.0175C216.694 47.0386 216.642 47.0635 216.586 47.0921C216.538 47.121 216.486 47.142 216.43 47.155C216.383 47.1683 216.347 47.1745 216.324 47.1733C216.105 47.1628 215.899 47.0551 215.706 46.8503C215.513 46.6377 215.338 46.3711 215.181 46.0507C215.033 45.7229 214.898 45.3644 214.775 44.9753C214.661 44.5866 214.566 44.2065 214.49 43.8353C214.414 43.464 214.356 43.1288 214.316 42.8296C214.283 42.5309 214.27 42.3034 214.278 42.1474ZM224.69 45.1941C224.714 44.7103 224.848 44.267 225.095 43.8643C225.341 43.4538 225.655 43.1091 226.036 42.8302C226.425 42.5439 226.854 42.326 227.323 42.1764C227.799 42.0273 228.276 41.9642 228.752 41.9871C229.017 41.9998 229.247 42.0969 229.441 42.2784C229.644 42.4602 229.809 42.6793 229.938 42.9358C230.067 43.1844 230.16 43.447 230.217 43.7235C230.282 44.0004 230.309 44.2403 230.299 44.4432C230.278 44.8802 230.153 45.3004 229.922 45.7038C229.692 46.0995 229.401 46.4492 229.05 46.753C228.7 47.049 228.309 47.2844 227.878 47.4592C227.448 47.6341 227.021 47.7113 226.6 47.6911C226.225 47.673 225.912 47.5954 225.661 47.4582C225.41 47.3131 225.211 47.1315 225.065 46.9133C224.92 46.6873 224.815 46.4281 224.751 46.1356C224.695 45.8357 224.675 45.5218 224.69 45.1941ZM225.68 45.359C225.67 45.5619 225.677 45.7421 225.701 45.8997C225.733 46.0498 225.789 46.1816 225.869 46.295C225.958 46.4087 226.075 46.5004 226.22 46.5699C226.366 46.6317 226.548 46.6678 226.766 46.6783C227.055 46.6922 227.347 46.6281 227.644 46.4859C227.94 46.3359 228.207 46.1454 228.445 45.9144C228.691 45.6759 228.892 45.4118 229.047 45.122C229.201 44.8323 229.285 44.5469 229.299 44.266C229.305 44.1411 229.3 44.004 229.284 43.8546C229.267 43.7052 229.235 43.5668 229.186 43.4393C229.138 43.3118 229.065 43.2027 228.967 43.112C228.87 43.0213 228.743 42.9722 228.587 42.9647C228.447 42.9579 228.277 42.9967 228.077 43.0809C227.885 43.1656 227.681 43.2769 227.463 43.4151C227.253 43.5536 227.042 43.7116 226.83 43.8891C226.626 44.067 226.437 44.2457 226.264 44.4251C226.092 44.6045 225.95 44.7776 225.841 44.9444C225.739 45.1115 225.685 45.2497 225.68 45.359ZM230.572 42.9311C230.581 42.736 230.62 42.5853 230.687 42.4791C230.763 42.3732 230.91 42.3255 231.128 42.336C231.152 42.3371 231.194 42.3431 231.256 42.3539C231.327 42.3573 231.37 42.3594 231.385 42.3601C231.428 42.6046 231.47 42.8726 231.511 43.1639C231.56 43.4479 231.616 43.7361 231.68 44.0286C231.744 44.321 231.817 44.61 231.897 44.8954C231.985 45.1812 232.093 45.4407 232.223 45.6737C232.371 45.5322 232.48 45.3615 232.553 45.1616C232.625 44.9617 232.681 44.7611 232.722 44.5597C232.764 44.3505 232.801 44.1528 232.833 43.9667C232.874 43.7731 232.94 43.612 233.032 43.4835C233.125 43.3472 233.255 43.2517 233.421 43.1972C233.596 43.143 233.83 43.1543 234.124 43.231C234.452 43.2467 234.71 43.3217 234.899 43.456C235.088 43.5824 235.249 43.7426 235.38 43.9367C235.52 44.1233 235.651 44.3251 235.774 44.5422C235.904 44.7519 236.071 44.9437 236.274 45.1177C236.326 45.0185 236.39 44.8965 236.468 44.7516C236.545 44.5989 236.639 44.443 236.748 44.284C236.866 44.1176 236.987 43.9553 237.112 43.797C237.245 43.6314 237.381 43.4854 237.52 43.3591C237.659 43.225 237.801 43.1185 237.946 43.0394C238.091 42.9525 238.23 42.9122 238.362 42.9186C238.682 42.934 238.955 43.0488 239.179 43.2629C239.404 43.4693 239.591 43.7286 239.74 44.0408C239.897 44.3456 240.022 44.6879 240.113 45.0677C240.204 45.4397 240.273 45.7989 240.319 46.1453C240.365 46.4916 240.393 46.8097 240.402 47.0996C240.42 47.382 240.426 47.5856 240.42 47.7105C240.415 47.8119 240.388 47.8888 240.338 47.9412C240.289 47.9936 240.228 48.0337 240.156 48.0615C240.085 48.0816 240.006 48.0934 239.92 48.0971C239.842 48.1011 239.767 48.1015 239.697 48.0981C239.682 48.0973 239.658 48.0962 239.627 48.0947C239.596 48.0854 239.561 48.0759 239.523 48.0662C239.492 48.0569 239.45 48.0432 239.396 48.0249L238.803 44.4885C238.804 44.4651 238.775 44.4206 238.716 44.3552C238.657 44.282 238.612 44.2368 238.581 44.2197C238.558 44.2186 238.539 44.2137 238.523 44.2052C238.508 44.2044 238.496 44.2039 238.488 44.2035C238.481 44.1953 238.473 44.191 238.466 44.1907C238.302 44.1828 238.142 44.2416 237.988 44.3671C237.841 44.493 237.7 44.6544 237.566 44.8513C237.431 45.0482 237.303 45.2689 237.182 45.5133C237.06 45.7578 236.951 46.0028 236.853 46.2484C236.756 46.4862 236.667 46.7087 236.586 46.916C236.514 47.1159 236.456 47.2695 236.412 47.3769C236.38 47.391 236.316 47.4036 236.222 47.4147C236.128 47.418 236.065 47.4189 236.034 47.4174C235.816 47.4069 235.652 47.3247 235.542 47.1708C235.432 47.0091 235.344 46.8132 235.277 46.5832C235.217 46.3535 235.167 46.1047 235.125 45.8368C235.091 45.5614 235.041 45.3087 234.974 45.0786C234.914 44.8489 234.822 44.6568 234.696 44.5021C234.579 44.34 234.403 44.2534 234.169 44.2421C234.083 44.238 233.997 44.3199 233.911 44.4878C233.825 44.6557 233.744 44.8709 233.669 45.1332C233.594 45.3877 233.522 45.6658 233.452 45.9675C233.384 46.2614 233.323 46.5401 233.271 46.8035C233.228 47.0595 233.194 47.2769 233.17 47.4556C233.145 47.6344 233.133 47.7237 233.133 47.7237C233.117 47.7464 233.084 47.7722 233.036 47.8012C232.988 47.8223 232.936 47.8472 232.88 47.8758C232.831 47.9047 232.78 47.9257 232.724 47.9387C232.677 47.952 232.641 47.9582 232.618 47.957C232.399 47.9465 232.193 47.8388 232 47.634C231.807 47.4214 231.632 47.1548 231.475 46.8344C231.326 46.5066 231.191 46.1481 231.069 45.759C230.955 45.3703 230.86 44.9902 230.784 44.619C230.708 44.2477 230.65 43.9125 230.609 43.6133C230.577 43.3146 230.564 43.0871 230.572 42.9311ZM241.82 47.3789C241.922 47.3838 242.018 47.4197 242.108 47.4867C242.207 47.554 242.265 47.635 242.284 47.7298C242.311 47.8171 242.283 47.9135 242.2 48.019C242.117 48.1245 241.944 48.2179 241.682 48.2992C241.473 48.2578 241.323 48.1998 241.233 48.125C241.151 48.0429 241.104 47.9624 241.092 47.8836C241.088 47.7974 241.112 47.7164 241.162 47.6406C241.221 47.5574 241.287 47.4902 241.36 47.4389C241.441 47.3803 241.525 47.3452 241.611 47.3337C241.698 47.3144 241.768 47.3295 241.82 47.3789ZM241.316 39.5645C241.536 39.3795 241.702 39.3445 241.814 39.4593C241.926 39.5742 242.002 39.7851 242.042 40.0921C242.089 40.3994 242.107 40.7679 242.094 41.1975C242.082 41.6192 242.065 42.0525 242.043 42.4973C242.03 42.9425 242.017 43.3642 242.006 43.7626C242.002 44.1613 242.022 44.4791 242.066 44.7158C242.06 44.8328 242.047 44.9339 242.027 45.019C242.008 45.1041 241.977 45.173 241.935 45.2257C241.894 45.2785 241.829 45.3184 241.742 45.3455C241.655 45.3648 241.541 45.371 241.401 45.3643C241.377 45.3632 241.355 45.3503 241.332 45.3258C241.31 45.3013 241.29 45.2338 241.272 45.1234C241.254 45.0052 241.239 44.8285 241.227 44.5933C241.215 44.3503 241.208 44.0136 241.205 43.5833C241.21 43.1533 241.216 42.614 241.224 41.9652C241.24 41.3167 241.27 40.5165 241.316 39.5645Z" fill="black"/>
<path d="M316.184 61.8759C316.019 61.454 315.977 61.0381 316.06 60.6281C316.143 60.2181 316.293 59.8318 316.512 59.4692C316.728 59.0993 316.985 58.7595 317.283 58.4497C317.579 58.1326 317.861 57.8582 318.131 57.6266C318.399 57.3877 318.625 57.1941 318.81 57.046C318.993 56.8906 319.075 56.7911 319.058 56.7475C318.958 56.4929 318.847 56.2512 318.724 56.0226C318.605 55.7838 318.483 55.5465 318.357 55.3106C318.231 55.0746 318.106 54.8424 317.983 54.6137C317.864 54.3749 317.758 54.1355 317.664 53.8955L317.386 53.1863C317.641 52.9603 317.857 52.8886 318.032 52.971C318.214 53.0507 318.324 53.2676 318.362 53.6219C318.454 53.7705 318.592 54.0058 318.777 54.3277C318.962 54.6497 319.168 55.0138 319.394 55.4202C319.628 55.8237 319.87 56.2491 320.12 56.6962C320.378 57.1406 320.622 57.5695 320.851 57.9832C321.085 58.3867 321.29 58.7509 321.468 59.0757C321.643 59.3932 321.774 59.6313 321.861 59.7901C321.883 59.8236 321.918 59.8935 321.968 59.9997C322.016 60.0987 322.063 60.21 322.112 60.3337C322.165 60.4472 322.211 60.5549 322.251 60.6568C322.298 60.7557 322.33 60.8271 322.347 60.8707C322.071 60.979 321.878 61.0422 321.767 61.0603C321.664 61.0755 321.585 61.0561 321.53 61.002C321.483 60.9451 321.435 60.8548 321.387 60.7311C321.338 60.6075 321.235 60.4508 321.077 60.2611C320.89 60.5775 320.704 60.8518 320.518 61.084C320.332 61.3163 320.136 61.5231 319.93 61.7044C319.722 61.8785 319.499 62.0285 319.263 62.1545C319.038 62.2849 318.787 62.4043 318.51 62.5126C318.277 62.6038 318.045 62.674 317.812 62.7231C317.584 62.7621 317.367 62.7635 317.159 62.7272C316.952 62.6909 316.763 62.6054 316.593 62.4707C316.423 62.336 316.287 62.1378 316.184 61.8759ZM317.043 61.2748C317.089 61.3912 317.152 61.4758 317.231 61.5286C317.31 61.5814 317.4 61.6176 317.5 61.6371C317.6 61.6567 317.698 61.6603 317.794 61.6479C317.894 61.6254 317.988 61.5971 318.075 61.5629C318.33 61.4631 318.584 61.309 318.838 61.1004C319.096 60.8817 319.315 60.6367 319.494 60.3652C319.677 60.0836 319.8 59.7878 319.863 59.4777C319.934 59.1649 319.912 58.863 319.798 58.572C319.71 58.3465 319.608 58.2058 319.494 58.1498C319.38 58.0939 319.21 58.1101 318.985 58.1984C318.752 58.2896 318.501 58.4511 318.23 58.6827C317.968 58.9115 317.726 59.1739 317.507 59.4697C317.294 59.7627 317.138 60.0714 317.039 60.3956C316.936 60.7126 316.938 61.0057 317.043 61.2748ZM322.149 58.469C321.972 58.018 321.914 57.5584 321.974 57.0902C322.031 56.6148 322.176 56.1719 322.41 55.7615C322.648 55.341 322.95 54.9667 323.317 54.6385C323.69 54.3075 324.099 54.055 324.543 53.8812C324.79 53.7843 325.04 53.7788 325.292 53.8647C325.551 53.9478 325.791 54.0801 326.013 54.2616C326.233 54.4358 326.425 54.6373 326.59 54.8663C326.763 55.0924 326.886 55.3 326.96 55.4891C327.12 55.8965 327.177 56.3314 327.131 56.7939C327.083 57.2491 326.961 57.6871 326.765 58.1078C326.566 58.5214 326.306 58.896 325.985 59.2317C325.663 59.5675 325.306 59.8123 324.913 59.9662C324.564 60.103 324.247 60.1602 323.961 60.1379C323.672 60.1083 323.417 60.0238 323.194 59.8844C322.969 59.7377 322.767 59.544 322.589 59.3034C322.416 59.0526 322.269 58.7745 322.149 58.469ZM323.119 58.2147C323.193 58.4039 323.273 58.5655 323.36 58.6995C323.45 58.8235 323.555 58.9207 323.675 58.9912C323.802 59.0588 323.947 59.0947 324.108 59.0987C324.266 59.0955 324.447 59.054 324.65 58.9742C324.919 58.8687 325.16 58.6905 325.372 58.4396C325.582 58.1814 325.747 57.8982 325.87 57.5901C325.997 57.2718 326.072 56.9488 326.095 56.6211C326.117 56.2934 326.077 55.9986 325.975 55.7367C325.929 55.6203 325.868 55.4973 325.792 55.3677C325.716 55.238 325.63 55.125 325.534 55.0285C325.437 54.9321 325.326 54.8624 325.2 54.8194C325.074 54.7765 324.938 54.7835 324.793 54.8405C324.662 54.8918 324.523 54.9967 324.375 55.1552C324.235 55.3109 324.093 55.4963 323.951 55.7115C323.816 55.9238 323.688 56.1543 323.567 56.403C323.454 56.6488 323.355 56.8889 323.271 57.1234C323.186 57.3578 323.128 57.5735 323.096 57.7706C323.072 57.9649 323.079 58.1129 323.119 58.2147ZM311.5 74.9461C311.429 74.7643 311.403 74.611 311.421 74.4864C311.446 74.3589 311.561 74.2553 311.765 74.1755C311.787 74.1669 311.828 74.1549 311.889 74.1393C311.954 74.1137 311.994 74.098 312.009 74.0923C312.148 74.2979 312.296 74.5252 312.452 74.7744C312.613 75.0135 312.783 75.2534 312.961 75.494C313.139 75.7346 313.323 75.9688 313.513 76.1965C313.71 76.4213 313.916 76.6135 314.129 76.7732C314.206 76.5837 314.236 76.3829 314.22 76.171C314.205 75.9591 314.174 75.7529 314.129 75.5523C314.081 75.3445 314.034 75.1491 313.987 74.9659C313.945 74.7727 313.94 74.5986 313.972 74.4436C314 74.2813 314.08 74.1411 314.21 74.0231C314.347 73.9022 314.565 73.8167 314.864 73.7666C315.17 73.6469 315.436 73.6096 315.664 73.6547C315.888 73.6926 316.1 73.7732 316.3 73.8964C316.503 74.0096 316.706 74.1401 316.906 74.2881C317.111 74.4259 317.342 74.5327 317.598 74.6086C317.605 74.4969 317.614 74.3591 317.625 74.1953C317.633 74.0241 317.655 73.8437 317.69 73.6539C317.729 73.4539 317.773 73.2562 317.822 73.0607C317.876 72.8551 317.94 72.6662 318.016 72.4941C318.088 72.3147 318.174 72.1594 318.274 72.0281C318.37 71.8895 318.481 71.7959 318.604 71.7475C318.902 71.6306 319.198 71.624 319.49 71.7277C319.78 71.824 320.056 71.9841 320.32 72.208C320.588 72.4217 320.842 72.6832 321.081 72.9924C321.316 73.2944 321.526 73.594 321.71 73.8913C321.893 74.1886 322.049 74.4675 322.176 74.7281C322.308 74.9785 322.396 75.162 322.442 75.2784C322.479 75.3729 322.486 75.4542 322.462 75.5222C322.438 75.5903 322.399 75.6516 322.345 75.7064C322.288 75.7539 322.221 75.7969 322.144 75.8355C322.074 75.8713 322.007 75.902 321.941 75.9277C321.927 75.9334 321.905 75.9419 321.876 75.9533C321.844 75.9574 321.808 75.963 321.769 75.97C321.737 75.9741 321.693 75.9788 321.636 75.9843L319.649 72.9997C319.64 72.9779 319.595 72.9492 319.514 72.9139C319.43 72.8712 319.371 72.8483 319.336 72.8451C319.314 72.8537 319.295 72.8572 319.277 72.8556C319.263 72.8613 319.252 72.8656 319.245 72.8684C319.235 72.864 319.226 72.8632 319.219 72.8661C319.066 72.9259 318.945 73.0447 318.855 73.2225C318.772 73.3975 318.71 73.6023 318.668 73.8371C318.625 74.0718 318.599 74.3255 318.588 74.5982C318.578 74.8708 318.578 75.1392 318.589 75.4034C318.597 75.6602 318.607 75.8997 318.619 76.1217C318.635 76.3336 318.644 76.4976 318.648 76.6137C318.625 76.6397 318.572 76.677 318.491 76.7258C318.406 76.7672 318.349 76.7937 318.32 76.8051C318.117 76.8849 317.933 76.8771 317.77 76.7816C317.604 76.6789 317.443 76.5363 317.288 76.3538C317.139 76.1685 316.991 75.9622 316.844 75.7348C316.7 75.4973 316.551 75.2873 316.396 75.1049C316.247 74.9196 316.084 74.7821 315.907 74.6923C315.733 74.5924 315.537 74.5852 315.319 74.6707C315.239 74.7021 315.194 74.812 315.184 75.0005C315.174 75.1891 315.188 75.4184 315.227 75.6885C315.263 75.9514 315.311 76.2346 315.371 76.5383C315.429 76.8346 315.488 77.1136 315.548 77.3752C315.613 77.6266 315.671 77.8388 315.722 78.0118C315.773 78.1848 315.799 78.2713 315.799 78.2713C315.793 78.2989 315.773 78.3357 315.741 78.3819C315.706 78.4208 315.669 78.4648 315.629 78.5139C315.597 78.5601 315.558 78.6004 315.513 78.6349C315.475 78.6666 315.445 78.6867 315.423 78.6952C315.22 78.775 314.988 78.761 314.727 78.6533C314.464 78.5382 314.195 78.3666 313.921 78.1383C313.652 77.8999 313.382 77.6282 313.111 77.3231C312.848 77.0151 312.606 76.7072 312.384 76.3995C312.163 76.0919 311.973 75.8098 311.814 75.5533C311.662 75.294 311.557 75.0916 311.5 74.9461ZM327.256 72.4356C327.054 72.733 326.881 72.998 326.737 73.2306C326.598 73.453 326.453 73.6522 326.304 73.8281C326.155 74.0041 325.981 74.1603 325.783 74.2967C325.592 74.4302 325.34 74.5583 325.027 74.6808C324.351 74.9459 323.779 74.9643 323.312 74.7361C322.842 74.5007 322.467 74.0265 322.188 73.3137C322.08 73.0372 322.004 72.7357 321.96 72.4089C321.915 72.0822 321.905 71.7463 321.93 71.4011C321.958 71.0459 322.02 70.6989 322.113 70.3601C322.204 70.014 322.334 69.6906 322.501 69.3901C322.669 69.0895 322.868 68.8269 323.099 68.6022C323.334 68.3674 323.608 68.1887 323.921 68.0661C324.464 67.9119 324.927 67.8818 325.307 67.9759C325.685 68.0627 326.015 68.2399 326.296 68.5073C326.574 68.7676 326.821 69.0863 327.036 69.4636C327.248 69.8336 327.451 70.2238 327.645 70.6343C327.847 71.042 328.056 71.4468 328.272 71.8487C328.488 72.2507 328.746 72.5985 329.046 72.8923C329.046 73.1693 329.02 73.3723 328.97 73.501C328.93 73.6342 328.846 73.688 328.719 73.6625C328.591 73.6369 328.408 73.5239 328.17 73.3234C327.94 73.1202 327.635 72.8242 327.256 72.4356ZM323.124 72.9721C323.287 73.3867 323.483 73.6623 323.712 73.7989C323.946 73.9253 324.264 73.9101 324.664 73.7534C324.962 73.6365 325.226 73.4745 325.455 73.2672C325.689 73.0498 325.872 72.8102 326.004 72.5486C326.134 72.2797 326.209 71.99 326.23 71.6797C326.251 71.3694 326.199 71.0542 326.073 70.7342C326.022 70.6032 325.955 70.42 325.871 70.1843C325.784 69.9414 325.677 69.7107 325.549 69.4922C325.422 69.2737 325.274 69.1007 325.107 68.9733C324.936 68.8386 324.75 68.8112 324.546 68.891C324.168 69.0392 323.857 69.2742 323.614 69.596C323.368 69.9105 323.187 70.2625 323.071 70.6519C322.955 71.0414 322.903 71.4436 322.914 71.8586C322.923 72.2663 322.993 72.6375 323.124 72.9721ZM327.497 67.6215C327.488 67.5996 327.485 67.58 327.487 67.5626C327.481 67.5481 327.477 67.5285 327.476 67.5038C327.491 67.456 327.516 67.3916 327.551 67.3106C327.587 67.2297 327.612 67.1863 327.626 67.1806L329.82 66.3213C329.788 66.2413 329.727 66.1183 329.637 65.9523C329.547 65.7863 329.45 65.602 329.345 65.3996C329.248 65.1944 329.159 64.9776 329.078 64.7492C328.994 64.5136 328.942 64.2949 328.921 64.0931C328.905 63.8812 328.933 63.6942 329.004 63.5322C329.079 63.3601 329.226 63.2313 329.444 63.1458C329.732 63.8805 330.013 64.4498 330.289 64.8536C330.565 65.2574 330.833 65.5466 331.095 65.7211C331.363 65.8927 331.621 65.9722 331.868 65.9594C332.114 65.9466 332.349 65.8925 332.572 65.7968C332.799 65.6911 333.01 65.5664 333.205 65.4227C333.401 65.279 333.578 65.1634 333.737 65.0761C333.903 64.9859 334.048 64.9499 334.173 64.9682C334.295 64.9792 334.395 65.0866 334.475 65.2902C334.535 65.443 334.541 65.5663 334.494 65.6603C334.454 65.7514 334.343 65.8536 334.161 65.967C334.106 65.997 334.013 66.0501 333.884 66.126C333.759 66.1919 333.615 66.2649 333.454 66.345C333.292 66.425 333.121 66.5131 332.94 66.609C332.757 66.6976 332.584 66.782 332.423 66.8621C332.261 66.9422 332.113 67.013 331.977 67.0744C331.839 67.1285 331.737 67.1684 331.672 67.1941C331.686 67.2304 331.707 67.2937 331.734 67.3838C331.76 67.474 331.78 67.5336 331.791 67.5627C331.916 67.8828 332.09 68.1756 332.311 68.4412C332.53 68.6995 332.756 68.955 332.989 69.2077C333.23 69.4575 333.459 69.7115 333.678 69.9699C333.897 70.2282 334.069 70.5174 334.194 70.8375C334.217 70.8957 334.234 70.9603 334.245 71.0315C334.261 71.0926 334.26 71.1557 334.244 71.2208C334.232 71.2759 334.197 71.3271 334.14 71.3746C334.094 71.4265 334.008 71.4556 333.885 71.462C333.58 71.4976 333.312 71.4224 333.079 71.2365C332.854 71.0478 332.645 70.8025 332.451 70.5009C332.255 70.1919 332.073 69.8562 331.906 69.4938C331.739 69.1313 331.567 68.8001 331.39 68.5C331.219 68.1897 331.038 67.9418 330.847 67.7562C330.654 67.5633 330.435 67.4856 330.19 67.523L327.896 67.868C327.867 67.8794 327.812 67.8674 327.731 67.832C327.647 67.7894 327.592 67.7563 327.566 67.7329C327.553 67.7212 327.542 67.7045 327.534 67.6826C327.521 67.6709 327.508 67.6506 327.497 67.6215ZM334.445 63.0616C334.414 62.9816 334.383 62.8806 334.352 62.7585C334.325 62.6263 334.312 62.497 334.313 62.3708C334.321 62.2418 334.347 62.1266 334.392 62.0254C334.433 61.9169 334.512 61.8398 334.628 61.7942C334.636 61.7914 334.655 61.7879 334.687 61.7837C334.719 61.7796 334.739 61.7761 334.746 61.7733C335.046 62.1758 335.294 62.5947 335.49 63.0299C335.686 63.465 335.848 63.9007 335.977 64.3368C336.103 64.7657 336.207 65.1908 336.288 65.6121C336.366 66.0261 336.444 66.4068 336.521 66.7541C336.606 67.0985 336.692 67.4045 336.78 67.6721C336.876 67.9368 337.002 68.143 337.161 68.2906C337.101 68.18 337.036 68.046 336.966 67.8888C336.9 67.7215 336.848 67.5449 336.809 67.3589C336.777 67.1701 336.763 66.9741 336.767 66.7711C336.779 66.5651 336.83 66.3646 336.921 66.1693C337.013 65.9741 337.156 65.7924 337.35 65.624C337.551 65.4528 337.823 65.3002 338.165 65.1662C338.521 65.0266 338.851 64.9687 339.154 64.9926C339.464 65.0137 339.746 65.1006 339.999 65.2532C340.248 65.3986 340.47 65.6012 340.664 65.8608C340.863 66.1103 341.026 66.3987 341.155 66.726C341.214 66.8788 341.279 67.0548 341.349 67.254C341.423 67.4432 341.467 67.6313 341.482 67.8186C341.501 67.9957 341.471 68.1667 341.393 68.3315C341.32 68.4863 341.167 68.6092 340.934 68.7004C340.888 68.584 340.834 68.4248 340.772 68.2227C340.707 68.0133 340.63 67.7959 340.541 67.5704C340.46 67.342 340.363 67.1157 340.25 66.8915C340.144 66.6644 340.016 66.4757 339.865 66.3252C339.711 66.1674 339.538 66.0588 339.347 65.9994C339.16 65.9299 338.943 65.9436 338.696 66.0405C338.609 66.0747 338.502 66.1247 338.377 66.1906C338.256 66.2463 338.142 66.3289 338.034 66.4384C337.926 66.5479 337.834 66.6887 337.759 66.8608C337.681 67.0256 337.647 67.2278 337.656 67.4672C337.664 67.6994 337.722 67.9784 337.833 68.3041C337.949 68.6198 338.14 68.9896 338.407 69.4137C338.407 69.5646 338.371 69.6666 338.3 69.7198C338.236 69.7701 338.145 69.818 338.029 69.8636C337.796 69.9548 337.572 69.9503 337.357 69.8502C337.146 69.7399 336.946 69.5622 336.758 69.3171C336.569 69.072 336.389 68.7734 336.218 68.421C336.053 68.0659 335.898 67.6905 335.751 67.2948C335.602 66.8919 335.462 66.4811 335.331 66.0623C335.205 65.6334 335.086 65.2315 334.972 64.8563C334.863 64.4711 334.765 64.1237 334.677 63.814C334.594 63.4943 334.516 63.2435 334.445 63.0616ZM323.769 82.2805C323.738 82.2005 323.707 82.0995 323.676 81.9774C323.649 81.8452 323.636 81.716 323.637 81.5898C323.645 81.4607 323.672 81.3455 323.716 81.2443C323.757 81.1358 323.836 81.0587 323.952 81.0131C323.96 81.0103 323.979 81.0068 324.011 81.0027C324.043 80.9985 324.063 80.9951 324.07 80.9922C324.37 81.3948 324.618 81.8136 324.814 82.2488C325.01 82.684 325.172 83.1196 325.301 83.5558C325.427 83.9846 325.531 84.4097 325.612 84.831C325.69 85.2451 325.768 85.6257 325.845 85.973C325.93 86.3174 326.016 86.6234 326.104 86.891C326.2 87.1557 326.327 87.3619 326.485 87.5096C326.425 87.3989 326.36 87.2649 326.29 87.1078C326.224 86.9405 326.172 86.7638 326.133 86.5778C326.101 86.389 326.087 86.1931 326.091 85.99C326.103 85.784 326.154 85.5835 326.246 85.3883C326.337 85.1931 326.48 85.0113 326.674 84.8429C326.875 84.6717 327.147 84.5191 327.489 84.3852C327.845 84.2455 328.175 84.1877 328.478 84.2116C328.788 84.2326 329.07 84.3195 329.323 84.4722C329.573 84.6176 329.795 84.8201 329.989 85.0797C330.187 85.3292 330.35 85.6176 330.479 85.9449C330.538 86.0977 330.603 86.2737 330.673 86.473C330.747 86.6621 330.791 86.8503 330.806 87.0375C330.825 87.2147 330.796 87.3856 330.717 87.5505C330.644 87.7052 330.491 87.8281 330.258 87.9193C330.212 87.803 330.158 87.6437 330.096 87.4416C330.031 87.2322 329.954 87.0148 329.865 86.7893C329.784 86.5609 329.687 86.3347 329.574 86.1104C329.469 85.8834 329.34 85.6946 329.189 85.5441C329.035 85.3863 328.862 85.2777 328.671 85.2183C328.484 85.1488 328.267 85.1625 328.02 85.2594C327.933 85.2936 327.826 85.3436 327.701 85.4095C327.58 85.4652 327.466 85.5478 327.358 85.6573C327.25 85.7668 327.158 85.9076 327.083 86.0797C327.005 86.2445 326.971 86.4467 326.981 86.6861C326.988 86.9183 327.047 87.1973 327.157 87.523C327.273 87.8387 327.464 88.2085 327.731 88.6326C327.731 88.7835 327.695 88.8855 327.624 88.9387C327.56 88.989 327.469 89.037 327.353 89.0826C327.12 89.1738 326.896 89.1693 326.681 89.0691C326.47 88.9588 326.27 88.7811 326.082 88.536C325.893 88.291 325.713 87.9923 325.542 87.64C325.378 87.2848 325.222 86.9094 325.075 86.5138C324.926 86.1108 324.786 85.7 324.656 85.2812C324.529 84.8524 324.41 84.4504 324.296 84.0753C324.187 83.69 324.089 83.3426 324.001 83.033C323.918 82.7132 323.841 82.4624 323.769 82.2805ZM329.487 82.8347C329.438 82.711 329.419 82.5883 329.43 82.4665C329.449 82.3419 329.527 82.2525 329.665 82.1983C329.672 82.1955 329.685 82.1948 329.702 82.1964C329.717 82.1907 329.731 82.185 329.746 82.1793C329.76 82.1736 329.775 82.1679 329.789 82.1622C329.817 82.1682 329.871 82.1889 329.952 82.2243C330.041 82.2568 330.098 82.2848 330.124 82.3082C330.162 82.3433 330.243 82.4208 330.366 82.5406C330.495 82.6576 330.646 82.7958 330.818 82.9551C330.993 83.1043 331.175 83.2681 331.362 83.4464C331.554 83.6146 331.736 83.7784 331.907 83.9378C332.086 84.0943 332.237 84.2324 332.359 84.3523C332.486 84.462 332.573 84.533 332.619 84.5652C332.635 84.5842 332.685 84.615 332.768 84.6577C332.857 84.6902 332.918 84.708 332.953 84.7112C332.971 84.5866 332.97 84.411 332.948 84.1845C332.926 83.958 332.898 83.7134 332.862 83.4505C332.83 83.1776 332.797 82.901 332.763 82.6207C332.726 82.3332 332.708 82.0719 332.708 81.8369C332.712 81.5918 332.74 81.3838 332.791 81.2129C332.838 81.0348 332.928 80.9201 333.059 80.8688C333.248 80.7947 333.454 80.7976 333.679 80.8776C333.91 80.9547 334.148 81.0797 334.392 81.2526C334.643 81.4227 334.895 81.6261 335.147 81.8629C335.404 82.0896 335.65 82.3206 335.884 82.5558C336.124 82.7809 336.345 82.9921 336.548 83.1894C336.755 83.3766 336.941 83.5179 337.104 83.6134C337.18 83.5501 337.224 83.4489 337.237 83.3097C337.249 83.1705 337.246 83.0334 337.227 82.8983C337.212 82.7531 337.19 82.6231 337.162 82.5083C337.131 82.3862 337.112 82.3056 337.105 82.2663C337.081 82.1835 337.043 82.0555 336.992 81.8825C336.939 81.7023 336.876 81.5002 336.805 81.2762C336.742 81.0495 336.671 80.8168 336.595 80.5784C336.518 80.3399 336.444 80.1087 336.373 79.8848C336.31 79.658 336.249 79.4595 336.19 79.2894C336.137 79.1091 336.095 78.9826 336.067 78.9098C336.081 78.9041 336.116 78.8863 336.172 78.8562C336.224 78.8188 336.261 78.7959 336.283 78.7873C336.385 78.7474 336.48 78.7227 336.569 78.7132C336.657 78.7037 336.749 78.7558 336.844 78.8697C336.864 78.9206 336.9 79.0115 336.951 79.1424C337.009 79.2705 337.069 79.4109 337.129 79.5637C337.193 79.7063 337.252 79.8468 337.306 79.985C337.365 80.113 337.404 80.2026 337.424 80.2535C337.47 80.3699 337.541 80.5517 337.638 80.799C337.739 81.0362 337.841 81.3068 337.943 81.6107C338.053 81.9118 338.151 82.2259 338.237 82.5529C338.32 82.8727 338.373 83.1792 338.396 83.4724C338.423 83.7555 338.403 84.0063 338.338 84.2249C338.27 84.4363 338.138 84.5804 337.941 84.6574C337.716 84.7457 337.483 84.7738 337.244 84.7416C337.005 84.7095 336.763 84.6367 336.517 84.5232C336.278 84.4069 336.04 84.2696 335.801 84.1112C335.56 83.9455 335.33 83.7756 335.111 83.6014C334.896 83.4171 334.694 83.2445 334.505 83.0835C334.321 82.9125 334.16 82.7699 334.023 82.6558C334.016 82.8095 334.026 82.9946 334.052 83.2109C334.085 83.4244 334.118 83.6589 334.151 83.9145C334.181 84.1628 334.206 84.4176 334.224 84.6789C334.24 84.9329 334.237 85.1729 334.217 85.3991C334.201 85.6152 334.154 85.8056 334.076 85.9705C334.005 86.1324 333.893 86.2434 333.74 86.3032C333.668 86.3317 333.604 86.361 333.548 86.3911C333.49 86.4139 333.434 86.4316 333.38 86.4443C333.324 86.4497 333.266 86.4427 333.208 86.4235C333.151 86.4042 333.088 86.3617 333.02 86.2959L329.594 83.0444C329.591 83.0371 329.576 83.0094 329.549 82.9613C329.519 82.906 329.498 82.8638 329.487 82.8347Z" fill="black"/>
<path d="M242.766 115.43C242.821 115.103 242.919 114.779 243.058 114.459C243.205 114.134 243.382 113.83 243.587 113.548C243.8 113.267 244.04 113.013 244.309 112.788C244.579 112.556 244.865 112.366 245.167 112.219C245.477 112.066 245.801 111.962 246.14 111.907C246.481 111.846 246.828 111.844 247.181 111.904C247.534 111.963 247.827 112.085 248.06 112.269C248.301 112.448 248.488 112.668 248.623 112.928C248.757 113.188 248.841 113.476 248.874 113.792C248.908 114.101 248.899 114.41 248.847 114.718C248.757 115.258 248.587 115.777 248.338 116.277C248.09 116.77 247.774 117.199 247.389 117.563C247.006 117.921 246.558 118.189 246.046 118.367C245.542 118.54 244.988 118.576 244.384 118.475C244.025 118.414 243.727 118.282 243.49 118.077C243.262 117.867 243.082 117.619 242.952 117.333C242.829 117.042 242.752 116.732 242.722 116.403C242.699 116.069 242.714 115.745 242.766 115.43ZM243.549 115.78C243.52 115.953 243.518 116.141 243.544 116.343C243.569 116.545 243.62 116.736 243.696 116.913C243.772 117.091 243.877 117.247 244.013 117.382C244.155 117.519 244.326 117.603 244.525 117.637C244.955 117.709 245.363 117.678 245.748 117.545C246.135 117.405 246.482 117.203 246.791 116.938C247.101 116.666 247.358 116.35 247.564 115.988C247.77 115.627 247.905 115.257 247.969 114.878C248.005 114.66 248.037 114.434 248.063 114.2C248.089 113.967 248.082 113.751 248.043 113.553C248.004 113.349 247.918 113.176 247.783 113.035C247.656 112.888 247.451 112.791 247.169 112.743C247.079 112.728 246.956 112.711 246.801 112.691C246.652 112.673 246.501 112.668 246.348 112.675C246.196 112.676 246.058 112.695 245.932 112.734C245.813 112.773 245.745 112.844 245.728 112.947C245.726 112.96 245.731 112.99 245.743 113.039C245.762 113.081 245.78 113.127 245.799 113.177C245.817 113.226 245.832 113.275 245.843 113.323C245.856 113.365 245.861 113.392 245.859 113.405C245.857 113.418 245.826 113.449 245.764 113.498C245.704 113.54 245.657 113.566 245.623 113.573C245.288 113.603 245.001 113.663 244.761 113.755C244.528 113.841 244.331 113.973 244.169 114.151C244.014 114.329 243.887 114.552 243.79 114.82C243.692 115.087 243.612 115.407 243.549 115.78ZM252.471 120.734C252.379 120.46 252.28 120.124 252.176 119.723C252.079 119.318 251.978 118.898 251.872 118.464C251.768 118.024 251.652 117.592 251.525 117.168C251.405 116.745 251.273 116.373 251.128 116.052C251.061 115.981 250.961 115.928 250.828 115.893C250.696 115.857 250.555 115.83 250.406 115.812C250.259 115.787 250.111 115.759 249.965 115.728C249.826 115.691 249.707 115.635 249.607 115.559C249.514 115.484 249.452 115.381 249.421 115.25C249.39 115.12 249.41 114.942 249.481 114.716L251.099 114.988C251.192 114.633 251.306 114.286 251.442 113.946C251.579 113.606 251.738 113.286 251.92 112.987C252.109 112.688 252.32 112.417 252.552 112.172C252.785 111.927 253.049 111.727 253.346 111.572C253.643 111.417 253.971 111.311 254.331 111.252C254.697 111.195 255.098 111.203 255.535 111.276C255.689 111.302 255.836 111.366 255.978 111.469C256.12 111.566 256.242 111.685 256.343 111.828C256.445 111.97 256.518 112.125 256.563 112.29C256.614 112.458 256.626 112.618 256.601 112.772C256.479 112.752 256.373 112.711 256.284 112.65C256.197 112.582 256.113 112.512 256.033 112.439C255.954 112.36 255.867 112.286 255.773 112.217C255.68 112.142 255.569 112.094 255.441 112.072C255.055 112.008 254.683 112.024 254.323 112.122C253.97 112.222 253.646 112.379 253.353 112.593C253.066 112.809 252.823 113.075 252.625 113.392C252.426 113.709 252.295 114.056 252.232 114.435C252.227 114.461 252.219 114.509 252.207 114.579C252.203 114.645 252.194 114.716 252.182 114.793C252.169 114.87 252.156 114.944 252.144 115.014C252.139 115.086 252.134 115.135 252.13 115.161C252.354 115.278 252.611 115.38 252.9 115.468C253.189 115.556 253.48 115.632 253.773 115.694C254.074 115.751 254.363 115.796 254.641 115.83C254.926 115.864 255.179 115.89 255.401 115.908C255.417 115.93 255.446 115.972 255.489 116.032C255.532 116.092 255.554 116.135 255.556 116.162C255.553 116.181 255.554 116.194 255.559 116.202C255.566 116.242 255.569 116.263 255.569 116.263C255.546 116.398 255.458 116.492 255.304 116.545C255.149 116.598 254.96 116.626 254.735 116.628C254.512 116.623 254.264 116.605 253.992 116.572C253.727 116.541 253.468 116.511 253.215 116.482C252.97 116.447 252.746 116.423 252.544 116.409C252.349 116.389 252.21 116.395 252.125 116.427C252.144 116.827 252.229 117.224 252.38 117.619C252.538 118.015 252.7 118.412 252.864 118.809C253.028 119.206 253.166 119.603 253.278 119.998C253.39 120.393 253.414 120.783 253.349 121.168C253.323 121.164 253.262 121.153 253.166 121.137C253.075 121.129 252.979 121.109 252.879 121.079C252.778 121.049 252.684 121.003 252.595 120.942C252.511 120.889 252.47 120.819 252.471 120.734ZM259.271 121.875C259.178 121.602 259.079 121.265 258.975 120.865C258.878 120.459 258.777 120.039 258.671 119.606C258.567 119.166 258.451 118.734 258.325 118.31C258.204 117.887 258.072 117.515 257.928 117.194C257.86 117.123 257.76 117.07 257.628 117.034C257.495 116.999 257.354 116.972 257.206 116.954C257.058 116.929 256.911 116.901 256.764 116.87C256.625 116.833 256.506 116.777 256.406 116.7C256.313 116.625 256.251 116.523 256.221 116.392C256.19 116.261 256.21 116.083 256.281 115.857L257.899 116.129C257.991 115.775 258.105 115.428 258.242 115.088C258.378 114.747 258.537 114.428 258.72 114.128C258.908 113.83 259.119 113.558 259.352 113.313C259.584 113.068 259.849 112.869 260.145 112.714C260.442 112.559 260.77 112.452 261.13 112.394C261.496 112.337 261.897 112.344 262.334 112.418C262.488 112.444 262.636 112.508 262.777 112.611C262.919 112.707 263.041 112.827 263.143 112.969C263.244 113.112 263.317 113.266 263.362 113.432C263.413 113.599 263.426 113.76 263.4 113.914C263.278 113.893 263.173 113.852 263.084 113.791C262.996 113.724 262.912 113.654 262.832 113.581C262.753 113.501 262.666 113.427 262.572 113.359C262.479 113.284 262.368 113.236 262.24 113.214C261.855 113.149 261.482 113.166 261.123 113.264C260.769 113.363 260.446 113.52 260.152 113.735C259.865 113.951 259.622 114.217 259.424 114.534C259.226 114.85 259.095 115.198 259.031 115.577C259.027 115.602 259.019 115.65 259.007 115.721C259.002 115.786 258.994 115.858 258.981 115.935C258.968 116.012 258.956 116.085 258.944 116.156C258.938 116.228 258.933 116.276 258.929 116.302C259.154 116.419 259.41 116.522 259.699 116.61C259.988 116.698 260.279 116.773 260.572 116.836C260.873 116.893 261.163 116.938 261.441 116.971C261.725 117.006 261.979 117.032 262.2 117.049C262.216 117.072 262.246 117.113 262.288 117.173C262.331 117.233 262.353 117.276 262.356 117.303C262.352 117.322 262.353 117.336 262.359 117.343C262.365 117.384 262.368 117.404 262.368 117.404C262.346 117.539 262.257 117.633 262.103 117.687C261.949 117.74 261.759 117.768 261.535 117.769C261.311 117.765 261.063 117.746 260.791 117.714C260.526 117.683 260.267 117.652 260.014 117.623C259.769 117.589 259.546 117.564 259.343 117.55C259.149 117.531 259.009 117.537 258.924 117.569C258.943 117.968 259.028 118.365 259.18 118.76C259.338 119.157 259.499 119.553 259.663 119.951C259.828 120.348 259.966 120.744 260.078 121.139C260.19 121.534 260.213 121.924 260.148 122.31C260.123 122.305 260.062 122.295 259.965 122.279C259.875 122.27 259.779 122.251 259.678 122.221C259.578 122.191 259.483 122.145 259.394 122.084C259.311 122.03 259.27 121.961 259.271 121.875ZM263.312 117.919C263.318 117.881 263.328 117.82 263.342 117.736C263.364 117.647 263.383 117.555 263.399 117.459C263.421 117.363 263.44 117.271 263.455 117.181C263.477 117.092 263.491 117.028 263.497 116.99C263.585 116.899 263.689 116.831 263.809 116.785C263.935 116.74 264.06 116.708 264.182 116.689C264.143 117.039 264.135 117.417 264.159 117.824C264.184 118.231 264.214 118.642 264.249 119.057C264.286 119.466 264.311 119.869 264.323 120.268C264.342 120.667 264.324 121.033 264.268 121.367C264.219 121.656 264.047 121.776 263.752 121.726C263.572 121.696 263.434 121.597 263.336 121.429C263.239 121.261 263.171 121.058 263.132 120.82C263.1 120.577 263.085 120.314 263.086 120.03C263.088 119.74 263.103 119.459 263.129 119.186C263.161 118.914 263.193 118.665 263.224 118.439C263.262 118.215 263.291 118.041 263.312 117.919ZM264.053 114.33C264.166 114.402 264.255 114.503 264.319 114.632C264.383 114.762 264.401 114.874 264.372 114.968C264.35 115.057 264.269 115.109 264.127 115.125C263.987 115.135 263.769 115.058 263.473 114.896C263.502 114.723 263.559 114.578 263.645 114.46C263.737 114.343 263.873 114.3 264.053 114.33ZM264.868 118.913C264.913 118.644 265.018 118.371 265.183 118.095C265.355 117.82 265.56 117.581 265.799 117.376C266.039 117.166 266.301 117.002 266.585 116.884C266.875 116.768 267.165 116.734 267.453 116.783C267.601 116.808 267.745 116.858 267.884 116.934C268.023 117.01 268.142 117.106 268.241 117.222C268.347 117.339 268.424 117.47 268.472 117.617C268.526 117.765 268.54 117.922 268.512 118.089C268.396 118.07 268.292 118.039 268.2 117.997C268.115 117.957 268.03 117.913 267.945 117.865C267.862 117.812 267.777 117.765 267.692 117.724C267.612 117.684 267.521 117.656 267.419 117.638C267.156 117.594 266.929 117.626 266.74 117.732C266.557 117.834 266.402 117.976 266.272 118.159C266.142 118.342 266.039 118.545 265.961 118.77C265.891 118.989 265.84 119.199 265.806 119.398C265.801 119.43 265.791 119.491 265.776 119.581C265.767 119.672 265.754 119.768 265.737 119.871C265.727 119.969 265.715 120.062 265.7 120.152C265.691 120.243 265.687 120.305 265.688 120.338C265.733 120.504 265.78 120.634 265.83 120.729C265.887 120.824 265.95 120.901 266.02 120.958C266.09 121.01 266.169 121.05 266.257 121.078C266.346 121.099 266.451 121.12 266.573 121.141C266.74 121.169 266.889 121.167 267.02 121.136C267.157 121.106 267.286 121.065 267.407 121.013C267.528 120.961 267.643 120.901 267.754 120.834C267.865 120.76 267.978 120.696 268.093 120.643C268.215 120.584 268.341 120.543 268.47 120.518C268.607 120.488 268.756 120.487 268.916 120.514C268.864 120.829 268.759 121.098 268.602 121.323C268.452 121.548 268.26 121.731 268.025 121.87C267.797 122.009 267.537 122.104 267.245 122.154C266.96 122.199 266.657 122.194 266.336 122.14C266.034 122.09 265.779 121.941 265.569 121.695C265.366 121.449 265.203 121.165 265.079 120.84C264.963 120.51 264.888 120.171 264.854 119.822C264.82 119.473 264.825 119.17 264.868 118.913ZM269.569 119.93C269.627 119.584 269.727 119.244 269.869 118.911C270.01 118.579 270.194 118.289 270.42 118.043C270.653 117.799 270.928 117.614 271.246 117.489C271.571 117.365 271.942 117.338 272.359 117.408C272.597 117.448 272.798 117.528 272.962 117.648C273.128 117.762 273.26 117.9 273.358 118.061C273.457 118.223 273.519 118.405 273.544 118.607C273.577 118.804 273.576 119.006 273.542 119.211C273.487 119.538 273.356 119.843 273.15 120.126C272.951 120.409 272.703 120.648 272.406 120.842C272.117 121.032 271.799 121.16 271.451 121.227C271.104 121.287 270.766 121.257 270.436 121.135C270.411 121.323 270.447 121.484 270.543 121.619C270.647 121.748 270.777 121.856 270.934 121.942C271.092 122.028 271.259 122.095 271.435 122.145C271.613 122.188 271.772 122.221 271.913 122.245C272.061 122.27 272.201 122.28 272.334 122.276C272.467 122.272 272.6 122.265 272.734 122.254C272.868 122.243 273.001 122.236 273.134 122.232C273.273 122.229 273.416 122.24 273.564 122.265C273.622 122.274 273.679 122.287 273.735 122.303C273.792 122.32 273.844 122.345 273.891 122.379C273.939 122.407 273.975 122.449 273.999 122.506C274.023 122.556 274.029 122.617 274.018 122.687C273.997 122.809 273.935 122.905 273.831 122.973C273.728 123.035 273.601 123.083 273.45 123.117C273.306 123.152 273.147 123.172 272.975 123.176C272.804 123.174 272.636 123.168 272.473 123.161C272.316 123.148 272.171 123.13 272.036 123.107C271.906 123.092 271.81 123.079 271.745 123.068C271.334 122.999 270.976 122.873 270.67 122.69C270.365 122.5 270.12 122.271 269.934 122.002C269.749 121.727 269.623 121.415 269.556 121.067C269.497 120.714 269.501 120.335 269.569 119.93ZM270.695 119.476C270.657 119.7 270.659 119.869 270.699 119.981C270.746 120.095 270.888 120.172 271.126 120.212C271.293 120.24 271.461 120.238 271.632 120.207C271.803 120.17 271.962 120.108 272.109 120.02C272.262 119.934 272.389 119.823 272.491 119.688C272.593 119.553 272.658 119.399 272.688 119.226C272.704 119.13 272.711 119.029 272.709 118.923C272.713 118.818 272.697 118.719 272.659 118.627C272.623 118.529 272.568 118.447 272.493 118.381C272.425 118.311 272.328 118.265 272.199 118.243C272.006 118.211 271.822 118.226 271.647 118.289C271.479 118.346 271.328 118.437 271.195 118.56C271.064 118.676 270.954 118.816 270.867 118.98C270.781 119.137 270.724 119.302 270.695 119.476ZM245.379 126.381C245.391 126.311 245.412 126.225 245.442 126.124C245.479 126.019 245.525 125.921 245.58 125.831C245.641 125.742 245.709 125.671 245.784 125.618C245.86 125.558 245.95 125.536 246.053 125.554C246.059 125.555 246.074 125.561 246.099 125.571C246.124 125.582 246.139 125.588 246.146 125.589C246.188 126.005 246.186 126.411 246.139 126.806C246.093 127.201 246.022 127.582 245.928 127.949C245.834 128.309 245.726 128.658 245.604 128.994C245.482 129.323 245.375 129.629 245.281 129.91C245.194 130.192 245.125 130.448 245.073 130.677C245.028 130.907 245.031 131.109 245.081 131.282C245.085 131.177 245.096 131.054 245.113 130.912C245.138 130.764 245.176 130.615 245.228 130.465C245.286 130.317 245.36 130.171 245.45 130.027C245.546 129.885 245.669 129.764 245.818 129.663C245.967 129.563 246.147 129.494 246.358 129.457C246.575 129.421 246.835 129.428 247.136 129.479C247.451 129.531 247.711 129.631 247.918 129.778C248.131 129.926 248.295 130.109 248.41 130.326C248.526 130.537 248.598 130.777 248.626 131.046C248.661 131.309 248.654 131.585 248.606 131.874C248.583 132.009 248.554 132.163 248.518 132.335C248.49 132.502 248.442 132.655 248.372 132.795C248.31 132.93 248.215 133.04 248.089 133.124C247.97 133.203 247.808 133.226 247.602 133.191C247.62 133.088 247.649 132.951 247.691 132.78C247.734 132.603 247.772 132.414 247.806 132.215C247.846 132.017 247.873 131.814 247.888 131.605C247.91 131.398 247.899 131.208 247.855 131.035C247.813 130.856 247.736 130.705 247.625 130.581C247.521 130.451 247.36 130.368 247.142 130.331C247.065 130.318 246.967 130.308 246.85 130.302C246.739 130.29 246.622 130.3 246.498 130.332C246.374 130.364 246.248 130.425 246.12 130.516C245.994 130.601 245.883 130.731 245.788 130.906C245.693 131.075 245.616 131.3 245.556 131.58C245.503 131.855 245.481 132.201 245.49 132.619C245.426 132.727 245.357 132.784 245.283 132.792C245.215 132.8 245.13 132.796 245.028 132.779C244.822 132.744 244.664 132.645 244.553 132.481C244.449 132.312 244.382 132.099 244.353 131.843C244.323 131.588 244.322 131.297 244.351 130.972C244.385 130.647 244.435 130.312 244.5 129.967C244.565 129.615 244.641 129.261 244.727 128.906C244.821 128.545 244.907 128.207 244.987 127.89C245.074 127.568 245.152 127.277 245.222 127.018C245.3 126.754 245.352 126.542 245.379 126.381ZM249.077 131.428C249.143 131.03 249.299 130.677 249.542 130.368C249.786 130.052 250.08 129.798 250.423 129.605C250.773 129.406 251.149 129.268 251.552 129.19C251.961 129.114 252.361 129.108 252.753 129.174C252.971 129.211 253.152 129.314 253.295 129.483C253.444 129.653 253.56 129.851 253.641 130.076C253.723 130.294 253.774 130.521 253.794 130.755C253.821 130.99 253.82 131.192 253.792 131.359C253.732 131.718 253.586 132.054 253.356 132.365C253.126 132.669 252.851 132.93 252.531 133.147C252.212 133.358 251.865 133.514 251.492 133.616C251.118 133.719 250.758 133.741 250.411 133.682C250.103 133.631 249.852 133.536 249.657 133.397C249.463 133.253 249.317 133.083 249.218 132.888C249.12 132.687 249.058 132.462 249.034 132.213C249.017 131.96 249.031 131.698 249.077 131.428ZM249.879 131.662C249.851 131.829 249.839 131.979 249.843 132.112C249.855 132.239 249.888 132.354 249.944 132.455C250.006 132.558 250.094 132.646 250.207 132.717C250.321 132.783 250.468 132.831 250.648 132.861C250.886 132.901 251.134 132.876 251.393 132.788C251.653 132.693 251.893 132.561 252.113 132.394C252.34 132.221 252.532 132.022 252.688 131.797C252.845 131.573 252.943 131.345 252.981 131.114C252.999 131.011 253.008 130.897 253.009 130.772C253.01 130.646 252.997 130.529 252.969 130.418C252.942 130.308 252.892 130.211 252.82 130.126C252.749 130.041 252.649 129.988 252.52 129.967C252.405 129.947 252.26 129.963 252.087 130.013C251.92 130.064 251.739 130.136 251.546 130.229C251.358 130.323 251.168 130.433 250.975 130.559C250.789 130.686 250.615 130.815 250.455 130.947C250.294 131.078 250.16 131.208 250.053 131.335C249.952 131.463 249.894 131.572 249.879 131.662ZM254.358 130.285C254.365 130.247 254.376 130.179 254.392 130.083C254.416 129.981 254.437 129.876 254.455 129.767C254.474 129.658 254.49 129.558 254.505 129.468C254.528 129.373 254.543 129.306 254.549 129.268C254.607 129.198 254.671 129.133 254.74 129.072C254.817 129.006 254.89 128.965 254.959 128.95C255.035 128.93 255.11 128.936 255.183 128.968C255.264 129.001 255.336 129.08 255.402 129.203L255.389 129.28L255.368 129.405C255.356 129.436 255.33 129.511 255.29 129.63C255.252 129.742 255.208 129.867 255.158 130.004C255.109 130.141 255.061 130.268 255.015 130.386C254.976 130.498 254.954 130.57 254.949 130.602C254.928 130.724 254.915 130.88 254.91 131.071C254.905 131.255 254.909 131.45 254.92 131.657C254.938 131.865 254.966 132.074 255.003 132.285C255.047 132.497 255.106 132.692 255.182 132.869C255.259 133.041 255.35 133.188 255.454 133.311C255.566 133.436 255.705 133.512 255.872 133.54C256.077 133.574 256.266 133.55 256.438 133.467C256.617 133.384 256.779 133.266 256.924 133.112C257.068 132.958 257.194 132.778 257.302 132.572C257.415 132.366 257.513 132.158 257.595 131.948C257.677 131.73 257.745 131.521 257.799 131.318C257.853 131.116 257.893 130.938 257.919 130.784C257.945 130.63 257.956 130.483 257.953 130.344C257.957 130.2 257.955 130.057 257.945 129.917C257.936 129.777 257.929 129.64 257.925 129.508C257.928 129.37 257.941 129.233 257.964 129.098C257.984 128.976 258.041 128.897 258.133 128.859C258.231 128.823 258.335 128.814 258.444 128.832C258.579 128.855 258.681 128.915 258.751 129.013C258.821 129.104 258.869 129.214 258.893 129.343C258.924 129.474 258.933 129.621 258.918 129.783C258.912 129.941 258.896 130.096 258.87 130.25C258.844 130.405 258.816 130.552 258.786 130.692C258.757 130.826 258.735 130.934 258.721 131.018C258.684 131.236 258.627 131.481 258.548 131.751C258.47 132.022 258.364 132.298 258.231 132.579C258.106 132.855 257.958 133.124 257.789 133.386C257.626 133.649 257.439 133.879 257.228 134.074C257.024 134.265 256.799 134.408 256.551 134.505C256.31 134.604 256.052 134.629 255.776 134.583C255.487 134.535 255.244 134.425 255.049 134.253C254.854 134.075 254.699 133.861 254.582 133.61C254.473 133.354 254.392 133.073 254.338 132.767C254.283 132.461 254.252 132.159 254.242 131.86C254.24 131.562 254.248 131.277 254.268 131.003C254.295 130.723 254.325 130.484 254.358 130.285ZM259.328 131.001C259.338 130.943 259.351 130.886 259.367 130.829C259.384 130.766 259.406 130.713 259.433 130.672C259.461 130.624 259.496 130.587 259.54 130.561C259.591 130.537 259.654 130.531 259.731 130.544C259.796 130.554 259.858 130.618 259.917 130.733C259.985 130.844 260.047 130.983 260.105 131.151C260.164 131.313 260.216 131.49 260.263 131.683C260.316 131.876 260.359 132.055 260.391 132.219C260.43 132.377 260.46 132.514 260.48 132.63C260.501 132.746 260.513 132.807 260.519 132.815C260.64 132.604 260.774 132.376 260.921 132.13C261.068 131.884 261.234 131.661 261.419 131.461C261.612 131.256 261.824 131.093 262.056 130.974C262.293 130.855 262.563 130.821 262.865 130.872C263.019 130.898 263.159 130.948 263.285 131.022C263.419 131.09 263.529 131.181 263.616 131.295C263.71 131.403 263.778 131.527 263.821 131.666C263.863 131.805 263.871 131.958 263.843 132.125C263.819 132.266 263.745 132.356 263.619 132.395C263.5 132.434 263.37 132.442 263.229 132.418L263.133 132.402L262.788 131.918C262.775 131.916 262.766 131.911 262.761 131.904C262.748 131.902 262.735 131.9 262.722 131.897C262.717 131.89 262.708 131.885 262.695 131.883C262.47 131.845 262.283 131.88 262.133 131.987C261.991 132.088 261.872 132.227 261.776 132.402C261.682 132.571 261.608 132.757 261.554 132.959C261.508 133.156 261.471 133.338 261.443 133.505C261.421 133.633 261.412 133.767 261.415 133.906C261.419 134.039 261.426 134.172 261.437 134.306C261.448 134.433 261.456 134.566 261.459 134.706C261.463 134.838 261.453 134.975 261.429 135.116C261.384 135.386 261.217 135.497 260.928 135.448C260.768 135.421 260.615 135.31 260.469 135.114C260.325 134.911 260.188 134.664 260.059 134.372C259.937 134.08 259.824 133.764 259.723 133.424C259.623 133.077 259.54 132.743 259.476 132.422C259.411 132.101 259.363 131.812 259.334 131.556C259.31 131.302 259.309 131.116 259.328 131.001ZM265.492 135.749C265.607 135.696 265.744 135.626 265.903 135.541C266.07 135.45 266.239 135.353 266.408 135.249C266.577 135.146 266.738 135.034 266.89 134.914C267.042 134.795 267.164 134.676 267.256 134.56C267.356 134.438 267.416 134.319 267.435 134.204C267.454 134.088 267.413 133.982 267.31 133.886C267.105 133.851 266.878 133.823 266.631 133.801C266.385 133.773 266.14 133.739 265.896 133.698C265.653 133.65 265.419 133.588 265.195 133.511C264.976 133.434 264.786 133.33 264.623 133.197C264.461 133.064 264.341 132.895 264.263 132.691C264.192 132.481 264.182 132.228 264.232 131.933C264.29 131.586 264.406 131.286 264.581 131.031C264.763 130.771 264.981 130.554 265.235 130.378C265.49 130.197 265.766 130.048 266.063 129.933C266.367 129.813 266.666 129.718 266.962 129.648C267.121 129.721 267.262 129.828 267.384 129.967C267.506 130.106 267.606 130.255 267.685 130.414C267.616 130.547 267.508 130.641 267.36 130.696C267.219 130.751 267.057 130.793 266.874 130.822C266.697 130.852 266.51 130.883 266.313 130.916C266.116 130.949 265.932 131.007 265.759 131.09C265.594 131.168 265.446 131.285 265.314 131.441C265.183 131.591 265.095 131.804 265.049 132.08C265.014 132.286 265.04 132.445 265.127 132.559C265.213 132.672 265.337 132.762 265.497 132.829C265.659 132.889 265.846 132.934 266.059 132.963C266.273 132.985 266.491 133.005 266.712 133.023C266.94 133.041 267.16 133.068 267.372 133.104C267.585 133.133 267.77 133.191 267.927 133.276C268.086 133.356 268.203 133.465 268.279 133.603C268.361 133.742 268.382 133.93 268.342 134.168C268.325 134.271 268.267 134.396 268.17 134.545C268.079 134.695 267.96 134.853 267.813 135.02C267.674 135.181 267.512 135.339 267.327 135.493C267.15 135.648 266.965 135.785 266.773 135.905C266.589 136.019 266.405 136.11 266.222 136.179C266.046 136.242 265.888 136.261 265.747 136.237C265.612 136.215 265.53 136.152 265.501 136.048C265.479 135.945 265.476 135.845 265.492 135.749ZM241.518 142.385C241.538 142.269 241.577 142.114 241.636 141.919C241.695 141.725 241.77 141.516 241.86 141.294C241.958 141.066 242.069 140.837 242.193 140.607C242.324 140.378 242.464 140.177 242.611 140.004C242.76 139.824 242.919 139.686 243.087 139.588C243.256 139.485 243.434 139.449 243.62 139.48C243.627 139.481 243.633 139.485 243.638 139.493C243.644 139.494 243.654 139.495 243.667 139.498C243.679 139.506 243.694 139.512 243.713 139.515C243.732 139.525 243.761 139.543 243.803 139.57C243.851 139.598 243.893 139.628 243.927 139.66C243.968 139.687 244.003 139.716 244.031 139.747C244.066 139.773 244.086 139.792 244.09 139.806C244.089 139.813 244.091 139.823 244.095 139.837C244.093 139.85 244.091 139.863 244.089 139.875C244.094 139.883 244.096 139.89 244.095 139.896C244.057 140.121 243.953 140.331 243.781 140.527C243.61 140.722 243.424 140.922 243.225 141.127C243.032 141.332 242.847 141.552 242.669 141.786C242.491 142.02 242.377 142.285 242.327 142.58C242.261 142.978 242.256 143.34 242.313 143.667C242.372 143.987 242.469 144.294 242.604 144.587C242.747 144.875 242.924 145.159 243.135 145.439C243.352 145.719 243.586 146.016 243.837 146.329C243.835 146.342 243.835 146.362 243.837 146.388C243.84 146.409 243.84 146.425 243.838 146.438C243.818 146.56 243.758 146.639 243.66 146.676C243.562 146.705 243.459 146.711 243.35 146.693C243.061 146.644 242.809 146.536 242.593 146.368C242.384 146.194 242.205 145.986 242.054 145.742C241.91 145.5 241.79 145.233 241.694 144.939C241.605 144.641 241.54 144.339 241.499 144.035C241.464 143.732 241.447 143.439 241.449 143.155C241.457 142.866 241.481 142.61 241.518 142.385ZM248.224 143.144C248.228 143.119 248.232 143.073 248.237 143.008C248.248 142.937 248.258 142.863 248.264 142.785C248.272 142.7 248.281 142.626 248.292 142.562C248.304 142.491 248.312 142.443 248.316 142.417C248.11 142.581 247.934 142.709 247.786 142.803C247.639 142.891 247.497 142.953 247.358 142.989C247.228 143.02 247.093 143.034 246.955 143.03C246.818 143.021 246.654 142.999 246.461 142.967C246.275 142.936 246.11 142.895 245.967 142.844C245.831 142.789 245.707 142.718 245.596 142.634C245.491 142.55 245.39 142.444 245.293 142.315C245.202 142.188 245.112 142.038 245.022 141.864C245.028 141.832 245.035 141.77 245.043 141.679C245.058 141.59 245.075 141.493 245.092 141.391C245.109 141.288 245.121 141.194 245.129 141.11C245.144 141.02 245.154 140.959 245.16 140.927C245.214 140.606 245.303 140.307 245.429 140.031C245.561 139.756 245.729 139.524 245.932 139.333C246.143 139.138 246.391 139.001 246.675 138.923C246.966 138.84 247.294 138.829 247.66 138.891C248.007 138.949 248.294 139.066 248.522 139.243C248.75 139.42 248.925 139.634 249.048 139.886C249.177 140.139 249.265 140.421 249.312 140.733C249.366 141.039 249.39 141.35 249.383 141.665C249.384 141.976 249.364 142.286 249.326 142.596C249.293 142.908 249.256 143.186 249.215 143.43L249.185 143.613C249.158 143.694 249.114 143.818 249.053 143.986C248.991 144.154 248.92 144.344 248.838 144.555C248.764 144.76 248.684 144.981 248.598 145.217C248.514 145.447 248.43 145.668 248.349 145.878C248.274 146.09 248.205 146.28 248.144 146.448C248.083 146.616 248.039 146.738 248.014 146.812C247.88 146.981 247.729 147.095 247.561 147.152C247.394 147.203 247.21 147.212 247.011 147.179C247.071 146.826 247.155 146.483 247.263 146.152C247.379 145.815 247.498 145.481 247.619 145.152C247.74 144.822 247.855 144.492 247.964 144.16C248.079 143.83 248.165 143.491 248.224 143.144ZM245.995 140.968C245.973 141.096 245.958 141.226 245.949 141.356C245.948 141.481 245.962 141.596 245.991 141.7C246.027 141.798 246.088 141.888 246.173 141.968C246.266 142.043 246.399 142.095 246.573 142.124C246.733 142.151 246.915 142.112 247.117 142.008C247.327 141.898 247.525 141.763 247.71 141.602C247.897 141.436 248.058 141.261 248.194 141.08C248.33 140.898 248.408 140.746 248.429 140.624C248.444 140.534 248.417 140.437 248.349 140.333C248.287 140.23 248.207 140.138 248.108 140.055C248.011 139.966 247.905 139.889 247.791 139.824C247.683 139.759 247.594 139.721 247.523 139.709C247.279 139.668 247.067 139.672 246.887 139.721C246.708 139.764 246.56 139.841 246.442 139.954C246.324 140.066 246.228 140.208 246.153 140.38C246.084 140.554 246.031 140.749 245.995 140.968ZM253.27 147.061C252.998 147.187 252.76 147.302 252.558 147.407C252.363 147.506 252.175 147.587 251.993 147.649C251.811 147.711 251.62 147.748 251.419 147.761C251.226 147.774 250.991 147.758 250.715 147.712C250.117 147.611 249.701 147.38 249.465 147.016C249.23 146.647 249.165 146.148 249.271 145.518C249.312 145.274 249.386 145.026 249.495 144.774C249.603 144.521 249.74 144.277 249.905 144.04C250.078 143.799 250.27 143.577 250.482 143.375C250.695 143.166 250.926 142.991 251.175 142.848C251.423 142.704 251.678 142.602 251.939 142.54C252.208 142.473 252.48 142.463 252.757 142.509C253.211 142.632 253.555 142.808 253.787 143.038C254.02 143.262 254.179 143.53 254.266 143.842C254.353 144.147 254.393 144.48 254.385 144.842C254.378 145.197 254.356 145.563 254.319 145.94C254.289 146.318 254.265 146.697 254.247 147.077C254.23 147.457 254.265 147.816 254.354 148.154C254.235 148.352 254.13 148.486 254.039 148.557C253.953 148.635 253.87 148.637 253.79 148.564C253.709 148.492 253.627 148.333 253.543 148.087C253.465 147.843 253.374 147.501 253.27 147.061ZM250.086 145.675C250.025 146.041 250.047 146.322 250.153 146.518C250.266 146.709 250.499 146.834 250.852 146.893C251.115 146.937 251.373 146.934 251.626 146.884C251.886 146.829 252.119 146.736 252.326 146.606C252.534 146.469 252.712 146.294 252.86 146.081C253.008 145.869 253.105 145.621 253.153 145.338C253.172 145.223 253.202 145.063 253.243 144.858C253.285 144.648 253.308 144.437 253.31 144.226C253.312 144.015 253.281 143.828 253.216 143.666C253.152 143.496 253.03 143.397 252.85 143.366C252.516 143.31 252.194 143.345 251.882 143.471C251.571 143.591 251.291 143.765 251.042 143.994C250.792 144.222 250.583 144.488 250.413 144.789C250.245 145.084 250.136 145.38 250.086 145.675ZM255.368 144.532C255.395 144.371 255.441 144.25 255.508 144.169C255.581 144.089 255.707 144.064 255.887 144.094C255.906 144.097 255.941 144.107 255.991 144.122C256.049 144.131 256.084 144.137 256.097 144.139C256.109 144.346 256.117 144.572 256.122 144.817C256.135 145.057 256.153 145.301 256.177 145.549C256.202 145.797 256.233 146.044 256.271 146.288C256.316 146.533 256.38 146.758 256.465 146.964C256.601 146.861 256.708 146.731 256.788 146.572C256.867 146.414 256.934 146.254 256.987 146.091C257.042 145.922 257.092 145.762 257.137 145.611C257.19 145.455 257.261 145.328 257.35 145.231C257.44 145.127 257.557 145.061 257.7 145.032C257.85 145.005 258.042 145.037 258.278 145.129C258.547 145.175 258.754 145.262 258.897 145.392C259.042 145.515 259.159 145.663 259.248 145.837C259.345 146.005 259.434 146.185 259.514 146.377C259.602 146.563 259.721 146.738 259.872 146.902C259.924 146.825 259.989 146.73 260.068 146.618C260.147 146.499 260.24 146.38 260.346 146.259C260.459 146.133 260.576 146.01 260.695 145.892C260.821 145.768 260.948 145.66 261.076 145.569C261.204 145.472 261.332 145.398 261.46 145.347C261.588 145.289 261.707 145.269 261.816 145.288C262.079 145.332 262.293 145.454 262.458 145.653C262.623 145.846 262.753 146.079 262.845 146.352C262.946 146.619 263.015 146.915 263.053 147.238C263.092 147.555 263.114 147.859 263.118 148.15C263.122 148.441 263.113 148.707 263.093 148.948C263.08 149.184 263.065 149.353 263.047 149.455C263.033 149.539 263.003 149.6 262.957 149.638C262.911 149.677 262.857 149.704 262.795 149.72C262.734 149.729 262.668 149.732 262.596 149.726C262.531 149.722 262.469 149.715 262.411 149.705C262.398 149.703 262.379 149.7 262.353 149.695C262.329 149.685 262.301 149.673 262.27 149.661C262.245 149.651 262.212 149.635 262.169 149.615L262.026 146.63C262.03 146.611 262.01 146.571 261.967 146.511C261.925 146.445 261.893 146.403 261.869 146.386C261.85 146.383 261.835 146.377 261.823 146.368C261.81 146.366 261.8 146.364 261.794 146.363C261.789 146.356 261.783 146.352 261.776 146.35C261.641 146.328 261.504 146.361 261.364 146.449C261.23 146.539 261.097 146.659 260.967 146.809C260.836 146.958 260.708 147.128 260.584 147.319C260.459 147.509 260.345 147.701 260.24 147.895C260.136 148.082 260.04 148.257 259.953 148.421C259.874 148.579 259.81 148.701 259.763 148.785C259.735 148.794 259.682 148.798 259.603 148.798C259.525 148.791 259.473 148.786 259.447 148.782C259.267 148.751 259.139 148.667 259.064 148.529C258.989 148.384 258.935 148.214 258.902 148.017C258.876 147.821 258.858 147.61 258.85 147.384C258.849 147.153 258.832 146.939 258.799 146.742C258.773 146.546 258.715 146.378 258.626 146.238C258.545 146.092 258.408 146.003 258.216 145.971C258.145 145.959 258.066 146.018 257.978 146.148C257.89 146.279 257.802 146.449 257.714 146.659C257.627 146.862 257.54 147.085 257.453 147.328C257.367 147.564 257.29 147.789 257.221 148.002C257.16 148.209 257.11 148.386 257.073 148.531C257.035 148.677 257.016 148.75 257.016 148.75C257 148.767 256.971 148.785 256.928 148.804C256.886 148.817 256.841 148.832 256.792 148.851C256.749 148.87 256.704 148.882 256.657 148.887C256.616 148.894 256.586 148.895 256.567 148.892C256.387 148.862 256.227 148.753 256.087 148.564C255.948 148.369 255.83 148.131 255.732 147.851C255.641 147.565 255.564 147.255 255.501 146.921C255.445 146.588 255.404 146.264 255.377 145.949C255.351 145.635 255.336 145.352 255.332 145.1C255.334 144.85 255.346 144.66 255.368 144.532ZM264.447 149.789C264.491 149.526 264.587 149.288 264.735 149.075C264.889 148.864 265.05 148.653 265.217 148.443C265.392 148.228 265.558 148.005 265.716 147.774C265.875 147.537 265.979 147.271 266.028 146.975C266.073 146.712 266.073 146.471 266.031 146.253C265.988 146.034 265.916 145.834 265.815 145.652C265.72 145.471 265.603 145.3 265.465 145.138C265.328 144.976 265.183 144.816 265.031 144.659C264.887 144.496 264.743 144.33 264.6 144.161C264.463 143.993 264.342 143.807 264.237 143.605C264.268 143.544 264.301 143.5 264.339 143.473C264.383 143.448 264.431 143.433 264.485 143.429C264.538 143.424 264.591 143.427 264.642 143.435C264.694 143.444 264.742 143.452 264.787 143.459C265.198 143.528 265.546 143.696 265.831 143.962C266.117 144.227 266.341 144.545 266.503 144.916C266.673 145.281 266.782 145.669 266.832 146.08C266.889 146.486 266.888 146.865 266.829 147.219C266.805 147.36 266.762 147.537 266.7 147.751C266.639 147.959 266.558 148.183 266.459 148.424C266.366 148.659 266.257 148.895 266.132 149.131C266.007 149.361 265.871 149.566 265.722 149.746C265.573 149.926 265.41 150.067 265.235 150.169C265.065 150.273 264.888 150.309 264.702 150.278C264.586 150.258 264.51 150.199 264.474 150.101C264.439 149.996 264.43 149.892 264.447 149.789Z" fill="black"/>
<path d="M1.18556 75V74.9786L1.18374 74.9573L0.77721 70.2135C0.652131 68.7539 1.80315 67.5 3.26808 67.5H6.51283H13.5659C14.6345 67.5 15.3968 68.1961 15.4312 69.2095C15.5237 71.9352 15.5296 76.6245 15.4081 80.204C15.3644 81.4932 14.295 82.5 12.9829 82.5H8.22674H3.68556C2.30485 82.5 1.18556 81.3807 1.18556 80V75Z" stroke="black"/>
<path d="M7.17704 110.806L7.15674 110.804H7.13636H4C2.61929 110.804 1.5 109.685 1.5 108.304V105.043V99C1.5 97.6193 2.61929 96.5 4 96.5H12.5909H12.818C14.1459 96.5 15.2421 97.5381 15.3143 98.8641L15.4995 102.266L15.2693 108.842C15.2194 110.267 13.989 111.362 12.5675 111.246L7.17704 110.806Z" stroke="black"/>
<path d="M12.5081 125.841L12.5081 125.841H12.5217H12.6522C14.0329 125.841 15.1522 126.96 15.1522 128.341V131.477V131.487L15.1526 131.498L15.373 136.898C15.4309 138.318 14.2958 139.5 12.8751 139.5H6.95652H3.57572C2.23466 139.5 1.13248 138.442 1.07779 137.102L0.84741 131.457L0.847452 131.457L0.847107 131.45L0.673712 128.221C0.595405 126.763 1.77835 125.549 3.23815 125.588L12.5081 125.841Z" stroke="black"/>
<path d="M7.60342 79.9815C6.38566 79.3701 3.34099 76.6188 3.03641 76.3131C2.73183 76.0074 4.42112 74.508 5.03006 74.508C5.63899 74.508 7.43619 77.8288 8.04513 77.2174C8.65406 76.606 18.2302 64.3488 18.8391 64.0429C19.448 63.7371 21 65.1607 21 65.3079C20.6659 65.8774 8.82119 80.5929 7.60342 79.9815Z" fill="black"/>
<path d="M25 72.4852C29.5255 74.3235 42.7401 78 59.3942 78C80.2117 78 82.0219 69.9785 95.5985 72.4852C98.694 73.0568 100.99 73.6544 102.839 74.2364C109.103 76.2073 110.254 78 120.036 78C132.708 78 141.759 72.4852 149 72.4852" stroke="black"/>
<path d="M24.457 101.887C49.4694 106.35 44.1735 101.448 60.9691 101.074C81.9635 100.607 82.4316 104.459 96.8255 103.795C111.219 103.131 107.522 100.038 120.301 99.7536C133.08 99.4691 144.291 102.739 151.594 102.576" stroke="black"/>
<path d="M25 132.53C39.5655 131.466 40.3475 137.319 60.5034 135.722C74.1586 134.641 75.9793 128.805 103.29 134.371C109.589 136.463 118.94 135.722 128.779 135.722C141.524 135.722 149.717 132.512 157 132.512" stroke="black"/>
</svg>
