<svg width="400" height="159" viewBox="0 0 400 159" fill="none" xmlns="http://www.w3.org/2000/svg">
<rect x="244.547" y="11" width="50.1815" height="50.664" transform="rotate(2.8809 244.547 11)" fill="#C0E1FF"/>
<rect x="335" y="53.5967" width="50.1815" height="50.664" transform="rotate(-19.3135 335 53.5967)" fill="#C0E1FF"/>
<rect x="275.939" y="101" width="50.1815" height="50.664" transform="rotate(9.01534 275.939 101)" fill="#C0E1FF"/>
<path d="M59.3762 25.1568C56.151 25.3691 61.7937 40.2429 65.0181 47.6533L66.98 52.5811C108.712 54.6525 190.091 57.6294 193.615 51.7021C197.139 45.7748 193.812 31.6258 191.708 25.2923L152.398 22.702C149.543 23.7528 140.548 25.3372 127.41 23.2679C110.988 20.6813 63.4077 24.8915 59.3762 25.1568Z" fill="#D0DAFF"/>
<path d="M58.3408 42.7041C55.1163 35.2937 49.4736 20.4199 52.6989 20.2076C56.7304 19.9423 104.31 15.7321 120.733 18.3187C133.871 20.388 142.865 18.8036 145.72 17.7528L185.031 20.3431C187.135 26.6766 190.462 40.8255 186.938 46.7529C183.414 52.6802 99.0683 50.0192 57.3362 47.9478" stroke="black" stroke-width="2"/>
<path d="M99.0112 31.9688C98.9799 31.8594 98.9174 31.7852 98.8237 31.7461C98.7378 31.707 98.6401 31.6875 98.5307 31.6875C98.4292 31.6797 98.3276 31.6836 98.226 31.6992C98.1245 31.7148 98.0463 31.7227 97.9917 31.7227C97.8588 31.7148 97.6284 31.6992 97.3003 31.6758C96.9721 31.6523 96.6167 31.6289 96.2338 31.6055C95.8588 31.5742 95.5073 31.5469 95.1792 31.5234C94.851 31.4922 94.6206 31.4727 94.4878 31.4648C94.4878 31.4492 94.4838 31.4102 94.476 31.3477C94.4682 31.2852 94.4643 31.2422 94.4643 31.2188C94.4643 31.1094 94.4721 31.0117 94.4878 30.9258C94.5112 30.8398 94.5893 30.7734 94.7221 30.7266C95.4565 30.7422 96.1792 30.7383 96.8901 30.7148C97.6088 30.6914 98.3237 30.6602 99.0346 30.6211C99.7534 30.5742 100.468 30.5312 101.179 30.4922C101.898 30.4531 102.621 30.4336 103.347 30.4336C103.347 30.7305 103.277 30.9492 103.136 31.0898C102.996 31.2227 102.82 31.3125 102.609 31.3594C102.406 31.4062 102.179 31.4258 101.929 31.418C101.679 31.4102 101.437 31.4141 101.203 31.4297C100.976 31.4453 100.773 31.4922 100.593 31.5703C100.421 31.6406 100.308 31.7734 100.253 31.9688C100.246 32.0156 100.238 32.1055 100.23 32.2383C100.222 32.3711 100.214 32.5117 100.207 32.6602C100.207 32.8086 100.203 32.9492 100.195 33.082C100.195 33.207 100.195 33.2969 100.195 33.3516C100.195 33.7969 100.249 34.2383 100.359 34.6758C100.476 35.1055 100.601 35.5352 100.734 35.9648C100.874 36.3867 100.999 36.8125 101.109 37.2422C101.226 37.6641 101.285 38.0938 101.285 38.5312C101.285 38.8594 101.097 39.0234 100.722 39.0234C100.496 39.0234 100.292 38.8672 100.113 38.5547C99.9409 38.2422 99.7885 37.8438 99.6557 37.3594C99.5307 36.875 99.4253 36.3477 99.3393 35.7773C99.2612 35.207 99.1948 34.6602 99.1401 34.1367C99.0932 33.6133 99.0581 33.1523 99.0346 32.7539C99.019 32.3555 99.0112 32.0938 99.0112 31.9688ZM104.003 36.6211C104.003 36.1367 104.117 35.6875 104.343 35.2734C104.57 34.8516 104.867 34.4922 105.234 34.1953C105.609 33.8906 106.027 33.6523 106.488 33.4805C106.957 33.3086 107.429 33.2227 107.906 33.2227C108.171 33.2227 108.406 33.3086 108.609 33.4805C108.82 33.6523 108.996 33.8633 109.136 34.1133C109.277 34.3555 109.382 34.6133 109.453 34.8867C109.531 35.1602 109.57 35.3984 109.57 35.6016C109.57 36.0391 109.464 36.4648 109.253 36.8789C109.042 37.2852 108.769 37.6484 108.433 37.9688C108.097 38.2812 107.718 38.5352 107.296 38.7305C106.874 38.9258 106.453 39.0234 106.031 39.0234C105.656 39.0234 105.339 38.9609 105.082 38.8359C104.824 38.7031 104.617 38.5312 104.46 38.3203C104.304 38.1016 104.187 37.8477 104.109 37.5586C104.039 37.2617 104.003 36.9492 104.003 36.6211ZM104.999 36.7383C104.999 36.9414 105.015 37.1211 105.046 37.2773C105.085 37.4258 105.148 37.5547 105.234 37.6641C105.328 37.7734 105.449 37.8594 105.597 37.9219C105.746 37.9766 105.929 38.0039 106.148 38.0039C106.437 38.0039 106.726 37.9258 107.015 37.7695C107.304 37.6055 107.562 37.4023 107.789 37.1602C108.023 36.9102 108.21 36.6367 108.351 36.3398C108.492 36.043 108.562 35.7539 108.562 35.4727C108.562 35.3477 108.55 35.2109 108.527 35.0625C108.503 34.9141 108.464 34.7773 108.41 34.6523C108.355 34.5273 108.277 34.4219 108.175 34.3359C108.074 34.25 107.945 34.207 107.789 34.207C107.648 34.207 107.48 34.2539 107.285 34.3477C107.097 34.4414 106.898 34.5625 106.687 34.7109C106.484 34.8594 106.281 35.0273 106.078 35.2148C105.882 35.4023 105.703 35.5898 105.539 35.7773C105.374 35.9648 105.242 36.1445 105.14 36.3164C105.046 36.4883 104.999 36.6289 104.999 36.7383ZM115.171 37.6172C115.171 37.1641 115.285 36.7617 115.511 36.4102C115.738 36.0586 116.019 35.7539 116.355 35.4961C116.691 35.2305 117.054 35.0078 117.445 34.8281C117.835 34.6406 118.199 34.4883 118.535 34.3711C118.871 34.2461 119.152 34.1484 119.378 34.0781C119.605 34 119.718 33.9375 119.718 33.8906C119.718 33.6172 119.703 33.3516 119.671 33.0938C119.648 32.8281 119.621 32.5625 119.589 32.2969C119.558 32.0312 119.527 31.7695 119.496 31.5117C119.472 31.2461 119.46 30.9844 119.46 30.7266V29.9648C119.781 29.8477 120.007 29.8594 120.14 30C120.281 30.1406 120.304 30.3828 120.21 30.7266C120.242 30.8984 120.285 31.168 120.339 31.5352C120.394 31.9023 120.453 32.3164 120.515 32.7773C120.585 33.2383 120.656 33.7227 120.726 34.2305C120.804 34.7383 120.874 35.2266 120.937 35.6953C121.007 36.1562 121.066 36.5703 121.113 36.9375C121.16 37.2969 121.195 37.5664 121.218 37.7461C121.226 37.7852 121.234 37.8633 121.242 37.9805C121.249 38.0898 121.253 38.2109 121.253 38.3438C121.261 38.4688 121.265 38.5859 121.265 38.6953C121.273 38.8047 121.277 38.8828 121.277 38.9297C120.98 38.9297 120.777 38.918 120.667 38.8945C120.566 38.8711 120.499 38.8242 120.468 38.7539C120.445 38.6836 120.433 38.582 120.433 38.4492C120.433 38.3164 120.394 38.1328 120.316 37.8984C120.027 38.125 119.753 38.3125 119.496 38.4609C119.238 38.6094 118.98 38.7305 118.722 38.8242C118.464 38.9102 118.203 38.9688 117.937 39C117.679 39.0391 117.402 39.0586 117.105 39.0586C116.855 39.0586 116.613 39.0391 116.378 39C116.152 38.9531 115.949 38.875 115.769 38.7656C115.589 38.6562 115.445 38.5078 115.335 38.3203C115.226 38.1328 115.171 37.8984 115.171 37.6172ZM116.191 37.3711C116.191 37.4961 116.218 37.5977 116.273 37.6758C116.328 37.7539 116.398 37.8203 116.484 37.875C116.57 37.9297 116.66 37.9688 116.753 37.9922C116.855 38.0078 116.953 38.0156 117.046 38.0156C117.32 38.0156 117.613 37.9648 117.925 37.8633C118.246 37.7539 118.539 37.6055 118.804 37.418C119.078 37.2227 119.3 36.9922 119.472 36.7266C119.652 36.4609 119.742 36.1719 119.742 35.8594C119.742 35.6172 119.699 35.4492 119.613 35.3555C119.527 35.2617 119.363 35.2148 119.121 35.2148C118.871 35.2148 118.578 35.2734 118.242 35.3906C117.914 35.5078 117.593 35.6641 117.281 35.8594C116.976 36.0547 116.718 36.2852 116.507 36.5508C116.296 36.8086 116.191 37.082 116.191 37.3711ZM121.968 36.6211C121.968 36.1367 122.082 35.6875 122.308 35.2734C122.535 34.8516 122.832 34.4922 123.199 34.1953C123.574 33.8906 123.992 33.6523 124.453 33.4805C124.921 33.3086 125.394 33.2227 125.871 33.2227C126.136 33.2227 126.371 33.3086 126.574 33.4805C126.785 33.6523 126.96 33.8633 127.101 34.1133C127.242 34.3555 127.347 34.6133 127.417 34.8867C127.496 35.1602 127.535 35.3984 127.535 35.6016C127.535 36.0391 127.429 36.4648 127.218 36.8789C127.007 37.2852 126.734 37.6484 126.398 37.9688C126.062 38.2812 125.683 38.5352 125.261 38.7305C124.839 38.9258 124.417 39.0234 123.996 39.0234C123.621 39.0234 123.304 38.9609 123.046 38.8359C122.789 38.7031 122.582 38.5312 122.425 38.3203C122.269 38.1016 122.152 37.8477 122.074 37.5586C122.003 37.2617 121.968 36.9492 121.968 36.6211ZM122.964 36.7383C122.964 36.9414 122.98 37.1211 123.011 37.2773C123.05 37.4258 123.113 37.5547 123.199 37.6641C123.292 37.7734 123.414 37.8594 123.562 37.9219C123.71 37.9766 123.894 38.0039 124.113 38.0039C124.402 38.0039 124.691 37.9258 124.98 37.7695C125.269 37.6055 125.527 37.4023 125.753 37.1602C125.988 36.9102 126.175 36.6367 126.316 36.3398C126.457 36.043 126.527 35.7539 126.527 35.4727C126.527 35.3477 126.515 35.2109 126.492 35.0625C126.468 34.9141 126.429 34.7773 126.374 34.6523C126.32 34.5273 126.242 34.4219 126.14 34.3359C126.039 34.25 125.91 34.207 125.753 34.207C125.613 34.207 125.445 34.2539 125.249 34.3477C125.062 34.4414 124.863 34.5625 124.652 34.7109C124.449 34.8594 124.246 35.0273 124.042 35.2148C123.847 35.4023 123.667 35.5898 123.503 35.7773C123.339 35.9648 123.207 36.1445 123.105 36.3164C123.011 36.4883 122.964 36.6289 122.964 36.7383ZM133.675 32.3672C133.675 32.1406 133.66 31.9219 133.628 31.7109C133.597 31.4922 133.589 31.3008 133.605 31.1367C133.621 30.9648 133.679 30.8281 133.781 30.7266C133.89 30.625 134.085 30.5742 134.367 30.5742C134.453 30.7539 134.535 31.0273 134.613 31.3945C134.699 31.7617 134.781 32.1836 134.859 32.6602C134.937 33.1367 135.011 33.6562 135.082 34.2188C135.152 34.7734 135.214 35.332 135.269 35.8945C135.332 36.457 135.382 37.0117 135.421 37.5586C135.468 38.0977 135.503 38.5898 135.527 39.0352C135.269 39.207 135.062 39.2188 134.906 39.0703C134.749 38.9219 134.621 38.6719 134.519 38.3203C134.417 37.9609 134.339 37.5273 134.285 37.0195C134.23 36.5039 134.175 35.9727 134.121 35.4258C134.074 34.8711 134.015 34.3281 133.945 33.7969C133.874 33.2578 133.785 32.7812 133.675 32.3672ZM136.628 34.6055C136.628 34.5586 136.628 34.4844 136.628 34.3828C136.636 34.2734 136.64 34.1602 136.64 34.043C136.648 33.9258 136.652 33.8125 136.652 33.7031C136.66 33.5938 136.664 33.5156 136.664 33.4688C136.749 33.3438 136.859 33.2422 136.992 33.1641C137.132 33.0859 137.273 33.0234 137.414 32.9766C137.437 33.3984 137.503 33.8477 137.613 34.3242C137.722 34.8008 137.839 35.2812 137.964 35.7656C138.089 36.2422 138.199 36.7148 138.292 37.1836C138.394 37.6523 138.445 38.0898 138.445 38.4961C138.445 38.8477 138.265 39.0234 137.906 39.0234C137.687 39.0234 137.503 38.9336 137.355 38.7539C137.207 38.5742 137.085 38.3477 136.992 38.0742C136.906 37.793 136.835 37.4844 136.781 37.1484C136.726 36.8047 136.687 36.4688 136.664 36.1406C136.648 35.8125 136.636 35.5117 136.628 35.2383C136.628 34.9648 136.628 34.7539 136.628 34.6055ZM136.792 30.2109C136.941 30.2734 137.066 30.375 137.167 30.5156C137.269 30.6562 137.312 30.7852 137.296 30.9023C137.289 31.0117 137.203 31.0898 137.039 31.1367C136.874 31.1758 136.601 31.1289 136.218 30.9961C136.218 30.7852 136.257 30.6016 136.335 30.4453C136.421 30.2891 136.574 30.2109 136.792 30.2109ZM141.152 38.4727C141.277 38.3867 141.425 38.2773 141.597 38.1445C141.777 38.0039 141.957 37.8555 142.136 37.6992C142.316 37.543 142.484 37.3789 142.64 37.207C142.796 37.0352 142.917 36.8711 143.003 36.7148C143.097 36.5508 143.144 36.3984 143.144 36.2578C143.144 36.1172 143.074 36 142.933 35.9062C142.683 35.9062 142.41 35.918 142.113 35.9414C141.816 35.957 141.519 35.9648 141.222 35.9648C140.925 35.957 140.636 35.9297 140.355 35.8828C140.082 35.8359 139.835 35.75 139.617 35.625C139.398 35.5 139.222 35.3242 139.089 35.0977C138.964 34.8633 138.902 34.5664 138.902 34.207C138.902 33.7852 138.98 33.4062 139.136 33.0703C139.3 32.7266 139.515 32.4258 139.781 32.168C140.046 31.9023 140.343 31.6719 140.671 31.4766C141.007 31.2734 141.343 31.1016 141.679 30.9609C141.882 31.0156 142.07 31.1133 142.242 31.2539C142.414 31.3945 142.562 31.5508 142.687 31.7227C142.632 31.8945 142.523 32.0273 142.359 32.1211C142.203 32.2148 142.019 32.2969 141.808 32.3672C141.605 32.4375 141.39 32.5117 141.164 32.5898C140.937 32.668 140.73 32.7734 140.542 32.9062C140.363 33.0312 140.21 33.1992 140.085 33.4102C139.96 33.6133 139.898 33.8828 139.898 34.2188C139.898 34.4688 139.96 34.6523 140.085 34.7695C140.21 34.8867 140.374 34.9688 140.578 35.0156C140.781 35.0547 141.011 35.0703 141.269 35.0625C141.527 35.0469 141.789 35.0273 142.054 35.0039C142.328 34.9805 142.593 34.9688 142.851 34.9688C143.109 34.9609 143.339 34.9922 143.542 35.0625C143.746 35.125 143.906 35.2305 144.023 35.3789C144.148 35.5273 144.21 35.7461 144.21 36.0352C144.21 36.1602 144.167 36.3203 144.082 36.5156C144.003 36.7109 143.894 36.9219 143.753 37.1484C143.621 37.3672 143.46 37.5859 143.273 37.8047C143.093 38.0234 142.902 38.2227 142.699 38.4023C142.503 38.5742 142.304 38.7188 142.101 38.8359C141.906 38.9453 141.722 39 141.55 39C141.386 39 141.277 38.9414 141.222 38.8242C141.175 38.707 141.152 38.5898 141.152 38.4727ZM144.421 33.0938C144.421 33.0703 144.425 33.0508 144.433 33.0352C144.433 33.0195 144.437 33 144.445 32.9766C144.476 32.9375 144.523 32.8867 144.585 32.8242C144.648 32.7617 144.687 32.7305 144.703 32.7305H147.058C147.058 32.6445 147.046 32.5078 147.023 32.3203C146.999 32.1328 146.976 31.9258 146.953 31.6992C146.937 31.4727 146.933 31.2383 146.941 30.9961C146.949 30.7461 146.98 30.5234 147.035 30.3281C147.097 30.125 147.191 29.9609 147.316 29.8359C147.449 29.7031 147.632 29.6367 147.867 29.6367C147.867 30.4258 147.921 31.0586 148.031 31.5352C148.14 32.0117 148.285 32.3789 148.464 32.6367C148.652 32.8945 148.863 33.0625 149.097 33.1406C149.332 33.2188 149.57 33.2539 149.812 33.2461C150.062 33.2305 150.304 33.1914 150.539 33.1289C150.773 33.0664 150.98 33.0234 151.16 33C151.347 32.9766 151.496 32.9961 151.605 33.0586C151.714 33.1133 151.769 33.25 151.769 33.4688C151.769 33.6328 151.73 33.75 151.652 33.8203C151.582 33.8906 151.441 33.9453 151.23 33.9844C151.167 33.9922 151.062 34.0078 150.914 34.0312C150.773 34.0469 150.613 34.0625 150.433 34.0781C150.253 34.0938 150.062 34.1133 149.859 34.1367C149.656 34.1523 149.464 34.168 149.285 34.1836C149.105 34.1992 148.941 34.2109 148.792 34.2188C148.644 34.2188 148.535 34.2188 148.464 34.2188C148.464 34.2578 148.46 34.3242 148.453 34.418C148.445 34.5117 148.441 34.5742 148.441 34.6055C148.441 34.9492 148.496 35.2852 148.605 35.6133C148.714 35.9336 148.832 36.2539 148.957 36.5742C149.089 36.8945 149.21 37.2148 149.32 37.5352C149.429 37.8555 149.484 38.1875 149.484 38.5312C149.484 38.5938 149.476 38.6602 149.46 38.7305C149.453 38.793 149.429 38.8516 149.39 38.9062C149.359 38.9531 149.308 38.9883 149.238 39.0117C149.175 39.043 149.085 39.0391 148.968 39C148.671 38.9219 148.449 38.7539 148.3 38.4961C148.16 38.2383 148.054 37.9336 147.984 37.582C147.914 37.2227 147.867 36.8438 147.843 36.4453C147.82 36.0469 147.781 35.6758 147.726 35.332C147.679 34.9805 147.601 34.6836 147.492 34.4414C147.382 34.1914 147.207 34.0391 146.964 33.9844L144.703 33.4688C144.671 33.4688 144.624 33.4375 144.562 33.375C144.499 33.3047 144.46 33.2539 144.445 33.2227C144.437 33.207 144.433 33.1875 144.433 33.1641C144.425 33.1484 144.421 33.125 144.421 33.0938Z" fill="black"/>
<path d="M258.934 29.7994C258.95 29.4716 259.037 29.1317 259.195 28.7795C259.36 28.4276 259.571 28.1132 259.827 27.8361C260.083 27.5512 260.372 27.3187 260.693 27.1386C261.022 26.9589 261.363 26.8775 261.714 26.8944C261.893 26.903 262.071 26.9429 262.248 27.0139C262.424 27.085 262.58 27.1824 262.715 27.3062C262.857 27.4304 262.968 27.5765 263.046 27.7445C263.131 27.9129 263.169 28.0985 263.16 28.3014C263.019 28.2947 262.891 28.2729 262.776 28.236C262.668 28.1996 262.56 28.1592 262.453 28.1149C262.346 28.0628 262.239 28.0186 262.131 27.9821C262.031 27.946 261.918 27.925 261.794 27.9189C261.474 27.9036 261.208 27.9729 260.998 28.127C260.795 28.2737 260.629 28.4652 260.501 28.7015C260.372 28.9378 260.277 29.1952 260.217 29.4739C260.165 29.7452 260.133 30.0017 260.121 30.2436C260.12 30.2827 260.116 30.3568 260.111 30.466C260.113 30.5757 260.112 30.6929 260.106 30.8178C260.108 30.9352 260.106 31.0485 260.101 31.1578C260.103 31.2674 260.108 31.3419 260.114 31.3813C260.19 31.5727 260.265 31.721 260.339 31.8262C260.42 31.9318 260.506 32.0141 260.597 32.0733C260.688 32.1246 260.788 32.1607 260.896 32.1815C261.005 32.1946 261.134 32.2047 261.282 32.2118C261.485 32.2216 261.662 32.1988 261.813 32.1435C261.972 32.0886 262.12 32.0214 262.257 31.942C262.394 31.8625 262.523 31.7749 262.645 31.679C262.768 31.5754 262.893 31.4837 263.022 31.4039C263.159 31.3166 263.303 31.2492 263.454 31.2017C263.613 31.1468 263.79 31.124 263.985 31.1334C263.967 31.5158 263.881 31.8519 263.726 32.1417C263.579 32.4318 263.375 32.6762 263.116 32.8749C262.864 33.074 262.567 33.2239 262.226 33.3249C261.893 33.4183 261.531 33.4557 261.141 33.4369C260.774 33.4193 260.449 33.2785 260.164 33.0145C259.887 32.7509 259.652 32.4346 259.459 32.0655C259.274 31.689 259.136 31.2952 259.046 30.8841C258.957 30.4731 258.919 30.1115 258.934 29.7994ZM269.63 32.3318C269.323 32.5204 269.057 32.6914 268.831 32.8448C268.613 32.9907 268.399 33.1134 268.191 33.2129C267.983 33.3124 267.761 33.3838 267.524 33.4272C267.295 33.4709 267.013 33.4847 266.677 33.4686C265.951 33.4337 265.422 33.2166 265.089 32.8173C264.757 32.4103 264.609 31.8244 264.646 31.0596C264.66 30.7631 264.714 30.4567 264.808 30.1405C264.901 29.8243 265.029 29.5137 265.193 29.2087C265.364 28.8963 265.562 28.6047 265.786 28.3339C266.011 28.0553 266.261 27.8131 266.537 27.6074C266.813 27.4017 267.102 27.2435 267.404 27.1329C267.715 27.0149 268.038 26.9639 268.374 26.9801C268.933 27.0617 269.367 27.2234 269.676 27.4651C269.986 27.699 270.214 27.9954 270.361 28.3545C270.508 28.7057 270.603 29.0974 270.644 29.5296C270.687 29.954 270.712 30.3933 270.722 30.8474C270.739 31.3018 270.764 31.7567 270.797 32.2119C270.83 32.6672 270.923 33.0901 271.076 33.4807C270.962 33.7333 270.856 33.9081 270.758 34.0051C270.667 34.1102 270.568 34.125 270.462 34.0495C270.356 33.974 270.236 33.7962 270.101 33.5159C269.973 33.236 269.816 32.8413 269.63 32.3318ZM265.64 31.1309C265.618 31.5757 265.685 31.9074 265.838 32.1259C266 32.3371 266.296 32.453 266.725 32.4736C267.045 32.489 267.352 32.449 267.646 32.3537C267.948 32.2509 268.213 32.1072 268.441 31.9226C268.669 31.7302 268.856 31.4968 269.003 31.2222C269.149 30.9477 269.23 30.6387 269.247 30.2954C269.253 30.1549 269.267 29.96 269.286 29.7107C269.307 29.4535 269.303 29.1992 269.276 28.9476C269.249 28.696 269.185 28.4778 269.085 28.2931C268.985 28.1006 268.825 27.999 268.607 27.9885C268.201 27.969 267.821 28.0564 267.468 28.2505C267.115 28.4369 266.806 28.6841 266.541 28.992C266.275 29.2999 266.063 29.6456 265.904 30.029C265.745 30.4046 265.657 30.7719 265.64 31.1309ZM272.392 27.3376C272.403 27.1113 272.398 26.8921 272.377 26.6799C272.356 26.4599 272.358 26.2683 272.381 26.1052C272.405 25.9343 272.47 25.8005 272.577 25.704C272.691 25.6078 272.888 25.5664 273.169 25.5799C273.246 25.7636 273.315 26.0406 273.376 26.4111C273.444 26.782 273.505 27.2074 273.561 27.6871C273.616 28.1669 273.665 28.6894 273.708 29.2546C273.752 29.812 273.787 30.373 273.815 30.9375C273.85 31.5023 273.874 32.0588 273.887 32.6069C273.908 33.1476 273.919 33.6409 273.921 34.0869C273.656 34.2461 273.448 34.2479 273.299 34.0921C273.15 33.9364 273.034 33.6805 272.949 33.3244C272.865 32.9606 272.808 32.5237 272.778 32.0139C272.748 31.4962 272.719 30.963 272.69 30.4141C272.67 29.8578 272.638 29.3126 272.593 28.7786C272.549 28.2368 272.482 27.7565 272.392 27.3376ZM275.131 27.4694C275.142 27.2431 275.137 27.0238 275.116 26.8116C275.095 26.5916 275.097 26.4001 275.12 26.2369C275.144 26.066 275.209 25.9323 275.316 25.8357C275.43 25.7395 275.627 25.6982 275.908 25.7117C275.985 25.8953 276.054 26.1724 276.115 26.5429C276.183 26.9138 276.244 27.3391 276.3 27.8189C276.355 28.2986 276.404 28.8211 276.447 29.3864C276.491 29.9438 276.526 30.5047 276.554 31.0692C276.589 31.6341 276.613 32.1906 276.626 32.7387C276.647 33.2794 276.658 33.7727 276.66 34.2186C276.395 34.3779 276.187 34.3796 276.038 34.2239C275.889 34.0681 275.773 33.8122 275.688 33.4562C275.604 33.0923 275.547 32.6555 275.517 32.1456C275.487 31.628 275.458 31.0947 275.429 30.5458C275.409 29.9895 275.377 29.4444 275.332 28.9104C275.288 28.3685 275.221 27.8882 275.131 27.4694ZM253.278 42.1474C253.287 41.9523 253.326 41.8016 253.394 41.6954C253.469 41.5895 253.616 41.5418 253.835 41.5523C253.858 41.5534 253.901 41.5594 253.963 41.5702C254.033 41.5736 254.076 41.5757 254.091 41.5764C254.134 41.8209 254.176 42.0889 254.217 42.3802C254.266 42.6642 254.322 42.9524 254.387 43.2449C254.451 43.5373 254.523 43.8263 254.603 44.1117C254.691 44.3975 254.8 44.657 254.929 44.89C255.077 44.7485 255.187 44.5778 255.259 44.3779C255.331 44.178 255.388 43.9774 255.429 43.776C255.47 43.5668 255.507 43.3691 255.539 43.183C255.58 42.9894 255.646 42.8283 255.739 42.6998C255.831 42.5635 255.961 42.468 256.128 42.4135C256.302 42.3593 256.537 42.3706 256.83 42.4473C257.158 42.463 257.416 42.538 257.605 42.6723C257.795 42.7987 257.955 42.9589 258.087 43.153C258.226 43.3396 258.357 43.5414 258.48 43.7585C258.611 43.9682 258.777 44.16 258.98 44.334C259.032 44.2348 259.096 44.1128 259.174 43.9679C259.252 43.8152 259.345 43.6593 259.454 43.5003C259.572 43.3339 259.693 43.1716 259.818 43.0133C259.951 42.8477 260.087 42.7017 260.226 42.5754C260.366 42.4413 260.508 42.3348 260.652 42.2557C260.797 42.1688 260.936 42.1285 261.069 42.1349C261.389 42.1503 261.661 42.2651 261.885 42.4792C262.11 42.6856 262.297 42.9449 262.446 43.2571C262.604 43.5619 262.728 43.9042 262.819 44.284C262.911 44.656 262.979 45.0152 263.025 45.3616C263.071 45.7079 263.099 46.026 263.109 46.3159C263.126 46.5983 263.132 46.8019 263.126 46.9268C263.121 47.0282 263.094 47.1051 263.045 47.1575C262.995 47.2099 262.935 47.25 262.863 47.2778C262.791 47.2979 262.713 47.3097 262.626 47.3134C262.548 47.3174 262.474 47.3178 262.404 47.3144C262.388 47.3136 262.364 47.3125 262.333 47.311C262.302 47.3017 262.268 47.2922 262.229 47.2825C262.198 47.2732 262.156 47.2595 262.102 47.2412L261.509 43.7048C261.511 43.6814 261.481 43.6369 261.422 43.5715C261.363 43.4983 261.318 43.4531 261.288 43.436C261.264 43.4349 261.245 43.43 261.23 43.4215C261.214 43.4207 261.203 43.4202 261.195 43.4198C261.187 43.4116 261.18 43.4073 261.172 43.407C261.008 43.3991 260.849 43.4579 260.694 43.5834C260.547 43.7093 260.406 43.8707 260.272 44.0676C260.137 44.2645 260.009 44.4852 259.888 44.7296C259.767 44.9741 259.657 45.2191 259.559 45.4647C259.462 45.7025 259.373 45.925 259.293 46.1323C259.22 46.3322 259.162 46.4858 259.118 46.5932C259.086 46.6073 259.023 46.6199 258.928 46.631C258.834 46.6343 258.772 46.6352 258.741 46.6337C258.522 46.6232 258.358 46.541 258.248 46.3871C258.138 46.2254 258.05 46.0295 257.983 45.7995C257.924 45.5698 257.873 45.321 257.831 45.0531C257.797 44.7777 257.747 44.525 257.68 44.2949C257.62 44.0652 257.528 43.8731 257.403 43.7184C257.285 43.5563 257.109 43.4697 256.875 43.4584C256.79 43.4543 256.703 43.5362 256.617 43.7041C256.531 43.872 256.45 44.0872 256.375 44.3495C256.3 44.604 256.228 44.8821 256.159 45.1838C256.09 45.4777 256.03 45.7564 255.978 46.0198C255.934 46.2758 255.9 46.4932 255.876 46.6719C255.852 46.8507 255.84 46.94 255.84 46.94C255.823 46.9627 255.79 46.9885 255.742 47.0175C255.694 47.0386 255.642 47.0635 255.586 47.0921C255.538 47.121 255.486 47.142 255.43 47.155C255.383 47.1683 255.347 47.1745 255.324 47.1733C255.105 47.1628 254.899 47.0551 254.706 46.8503C254.513 46.6377 254.338 46.3711 254.181 46.0507C254.033 45.7229 253.898 45.3644 253.775 44.9753C253.661 44.5866 253.566 44.2065 253.49 43.8353C253.414 43.464 253.356 43.1288 253.316 42.8296C253.283 42.5309 253.27 42.3034 253.278 42.1474ZM263.69 45.1941C263.714 44.7103 263.848 44.267 264.095 43.8643C264.341 43.4538 264.655 43.1091 265.036 42.8302C265.425 42.5439 265.854 42.326 266.323 42.1764C266.799 42.0273 267.276 41.9642 267.752 41.9871C268.017 41.9998 268.247 42.0969 268.441 42.2784C268.644 42.4602 268.809 42.6793 268.938 42.9358C269.067 43.1844 269.16 43.447 269.217 43.7235C269.282 44.0004 269.309 44.2403 269.299 44.4432C269.278 44.8802 269.153 45.3004 268.922 45.7038C268.692 46.0995 268.401 46.4492 268.05 46.753C267.7 47.049 267.309 47.2844 266.878 47.4592C266.448 47.6341 266.021 47.7113 265.6 47.6911C265.225 47.673 264.912 47.5954 264.661 47.4582C264.41 47.3131 264.211 47.1315 264.065 46.9133C263.92 46.6873 263.815 46.4281 263.751 46.1356C263.695 45.8357 263.675 45.5218 263.69 45.1941ZM264.68 45.359C264.67 45.5619 264.677 45.7421 264.701 45.8997C264.733 46.0498 264.789 46.1816 264.869 46.295C264.958 46.4087 265.075 46.5004 265.22 46.5699C265.366 46.6317 265.548 46.6678 265.766 46.6783C266.055 46.6922 266.347 46.6281 266.644 46.4859C266.94 46.3359 267.207 46.1454 267.445 45.9144C267.691 45.6759 267.892 45.4118 268.047 45.122C268.201 44.8323 268.285 44.5469 268.299 44.266C268.305 44.1411 268.3 44.004 268.284 43.8546C268.267 43.7052 268.235 43.5668 268.186 43.4393C268.138 43.3118 268.065 43.2027 267.967 43.112C267.87 43.0213 267.743 42.9722 267.587 42.9647C267.447 42.9579 267.277 42.9967 267.077 43.0809C266.885 43.1656 266.681 43.2769 266.463 43.4151C266.253 43.5536 266.042 43.7116 265.83 43.8891C265.626 44.067 265.437 44.2457 265.264 44.4251C265.092 44.6045 264.95 44.7776 264.841 44.9444C264.739 45.1115 264.685 45.2497 264.68 45.359ZM269.572 42.9311C269.581 42.736 269.62 42.5853 269.687 42.4791C269.763 42.3732 269.91 42.3255 270.128 42.336C270.152 42.3371 270.194 42.3431 270.256 42.3539C270.327 42.3573 270.37 42.3594 270.385 42.3601C270.428 42.6046 270.47 42.8726 270.511 43.1639C270.56 43.4479 270.616 43.7361 270.68 44.0286C270.744 44.321 270.817 44.61 270.897 44.8954C270.985 45.1812 271.093 45.4407 271.223 45.6737C271.371 45.5322 271.48 45.3615 271.553 45.1616C271.625 44.9617 271.681 44.7611 271.722 44.5597C271.764 44.3505 271.801 44.1528 271.833 43.9667C271.874 43.7731 271.94 43.612 272.032 43.4835C272.125 43.3472 272.255 43.2517 272.421 43.1972C272.596 43.143 272.83 43.1543 273.124 43.231C273.452 43.2467 273.71 43.3217 273.899 43.456C274.088 43.5824 274.249 43.7426 274.38 43.9367C274.52 44.1233 274.651 44.3251 274.774 44.5422C274.904 44.7519 275.071 44.9437 275.274 45.1177C275.326 45.0185 275.39 44.8965 275.468 44.7516C275.545 44.5989 275.639 44.443 275.748 44.284C275.866 44.1176 275.987 43.9553 276.112 43.797C276.245 43.6314 276.381 43.4854 276.52 43.3591C276.659 43.225 276.801 43.1185 276.946 43.0394C277.091 42.9525 277.23 42.9122 277.362 42.9186C277.682 42.934 277.955 43.0488 278.179 43.2629C278.404 43.4693 278.591 43.7286 278.74 44.0408C278.897 44.3456 279.022 44.6879 279.113 45.0677C279.204 45.4397 279.273 45.7989 279.319 46.1453C279.365 46.4916 279.393 46.8097 279.402 47.0996C279.42 47.382 279.426 47.5856 279.42 47.7105C279.415 47.8119 279.388 47.8888 279.338 47.9412C279.289 47.9936 279.228 48.0337 279.156 48.0615C279.085 48.0816 279.006 48.0934 278.92 48.0971C278.842 48.1011 278.767 48.1015 278.697 48.0981C278.682 48.0973 278.658 48.0962 278.627 48.0947C278.596 48.0854 278.561 48.0759 278.523 48.0662C278.492 48.0569 278.45 48.0432 278.396 48.0249L277.803 44.4885C277.804 44.4651 277.775 44.4206 277.716 44.3552C277.657 44.282 277.612 44.2368 277.581 44.2197C277.558 44.2186 277.539 44.2137 277.523 44.2052C277.508 44.2044 277.496 44.2039 277.488 44.2035C277.481 44.1953 277.473 44.191 277.466 44.1907C277.302 44.1828 277.142 44.2416 276.988 44.3671C276.841 44.493 276.7 44.6544 276.566 44.8513C276.431 45.0482 276.303 45.2689 276.182 45.5133C276.06 45.7578 275.951 46.0028 275.853 46.2484C275.756 46.4862 275.667 46.7087 275.586 46.916C275.514 47.1159 275.456 47.2695 275.412 47.3769C275.38 47.391 275.316 47.4036 275.222 47.4147C275.128 47.418 275.065 47.4189 275.034 47.4174C274.816 47.4069 274.652 47.3247 274.542 47.1708C274.432 47.0091 274.344 46.8132 274.277 46.5832C274.217 46.3535 274.167 46.1047 274.125 45.8368C274.091 45.5614 274.041 45.3087 273.974 45.0786C273.914 44.8489 273.822 44.6568 273.696 44.5021C273.579 44.34 273.403 44.2534 273.169 44.2421C273.083 44.238 272.997 44.3199 272.911 44.4878C272.825 44.6557 272.744 44.8709 272.669 45.1332C272.594 45.3877 272.522 45.6658 272.452 45.9675C272.384 46.2614 272.323 46.5401 272.271 46.8035C272.228 47.0595 272.194 47.2769 272.17 47.4556C272.145 47.6344 272.133 47.7237 272.133 47.7237C272.117 47.7464 272.084 47.7722 272.036 47.8012C271.988 47.8223 271.936 47.8472 271.88 47.8758C271.831 47.9047 271.78 47.9257 271.724 47.9387C271.677 47.952 271.641 47.9582 271.618 47.957C271.399 47.9465 271.193 47.8388 271 47.634C270.807 47.4214 270.632 47.1548 270.475 46.8344C270.326 46.5066 270.191 46.1481 270.069 45.759C269.955 45.3703 269.86 44.9902 269.784 44.619C269.708 44.2477 269.65 43.9125 269.609 43.6133C269.577 43.3146 269.564 43.0871 269.572 42.9311ZM280.82 47.3789C280.922 47.3838 281.018 47.4197 281.108 47.4867C281.207 47.554 281.265 47.635 281.284 47.7298C281.311 47.8171 281.283 47.9135 281.2 48.019C281.117 48.1245 280.944 48.2179 280.682 48.2992C280.473 48.2578 280.323 48.1998 280.233 48.125C280.151 48.0429 280.104 47.9624 280.092 47.8836C280.088 47.7974 280.112 47.7164 280.162 47.6406C280.221 47.5574 280.287 47.4902 280.36 47.4389C280.441 47.3803 280.525 47.3452 280.611 47.3337C280.698 47.3144 280.768 47.3295 280.82 47.3789ZM280.316 39.5645C280.536 39.3795 280.702 39.3445 280.814 39.4593C280.926 39.5742 281.002 39.7851 281.042 40.0921C281.089 40.3994 281.107 40.7679 281.094 41.1975C281.082 41.6192 281.065 42.0525 281.043 42.4973C281.03 42.9425 281.017 43.3642 281.006 43.7626C281.002 44.1613 281.022 44.4791 281.066 44.7158C281.06 44.8328 281.047 44.9339 281.027 45.019C281.008 45.1041 280.977 45.173 280.935 45.2257C280.894 45.2785 280.829 45.3184 280.742 45.3455C280.655 45.3648 280.541 45.371 280.401 45.3643C280.377 45.3632 280.355 45.3503 280.332 45.3258C280.31 45.3013 280.29 45.2338 280.272 45.1234C280.254 45.0052 280.239 44.8285 280.227 44.5933C280.215 44.3503 280.208 44.0136 280.205 43.5833C280.21 43.1533 280.216 42.614 280.224 41.9652C280.24 41.3167 280.27 40.5165 280.316 39.5645Z" fill="black"/>
<path d="M355.184 61.8759C355.019 61.454 354.977 61.038 355.06 60.628C355.143 60.2181 355.293 59.8318 355.512 59.4692C355.728 59.0993 355.985 58.7595 356.283 58.4497C356.579 58.1326 356.861 57.8582 357.131 57.6266C357.399 57.3876 357.625 57.1941 357.81 57.046C357.993 56.8906 358.075 56.7911 358.058 56.7474C357.958 56.4928 357.847 56.2512 357.724 56.0226C357.605 55.7838 357.483 55.5465 357.357 55.3105C357.231 55.0746 357.106 54.8423 356.983 54.6137C356.864 54.3749 356.758 54.1355 356.664 53.8955L356.386 53.1862C356.641 52.9603 356.857 52.8885 357.032 52.971C357.214 53.0507 357.324 53.2676 357.362 53.6219C357.454 53.7705 357.592 54.0058 357.777 54.3277C357.962 54.6496 358.168 55.0138 358.394 55.4202C358.628 55.8237 358.87 56.249 359.12 56.6962C359.378 57.1405 359.622 57.5695 359.851 57.9832C360.085 58.3867 360.29 58.7508 360.468 59.0756C360.643 59.3931 360.774 59.6313 360.861 59.79C360.883 59.8235 360.918 59.8934 360.968 59.9997C361.016 60.0987 361.063 60.21 361.112 60.3337C361.165 60.4472 361.211 60.5549 361.251 60.6567C361.298 60.7557 361.33 60.827 361.347 60.8707C361.071 60.979 360.878 61.0422 360.767 61.0602C360.664 61.0755 360.585 61.056 360.53 61.002C360.483 60.9451 360.435 60.8548 360.387 60.7311C360.338 60.6075 360.235 60.4508 360.077 60.261C359.89 60.5774 359.704 60.8518 359.518 61.084C359.332 61.3163 359.136 61.5231 358.93 61.7044C358.722 61.8785 358.499 62.0285 358.263 62.1545C358.038 62.2849 357.787 62.4043 357.51 62.5126C357.277 62.6038 357.045 62.6739 356.812 62.7231C356.584 62.7621 356.367 62.7634 356.159 62.7271C355.952 62.6909 355.763 62.6054 355.593 62.4707C355.423 62.336 355.287 62.1377 355.184 61.8759ZM356.043 61.2748C356.089 61.3912 356.152 61.4758 356.231 61.5286C356.31 61.5814 356.4 61.6175 356.5 61.6371C356.6 61.6567 356.698 61.6603 356.794 61.6479C356.894 61.6254 356.988 61.5971 357.075 61.5629C357.33 61.4631 357.584 61.309 357.838 61.1004C358.096 60.8817 358.315 60.6366 358.494 60.3651C358.677 60.0835 358.8 59.7877 358.863 59.4777C358.934 59.1648 358.912 58.8629 358.798 58.572C358.71 58.3465 358.608 58.2057 358.494 58.1498C358.38 58.0939 358.21 58.1101 357.985 58.1984C357.752 58.2896 357.501 58.451 357.23 58.6827C356.968 58.9115 356.726 59.1738 356.507 59.4697C356.294 59.7627 356.138 60.0713 356.039 60.3956C355.936 60.7126 355.938 61.0057 356.043 61.2748ZM361.149 58.469C360.972 58.018 360.914 57.5584 360.974 57.0902C361.031 56.6147 361.176 56.1718 361.41 55.7615C361.648 55.341 361.95 54.9666 362.317 54.6385C362.69 54.3074 363.099 54.055 363.543 53.8812C363.79 53.7843 364.04 53.7788 364.292 53.8647C364.551 53.9478 364.791 54.0801 365.013 54.2615C365.233 54.4357 365.425 54.6373 365.59 54.8662C365.763 55.0923 365.886 55.3 365.96 55.4891C366.12 55.8964 366.177 56.3313 366.131 56.7938C366.083 57.249 365.961 57.687 365.765 58.1078C365.566 58.5213 365.306 58.896 364.985 59.2317C364.663 59.5675 364.306 59.8123 363.913 59.9662C363.564 60.103 363.247 60.1602 362.961 60.1379C362.672 60.1083 362.417 60.0238 362.194 59.8844C361.969 59.7377 361.767 59.544 361.589 59.3034C361.416 59.0526 361.269 58.7745 361.149 58.469ZM362.119 58.2147C362.193 58.4038 362.273 58.5654 362.36 58.6995C362.45 58.8235 362.555 58.9207 362.675 58.9912C362.802 59.0588 362.947 59.0947 363.108 59.0987C363.266 59.0955 363.447 59.054 363.65 58.9742C363.919 58.8687 364.16 58.6905 364.372 58.4396C364.582 58.1814 364.747 57.8982 364.87 57.5901C364.997 57.2718 365.072 56.9488 365.095 56.6211C365.117 56.2934 365.077 55.9986 364.975 55.7367C364.929 55.6203 364.868 55.4973 364.792 55.3676C364.716 55.238 364.63 55.1249 364.534 55.0285C364.437 54.9321 364.326 54.8624 364.2 54.8194C364.074 54.7764 363.938 54.7834 363.793 54.8404C363.662 54.8917 363.523 54.9967 363.375 55.1552C363.235 55.3109 363.093 55.4963 362.951 55.7115C362.816 55.9238 362.688 56.1543 362.567 56.4029C362.454 56.6488 362.355 56.8889 362.271 57.1233C362.186 57.3578 362.128 57.5735 362.096 57.7706C362.072 57.9648 362.079 58.1129 362.119 58.2147ZM350.5 74.9461C350.429 74.7642 350.403 74.611 350.421 74.4864C350.446 74.3589 350.561 74.2552 350.765 74.1754C350.787 74.1669 350.828 74.1548 350.889 74.1393C350.954 74.1137 350.994 74.098 351.009 74.0923C351.148 74.2978 351.296 74.5252 351.452 74.7744C351.613 75.0135 351.783 75.2533 351.961 75.494C352.139 75.7346 352.323 75.9688 352.513 76.1964C352.71 76.4213 352.916 76.6135 353.129 76.7731C353.206 76.5836 353.236 76.3829 353.22 76.171C353.205 75.9591 353.174 75.7528 353.129 75.5523C353.081 75.3445 353.034 75.149 352.987 74.9659C352.945 74.7727 352.94 74.5985 352.972 74.4435C353 74.2812 353.08 74.1411 353.21 74.023C353.347 73.9021 353.565 73.8166 353.864 73.7665C354.17 73.6468 354.436 73.6096 354.664 73.6547C354.888 73.6926 355.1 73.7731 355.3 73.8964C355.503 74.0096 355.706 74.1401 355.906 74.2881C356.111 74.4259 356.342 74.5327 356.598 74.6085C356.605 74.4969 356.614 74.3591 356.625 74.1952C356.633 74.0241 356.655 73.8436 356.69 73.6538C356.729 73.4539 356.773 73.2562 356.822 73.0607C356.876 72.855 356.94 72.6662 357.016 72.4941C357.088 72.3147 357.174 72.1593 357.274 72.028C357.37 71.8894 357.481 71.7959 357.604 71.7475C357.902 71.6306 358.198 71.624 358.49 71.7276C358.78 71.824 359.056 71.9841 359.32 72.2079C359.588 72.4216 359.842 72.6831 360.081 72.9924C360.316 73.2944 360.526 73.594 360.71 73.8913C360.893 74.1885 361.049 74.4675 361.176 74.728C361.308 74.9785 361.396 75.1619 361.442 75.2783C361.479 75.3729 361.486 75.4542 361.462 75.5222C361.438 75.5902 361.399 75.6516 361.345 75.7063C361.288 75.7538 361.221 75.7969 361.144 75.8355C361.074 75.8713 361.007 75.902 360.941 75.9276C360.927 75.9333 360.905 75.9419 360.876 75.9533C360.844 75.9574 360.808 75.963 360.769 75.9699C360.737 75.9741 360.693 75.9788 360.636 75.9842L358.649 72.9996C358.64 72.9778 358.595 72.9492 358.514 72.9138C358.43 72.8712 358.371 72.8482 358.336 72.8451C358.314 72.8536 358.295 72.8571 358.277 72.8556C358.263 72.8613 358.252 72.8655 358.245 72.8684C358.235 72.864 358.226 72.8632 358.219 72.866C358.066 72.9259 357.945 73.0447 357.855 73.2225C357.772 73.3975 357.71 73.6023 357.668 73.837C357.625 74.0718 357.599 74.3255 357.588 74.5981C357.578 74.8708 357.578 75.1392 357.589 75.4033C357.597 75.6602 357.607 75.8996 357.619 76.1217C357.635 76.3336 357.644 76.4976 357.648 76.6137C357.625 76.6396 357.572 76.677 357.491 76.7257C357.406 76.7672 357.349 76.7937 357.32 76.8051C357.117 76.8849 356.933 76.877 356.77 76.7816C356.604 76.6788 356.443 76.5362 356.288 76.3538C356.139 76.1685 355.991 75.9622 355.844 75.7348C355.7 75.4973 355.551 75.2873 355.396 75.1049C355.247 74.9196 355.084 74.782 354.907 74.6923C354.733 74.5924 354.537 74.5852 354.319 74.6707C354.239 74.702 354.194 74.812 354.184 75.0005C354.174 75.189 354.188 75.4184 354.227 75.6885C354.263 75.9513 354.311 76.2346 354.371 76.5382C354.429 76.8346 354.488 77.1136 354.548 77.3751C354.613 77.6266 354.671 77.8388 354.722 78.0118C354.773 78.1848 354.799 78.2713 354.799 78.2713C354.793 78.2988 354.773 78.3357 354.741 78.3819C354.706 78.4208 354.669 78.4648 354.629 78.5138C354.597 78.56 354.558 78.6004 354.513 78.6349C354.475 78.6665 354.445 78.6866 354.423 78.6952C354.22 78.775 353.988 78.761 353.727 78.6532C353.464 78.5382 353.195 78.3666 352.921 78.1383C352.652 77.8999 352.382 77.6282 352.111 77.323C351.848 77.015 351.606 76.7072 351.384 76.3995C351.163 76.0918 350.973 75.8098 350.814 75.5533C350.662 75.294 350.557 75.0916 350.5 74.9461ZM366.256 72.4356C366.054 72.733 365.881 72.998 365.737 73.2306C365.598 73.453 365.453 73.6522 365.304 73.8281C365.155 74.004 364.981 74.1602 364.783 74.2966C364.592 74.4302 364.34 74.5583 364.027 74.6808C363.351 74.9459 362.779 74.9643 362.312 74.7361C361.842 74.5006 361.467 74.0265 361.188 73.3136C361.08 73.0372 361.004 72.7356 360.96 72.4089C360.915 72.0821 360.905 71.7462 360.93 71.4011C360.958 71.0459 361.02 70.6988 361.113 70.36C361.204 70.0139 361.334 69.6906 361.501 69.39C361.669 69.0895 361.868 68.8268 362.099 68.6021C362.334 68.3673 362.608 68.1887 362.921 68.0661C363.464 67.9118 363.927 67.8817 364.307 67.9758C364.685 68.0627 365.015 68.2398 365.296 68.5073C365.574 68.7675 365.821 69.0863 366.036 69.4635C366.248 69.8335 366.451 70.2238 366.645 70.6343C366.847 71.0419 367.056 71.4467 367.272 71.8487C367.488 72.2506 367.746 72.5985 368.046 72.8922C368.046 73.1693 368.02 73.3722 367.97 73.501C367.93 73.6342 367.846 73.688 367.719 73.6624C367.591 73.6369 367.408 73.5239 367.17 73.3234C366.94 73.1201 366.635 72.8242 366.256 72.4356ZM362.124 72.9721C362.287 73.3867 362.483 73.6623 362.712 73.7988C362.946 73.9253 363.264 73.9101 363.664 73.7534C363.962 73.6365 364.226 73.4744 364.455 73.2672C364.689 73.0497 364.872 72.8102 365.004 72.5486C365.134 72.2796 365.209 71.99 365.23 71.6797C365.251 71.3694 365.199 71.0542 365.073 70.7341C365.022 70.6032 364.955 70.4199 364.871 70.1843C364.784 69.9414 364.677 69.7107 364.549 69.4922C364.422 69.2736 364.274 69.1007 364.107 68.9733C363.936 68.8386 363.75 68.8112 363.546 68.891C363.168 69.0392 362.857 69.2742 362.614 69.596C362.368 69.9105 362.187 70.2625 362.071 70.6519C361.955 71.0413 361.903 71.4436 361.914 71.8586C361.923 72.2663 361.993 72.6375 362.124 72.9721ZM366.497 67.6214C366.488 67.5996 366.485 67.58 366.487 67.5626C366.481 67.548 366.477 67.5284 366.476 67.5038C366.491 67.456 366.516 67.3916 366.551 67.3106C366.587 67.2296 366.612 67.1863 366.626 67.1806L368.82 66.3213C368.788 66.2413 368.727 66.1183 368.637 65.9523C368.547 65.7862 368.45 65.602 368.345 65.3996C368.248 65.1944 368.159 64.9776 368.078 64.7492C367.994 64.5136 367.942 64.2949 367.921 64.0931C367.905 63.8811 367.933 63.6942 368.004 63.5322C368.079 63.3601 368.226 63.2313 368.444 63.1458C368.732 63.8805 369.013 64.4497 369.289 64.8536C369.565 65.2574 369.833 65.5465 370.095 65.721C370.363 65.8927 370.621 65.9721 370.868 65.9594C371.114 65.9466 371.349 65.8924 371.572 65.7968C371.799 65.6911 372.01 65.5663 372.205 65.4226C372.401 65.2789 372.578 65.1634 372.737 65.076C372.903 64.9858 373.048 64.9499 373.173 64.9682C373.295 64.9792 373.395 65.0865 373.475 65.2902C373.535 65.443 373.541 65.5663 373.494 65.6603C373.454 65.7514 373.343 65.8536 373.161 65.9669C373.106 65.997 373.013 66.05 372.884 66.126C372.759 66.1919 372.615 66.2648 372.454 66.3449C372.292 66.425 372.121 66.513 371.94 66.6089C371.757 66.6976 371.584 66.782 371.423 66.8621C371.261 66.9422 371.113 67.0129 370.977 67.0743C370.839 67.1285 370.737 67.1684 370.672 67.194C370.686 67.2304 370.707 67.2937 370.734 67.3838C370.76 67.474 370.78 67.5336 370.791 67.5627C370.916 67.8827 371.09 68.1756 371.311 68.4412C371.53 68.6995 371.756 68.955 371.989 69.2076C372.23 69.4574 372.459 69.7115 372.678 69.9698C372.897 70.2282 373.069 70.5174 373.194 70.8374C373.217 70.8956 373.234 70.9603 373.245 71.0315C373.261 71.0925 373.26 71.1556 373.244 71.2208C373.232 71.2758 373.197 71.3271 373.14 71.3746C373.094 71.4265 373.008 71.4556 372.885 71.462C372.58 71.4975 372.312 71.4224 372.079 71.2365C371.854 71.0477 371.645 70.8025 371.451 70.5008C371.255 70.1919 371.073 69.8562 370.906 69.4937C370.739 69.1313 370.567 68.8 370.39 68.4999C370.219 68.1897 370.038 67.9418 369.847 67.7562C369.654 67.5633 369.435 67.4856 369.19 67.523L366.896 67.868C366.867 67.8794 366.812 67.8674 366.731 67.832C366.647 67.7893 366.592 67.7563 366.566 67.7329C366.553 67.7212 366.542 67.7044 366.534 67.6826C366.521 67.6709 366.508 67.6505 366.497 67.6214ZM373.445 63.0616C373.414 62.9816 373.383 62.8805 373.352 62.7584C373.325 62.6262 373.312 62.497 373.313 62.3708C373.321 62.2417 373.347 62.1266 373.392 62.0253C373.433 61.9168 373.512 61.8398 373.628 61.7942C373.636 61.7913 373.655 61.7878 373.687 61.7837C373.719 61.7796 373.739 61.7761 373.746 61.7732C374.046 62.1758 374.294 62.5947 374.49 63.0298C374.686 63.465 374.848 63.9007 374.977 64.3368C375.103 64.7657 375.207 65.1908 375.288 65.6121C375.366 66.0261 375.444 66.4068 375.521 66.754C375.606 67.0985 375.692 67.4045 375.78 67.6721C375.876 67.9368 376.002 68.143 376.161 68.2906C376.101 68.1799 376.036 68.046 375.966 67.8888C375.9 67.7215 375.848 67.5449 375.809 67.3589C375.777 67.1701 375.763 66.9741 375.767 66.771C375.779 66.5651 375.83 66.3645 375.921 66.1693C376.013 65.9741 376.156 65.7923 376.35 65.624C376.551 65.4527 376.823 65.3002 377.165 65.1662C377.521 65.0266 377.851 64.9687 378.154 64.9926C378.464 65.0137 378.746 65.1005 378.999 65.2532C379.248 65.3986 379.47 65.6011 379.664 65.8607C379.863 66.1102 380.026 66.3986 380.155 66.726C380.214 66.8787 380.279 67.0547 380.349 67.254C380.423 67.4431 380.467 67.6313 380.482 67.8186C380.501 67.9957 380.471 68.1667 380.393 68.3315C380.32 68.4862 380.167 68.6092 379.934 68.7004C379.888 68.584 379.834 68.4248 379.772 68.2226C379.707 68.0133 379.63 67.7958 379.541 67.5703C379.46 67.342 379.363 67.1157 379.25 66.8915C379.144 66.6644 379.016 66.4756 378.865 66.3251C378.711 66.1673 378.538 66.0588 378.347 65.9994C378.16 65.9299 377.943 65.9436 377.696 66.0405C377.609 66.0747 377.502 66.1247 377.377 66.1905C377.256 66.2462 377.142 66.3289 377.034 66.4383C376.926 66.5478 376.834 66.6886 376.759 66.8608C376.681 67.0256 376.647 67.2277 376.656 67.4672C376.664 67.6994 376.722 67.9783 376.833 68.3041C376.949 68.6197 377.14 68.9896 377.407 69.4136C377.407 69.5645 377.371 69.6666 377.3 69.7197C377.236 69.7701 377.145 69.818 377.029 69.8636C376.796 69.9548 376.572 69.9503 376.357 69.8501C376.146 69.7398 375.946 69.5621 375.758 69.3171C375.569 69.072 375.389 68.7733 375.218 68.421C375.053 68.0659 374.898 67.6905 374.751 67.2948C374.602 66.8919 374.462 66.481 374.331 66.0623C374.205 65.6334 374.086 65.2314 373.972 64.8563C373.863 64.4711 373.765 64.1236 373.677 63.814C373.594 63.4942 373.516 63.2434 373.445 63.0616ZM362.769 82.2805C362.738 82.2005 362.707 82.0994 362.676 81.9774C362.649 81.8452 362.636 81.7159 362.637 81.5897C362.645 81.4607 362.672 81.3455 362.716 81.2443C362.757 81.1358 362.836 81.0587 362.952 81.0131C362.96 81.0103 362.979 81.0068 363.011 81.0026C363.043 80.9985 363.063 80.995 363.07 80.9922C363.37 81.3947 363.618 81.8136 363.814 82.2488C364.01 82.6839 364.172 83.1196 364.301 83.5557C364.427 83.9846 364.531 84.4097 364.612 84.831C364.69 85.245 364.768 85.6257 364.845 85.973C364.93 86.3174 365.016 86.6234 365.104 86.891C365.2 87.1557 365.327 87.3619 365.485 87.5095C365.425 87.3988 365.36 87.2649 365.29 87.1077C365.224 86.9404 365.172 86.7638 365.133 86.5778C365.101 86.389 365.087 86.193 365.091 85.9899C365.103 85.784 365.154 85.5835 365.246 85.3882C365.337 85.193 365.48 85.0113 365.674 84.8429C365.875 84.6717 366.147 84.5191 366.489 84.3851C366.845 84.2455 367.175 84.1876 367.478 84.2115C367.788 84.2326 368.07 84.3195 368.323 84.4721C368.573 84.6175 368.795 84.8201 368.989 85.0797C369.187 85.3292 369.35 85.6176 369.479 85.9449C369.538 86.0977 369.603 86.2737 369.673 86.4729C369.747 86.662 369.791 86.8502 369.806 87.0375C369.825 87.2146 369.796 87.3856 369.717 87.5504C369.644 87.7052 369.491 87.8281 369.258 87.9193C369.212 87.8029 369.158 87.6437 369.096 87.4416C369.031 87.2322 368.954 87.0148 368.865 86.7893C368.784 86.5609 368.687 86.3346 368.574 86.1104C368.469 85.8833 368.34 85.6946 368.189 85.544C368.035 85.3863 367.862 85.2777 367.671 85.2183C367.484 85.1488 367.267 85.1625 367.02 85.2594C366.933 85.2936 366.826 85.3436 366.701 85.4095C366.58 85.4652 366.466 85.5478 366.358 85.6573C366.25 85.7668 366.158 85.9076 366.083 86.0797C366.005 86.2445 365.971 86.4467 365.981 86.6861C365.988 86.9183 366.047 87.1972 366.157 87.523C366.273 87.8386 366.464 88.2085 366.731 88.6326C366.731 88.7835 366.695 88.8855 366.624 88.9387C366.56 88.989 366.469 89.0369 366.353 89.0825C366.12 89.1737 365.896 89.1692 365.681 89.0691C365.47 88.9588 365.27 88.7811 365.082 88.536C364.893 88.2909 364.713 87.9922 364.542 87.6399C364.378 87.2848 364.222 86.9094 364.075 86.5137C363.926 86.1108 363.786 85.7 363.656 85.2812C363.529 84.8523 363.41 84.4503 363.296 84.0752C363.187 83.69 363.089 83.3426 363.001 83.0329C362.918 82.7132 362.841 82.4624 362.769 82.2805ZM368.487 82.8346C368.438 82.711 368.419 82.5883 368.43 82.4665C368.449 82.3418 368.527 82.2524 368.665 82.1983C368.672 82.1954 368.685 82.1948 368.702 82.1964C368.717 82.1907 368.731 82.185 368.746 82.1793C368.76 82.1736 368.775 82.1679 368.789 82.1622C368.817 82.1682 368.871 82.1889 368.952 82.2243C369.041 82.2568 369.098 82.2848 369.124 82.3082C369.162 82.3433 369.243 82.4207 369.366 82.5406C369.495 82.6576 369.646 82.7957 369.818 82.9551C369.993 83.1043 370.175 83.2681 370.362 83.4464C370.554 83.6146 370.736 83.7784 370.907 83.9377C371.086 84.0942 371.237 84.2324 371.359 84.3522C371.486 84.4619 371.573 84.5329 371.619 84.5652C371.635 84.5841 371.685 84.615 371.768 84.6576C371.857 84.6902 371.918 84.708 371.953 84.7112C371.971 84.5865 371.97 84.411 371.948 84.1845C371.926 83.958 371.898 83.7134 371.862 83.4505C371.83 83.1775 371.797 82.9009 371.763 82.6207C371.726 82.3332 371.708 82.0719 371.708 81.8369C371.712 81.5917 371.74 81.3837 371.791 81.2129C371.838 81.0348 371.928 80.9201 372.059 80.8688C372.248 80.7947 372.454 80.7976 372.679 80.8775C372.91 80.9546 373.148 81.0796 373.392 81.2526C373.643 81.4226 373.895 81.6261 374.147 81.8629C374.404 82.0896 374.65 82.3205 374.884 82.5558C375.124 82.7809 375.345 82.9921 375.548 83.1894C375.755 83.3766 375.941 83.5179 376.104 83.6134C376.18 83.5501 376.224 83.4488 376.237 83.3096C376.249 83.1704 376.246 83.0333 376.227 82.8983C376.212 82.7531 376.19 82.6231 376.162 82.5083C376.131 82.3862 376.112 82.3055 376.105 82.2663C376.081 82.1834 376.043 82.0555 375.992 81.8825C375.939 81.7022 375.876 81.5001 375.805 81.2762C375.742 81.0494 375.671 80.8168 375.595 80.5783C375.518 80.3399 375.444 80.1087 375.373 79.8847C375.31 79.658 375.249 79.4595 375.19 79.2893C375.137 79.1091 375.095 78.9826 375.067 78.9098C375.081 78.9041 375.116 78.8862 375.172 78.8562C375.224 78.8188 375.261 78.7959 375.283 78.7873C375.385 78.7474 375.48 78.7227 375.569 78.7132C375.657 78.7036 375.749 78.7558 375.844 78.8696C375.864 78.9206 375.9 79.0115 375.951 79.1424C376.009 79.2705 376.069 79.4109 376.129 79.5637C376.193 79.7063 376.252 79.8467 376.306 79.9849C376.365 80.113 376.404 80.2025 376.424 80.2534C376.47 80.3698 376.541 80.5517 376.638 80.799C376.739 81.0362 376.841 81.3068 376.943 81.6107C377.053 81.9118 377.151 82.2259 377.237 82.5529C377.32 82.8727 377.373 83.1791 377.396 83.4724C377.423 83.7555 377.403 84.0063 377.338 84.2249C377.27 84.4362 377.138 84.5804 376.941 84.6573C376.716 84.7457 376.483 84.7738 376.244 84.7416C376.005 84.7094 375.763 84.6366 375.517 84.5232C375.278 84.4069 375.04 84.2695 374.801 84.1112C374.56 83.9455 374.33 83.7756 374.111 83.6014C373.896 83.4171 373.694 83.2444 373.505 83.0835C373.321 82.9125 373.16 82.7699 373.023 82.6557C373.016 82.8095 373.026 82.9945 373.052 83.2109C373.085 83.4244 373.118 83.6589 373.151 83.9145C373.181 84.1628 373.206 84.4176 373.224 84.6788C373.24 84.9328 373.237 85.1729 373.217 85.3991C373.201 85.6151 373.154 85.8056 373.076 85.9704C373.005 86.1324 372.893 86.2433 372.74 86.3032C372.668 86.3317 372.604 86.361 372.548 86.391C372.49 86.4138 372.434 86.4316 372.38 86.4443C372.324 86.4497 372.266 86.4427 372.208 86.4234C372.151 86.4042 372.088 86.3617 372.02 86.2959L368.594 83.0443C368.591 83.037 368.576 83.0094 368.549 82.9613C368.519 82.906 368.498 82.8637 368.487 82.8346Z" fill="black"/>
<path d="M281.766 115.43C281.821 115.103 281.919 114.779 282.058 114.459C282.205 114.134 282.382 113.83 282.587 113.548C282.8 113.267 283.04 113.013 283.309 112.788C283.579 112.556 283.865 112.366 284.167 112.219C284.477 112.066 284.801 111.962 285.14 111.907C285.481 111.846 285.828 111.844 286.181 111.904C286.534 111.963 286.827 112.085 287.06 112.269C287.301 112.448 287.488 112.668 287.623 112.928C287.757 113.188 287.841 113.476 287.874 113.792C287.908 114.101 287.899 114.41 287.847 114.718C287.757 115.258 287.587 115.777 287.338 116.277C287.09 116.77 286.774 117.199 286.389 117.563C286.006 117.921 285.558 118.189 285.046 118.367C284.542 118.54 283.988 118.576 283.384 118.475C283.025 118.414 282.727 118.282 282.49 118.077C282.262 117.867 282.082 117.619 281.952 117.333C281.829 117.042 281.752 116.732 281.722 116.403C281.699 116.069 281.714 115.745 281.766 115.43ZM282.549 115.78C282.52 115.953 282.518 116.141 282.544 116.343C282.569 116.545 282.62 116.736 282.696 116.913C282.772 117.091 282.877 117.247 283.013 117.382C283.155 117.519 283.326 117.603 283.525 117.637C283.955 117.709 284.363 117.678 284.748 117.545C285.135 117.405 285.482 117.203 285.791 116.938C286.101 116.666 286.358 116.35 286.564 115.988C286.77 115.627 286.905 115.257 286.969 114.878C287.005 114.66 287.037 114.434 287.063 114.2C287.089 113.967 287.082 113.751 287.043 113.553C287.004 113.349 286.918 113.176 286.783 113.035C286.656 112.888 286.451 112.791 286.169 112.743C286.079 112.728 285.956 112.711 285.801 112.691C285.652 112.673 285.501 112.668 285.348 112.675C285.196 112.676 285.058 112.695 284.932 112.734C284.813 112.773 284.745 112.844 284.728 112.947C284.726 112.96 284.731 112.99 284.743 113.039C284.762 113.081 284.78 113.127 284.799 113.177C284.817 113.226 284.832 113.275 284.843 113.323C284.856 113.365 284.861 113.392 284.859 113.405C284.857 113.418 284.826 113.449 284.764 113.498C284.704 113.54 284.657 113.566 284.623 113.573C284.288 113.603 284.001 113.663 283.761 113.755C283.528 113.841 283.331 113.973 283.169 114.151C283.014 114.329 282.887 114.552 282.79 114.82C282.692 115.087 282.612 115.407 282.549 115.78ZM291.471 120.734C291.379 120.46 291.28 120.124 291.176 119.723C291.079 119.318 290.978 118.898 290.872 118.464C290.768 118.024 290.652 117.592 290.525 117.168C290.405 116.745 290.273 116.373 290.128 116.052C290.061 115.981 289.961 115.928 289.828 115.893C289.696 115.857 289.555 115.83 289.406 115.812C289.259 115.787 289.111 115.759 288.965 115.728C288.826 115.691 288.707 115.635 288.607 115.559C288.514 115.484 288.452 115.381 288.421 115.25C288.39 115.12 288.41 114.942 288.481 114.716L290.099 114.988C290.192 114.633 290.306 114.286 290.442 113.946C290.579 113.606 290.738 113.286 290.92 112.987C291.109 112.688 291.32 112.417 291.552 112.172C291.785 111.927 292.049 111.727 292.346 111.572C292.643 111.417 292.971 111.311 293.331 111.252C293.697 111.195 294.098 111.203 294.535 111.276C294.689 111.302 294.836 111.366 294.978 111.469C295.12 111.566 295.242 111.685 295.343 111.828C295.445 111.97 295.518 112.125 295.563 112.29C295.614 112.458 295.626 112.618 295.601 112.772C295.479 112.752 295.373 112.711 295.284 112.65C295.197 112.582 295.113 112.512 295.033 112.439C294.954 112.36 294.867 112.286 294.773 112.217C294.68 112.142 294.569 112.094 294.441 112.072C294.055 112.008 293.683 112.024 293.323 112.122C292.97 112.222 292.646 112.379 292.353 112.593C292.066 112.809 291.823 113.075 291.625 113.392C291.426 113.709 291.295 114.056 291.232 114.435C291.227 114.461 291.219 114.509 291.207 114.579C291.203 114.645 291.194 114.716 291.182 114.793C291.169 114.87 291.156 114.944 291.144 115.014C291.139 115.086 291.134 115.135 291.13 115.161C291.354 115.278 291.611 115.38 291.9 115.468C292.189 115.556 292.48 115.632 292.773 115.694C293.074 115.751 293.363 115.796 293.641 115.83C293.926 115.864 294.179 115.89 294.401 115.908C294.417 115.93 294.446 115.972 294.489 116.032C294.532 116.092 294.554 116.135 294.556 116.162C294.553 116.181 294.554 116.194 294.559 116.202C294.566 116.242 294.569 116.263 294.569 116.263C294.546 116.398 294.458 116.492 294.304 116.545C294.149 116.598 293.96 116.626 293.735 116.628C293.512 116.623 293.264 116.605 292.992 116.572C292.727 116.541 292.468 116.511 292.215 116.482C291.97 116.447 291.746 116.423 291.544 116.409C291.349 116.389 291.21 116.395 291.125 116.427C291.144 116.827 291.229 117.224 291.38 117.619C291.538 118.015 291.7 118.412 291.864 118.809C292.028 119.206 292.166 119.603 292.278 119.998C292.39 120.393 292.414 120.783 292.349 121.168C292.323 121.164 292.262 121.153 292.166 121.137C292.075 121.129 291.979 121.109 291.879 121.079C291.778 121.049 291.684 121.003 291.595 120.942C291.511 120.889 291.47 120.819 291.471 120.734ZM298.271 121.875C298.178 121.602 298.079 121.265 297.975 120.865C297.878 120.459 297.777 120.039 297.671 119.606C297.567 119.166 297.451 118.734 297.325 118.31C297.204 117.887 297.072 117.515 296.928 117.194C296.86 117.123 296.76 117.07 296.628 117.034C296.495 116.999 296.354 116.972 296.206 116.954C296.058 116.929 295.911 116.901 295.764 116.87C295.625 116.833 295.506 116.777 295.406 116.7C295.313 116.625 295.251 116.523 295.221 116.392C295.19 116.261 295.21 116.083 295.281 115.857L296.899 116.129C296.991 115.775 297.105 115.428 297.242 115.088C297.378 114.747 297.537 114.428 297.72 114.128C297.908 113.83 298.119 113.558 298.352 113.313C298.584 113.068 298.849 112.869 299.145 112.714C299.442 112.559 299.77 112.452 300.13 112.394C300.496 112.337 300.897 112.344 301.334 112.418C301.488 112.444 301.636 112.508 301.777 112.611C301.919 112.707 302.041 112.827 302.143 112.969C302.244 113.112 302.317 113.266 302.362 113.432C302.413 113.599 302.426 113.76 302.4 113.914C302.278 113.893 302.173 113.852 302.084 113.791C301.996 113.724 301.912 113.654 301.832 113.581C301.753 113.501 301.666 113.427 301.572 113.359C301.479 113.284 301.368 113.236 301.24 113.214C300.855 113.149 300.482 113.166 300.123 113.264C299.769 113.363 299.446 113.52 299.152 113.735C298.865 113.951 298.622 114.217 298.424 114.534C298.226 114.85 298.095 115.198 298.031 115.577C298.027 115.602 298.019 115.65 298.007 115.721C298.002 115.786 297.994 115.858 297.981 115.935C297.968 116.012 297.956 116.085 297.944 116.156C297.938 116.228 297.933 116.276 297.929 116.302C298.154 116.419 298.41 116.522 298.699 116.61C298.988 116.698 299.279 116.773 299.572 116.836C299.873 116.893 300.163 116.938 300.441 116.971C300.725 117.006 300.979 117.032 301.2 117.049C301.216 117.072 301.246 117.113 301.288 117.173C301.331 117.233 301.353 117.276 301.356 117.303C301.352 117.322 301.353 117.336 301.359 117.343C301.365 117.384 301.368 117.404 301.368 117.404C301.346 117.539 301.257 117.633 301.103 117.687C300.949 117.74 300.759 117.768 300.535 117.769C300.311 117.765 300.063 117.746 299.791 117.714C299.526 117.683 299.267 117.652 299.014 117.623C298.769 117.589 298.546 117.564 298.343 117.55C298.149 117.531 298.009 117.537 297.924 117.569C297.943 117.968 298.028 118.365 298.18 118.76C298.338 119.157 298.499 119.553 298.663 119.951C298.828 120.348 298.966 120.744 299.078 121.139C299.19 121.534 299.213 121.924 299.148 122.31C299.123 122.305 299.062 122.295 298.965 122.279C298.875 122.27 298.779 122.251 298.678 122.221C298.578 122.191 298.483 122.145 298.394 122.084C298.311 122.03 298.27 121.961 298.271 121.875ZM302.312 117.919C302.318 117.881 302.328 117.82 302.342 117.736C302.364 117.647 302.383 117.555 302.399 117.459C302.421 117.363 302.44 117.271 302.455 117.181C302.477 117.092 302.491 117.028 302.497 116.99C302.585 116.899 302.689 116.831 302.809 116.785C302.935 116.74 303.06 116.708 303.182 116.689C303.143 117.039 303.135 117.417 303.159 117.824C303.184 118.231 303.214 118.642 303.249 119.057C303.286 119.466 303.311 119.869 303.323 120.268C303.342 120.667 303.324 121.033 303.268 121.367C303.219 121.656 303.047 121.776 302.752 121.726C302.572 121.696 302.434 121.597 302.336 121.429C302.239 121.261 302.171 121.058 302.132 120.82C302.1 120.577 302.085 120.314 302.086 120.03C302.088 119.74 302.103 119.459 302.129 119.186C302.161 118.914 302.193 118.665 302.224 118.439C302.262 118.215 302.291 118.041 302.312 117.919ZM303.053 114.33C303.166 114.402 303.255 114.503 303.319 114.632C303.383 114.762 303.401 114.874 303.372 114.968C303.35 115.057 303.269 115.109 303.127 115.125C302.987 115.135 302.769 115.058 302.473 114.896C302.502 114.723 302.559 114.578 302.645 114.46C302.737 114.343 302.873 114.3 303.053 114.33ZM303.868 118.913C303.913 118.644 304.018 118.371 304.183 118.095C304.355 117.82 304.56 117.581 304.799 117.376C305.039 117.166 305.301 117.002 305.585 116.884C305.875 116.768 306.165 116.734 306.453 116.783C306.601 116.808 306.745 116.858 306.884 116.934C307.023 117.01 307.142 117.106 307.241 117.222C307.347 117.339 307.424 117.47 307.472 117.617C307.526 117.765 307.54 117.922 307.512 118.089C307.396 118.07 307.292 118.039 307.2 117.997C307.115 117.957 307.03 117.913 306.945 117.865C306.862 117.812 306.777 117.765 306.692 117.724C306.612 117.684 306.521 117.656 306.419 117.638C306.156 117.594 305.929 117.626 305.74 117.732C305.557 117.834 305.402 117.976 305.272 118.159C305.142 118.342 305.039 118.545 304.961 118.77C304.891 118.989 304.84 119.199 304.806 119.398C304.801 119.43 304.791 119.491 304.776 119.581C304.767 119.672 304.754 119.768 304.737 119.871C304.727 119.969 304.715 120.062 304.7 120.152C304.691 120.243 304.687 120.305 304.688 120.338C304.733 120.504 304.78 120.634 304.83 120.729C304.887 120.824 304.95 120.901 305.02 120.958C305.09 121.01 305.169 121.05 305.257 121.078C305.346 121.099 305.451 121.12 305.573 121.141C305.74 121.169 305.889 121.167 306.02 121.136C306.157 121.106 306.286 121.065 306.407 121.013C306.528 120.961 306.643 120.901 306.754 120.834C306.865 120.76 306.978 120.696 307.093 120.643C307.215 120.584 307.341 120.543 307.47 120.518C307.607 120.488 307.756 120.487 307.916 120.514C307.864 120.829 307.759 121.098 307.602 121.323C307.452 121.548 307.26 121.731 307.025 121.87C306.797 122.009 306.537 122.104 306.245 122.154C305.96 122.199 305.657 122.194 305.336 122.14C305.034 122.09 304.779 121.941 304.569 121.695C304.366 121.449 304.203 121.165 304.079 120.84C303.963 120.51 303.888 120.171 303.854 119.822C303.82 119.473 303.825 119.17 303.868 118.913ZM308.569 119.93C308.627 119.584 308.727 119.244 308.869 118.911C309.01 118.579 309.194 118.289 309.42 118.043C309.653 117.799 309.928 117.614 310.246 117.489C310.571 117.365 310.942 117.338 311.359 117.408C311.597 117.448 311.798 117.528 311.962 117.648C312.128 117.762 312.26 117.9 312.358 118.061C312.457 118.223 312.519 118.405 312.544 118.607C312.577 118.804 312.576 119.006 312.542 119.211C312.487 119.538 312.356 119.843 312.15 120.126C311.951 120.409 311.703 120.648 311.406 120.842C311.117 121.032 310.799 121.16 310.451 121.227C310.104 121.287 309.766 121.257 309.436 121.135C309.411 121.323 309.447 121.484 309.543 121.619C309.647 121.748 309.777 121.856 309.934 121.942C310.092 122.028 310.259 122.095 310.435 122.145C310.613 122.188 310.772 122.221 310.913 122.245C311.061 122.27 311.201 122.28 311.334 122.276C311.467 122.272 311.6 122.265 311.734 122.254C311.868 122.243 312.001 122.236 312.134 122.232C312.273 122.229 312.416 122.24 312.564 122.265C312.622 122.274 312.679 122.287 312.735 122.303C312.792 122.32 312.844 122.345 312.891 122.379C312.939 122.407 312.975 122.449 312.999 122.506C313.023 122.556 313.029 122.617 313.018 122.687C312.997 122.809 312.935 122.905 312.831 122.973C312.728 123.035 312.601 123.083 312.45 123.117C312.306 123.152 312.147 123.172 311.975 123.176C311.804 123.174 311.636 123.168 311.473 123.161C311.316 123.148 311.171 123.13 311.036 123.107C310.906 123.092 310.81 123.079 310.745 123.068C310.334 122.999 309.976 122.873 309.67 122.69C309.365 122.5 309.12 122.271 308.934 122.002C308.749 121.727 308.623 121.415 308.556 121.067C308.497 120.714 308.501 120.335 308.569 119.93ZM309.695 119.476C309.657 119.7 309.659 119.869 309.699 119.981C309.746 120.095 309.888 120.172 310.126 120.212C310.293 120.24 310.461 120.238 310.632 120.207C310.803 120.17 310.962 120.108 311.109 120.02C311.262 119.934 311.389 119.823 311.491 119.688C311.593 119.553 311.658 119.399 311.688 119.226C311.704 119.13 311.711 119.029 311.709 118.923C311.713 118.818 311.697 118.719 311.659 118.627C311.623 118.529 311.568 118.447 311.493 118.381C311.425 118.311 311.328 118.265 311.199 118.243C311.006 118.211 310.822 118.226 310.647 118.289C310.479 118.346 310.328 118.437 310.195 118.56C310.064 118.676 309.954 118.816 309.867 118.98C309.781 119.137 309.724 119.302 309.695 119.476ZM284.379 126.381C284.391 126.311 284.412 126.225 284.442 126.124C284.479 126.019 284.525 125.921 284.58 125.831C284.641 125.742 284.709 125.671 284.784 125.618C284.86 125.558 284.95 125.536 285.053 125.554C285.059 125.555 285.074 125.561 285.099 125.571C285.124 125.582 285.139 125.588 285.146 125.589C285.188 126.005 285.186 126.411 285.139 126.806C285.093 127.201 285.022 127.582 284.928 127.949C284.834 128.309 284.726 128.658 284.604 128.994C284.482 129.323 284.375 129.629 284.281 129.91C284.194 130.192 284.125 130.448 284.073 130.677C284.028 130.907 284.031 131.109 284.081 131.282C284.085 131.177 284.096 131.054 284.113 130.912C284.138 130.764 284.176 130.615 284.228 130.465C284.286 130.317 284.36 130.171 284.45 130.027C284.546 129.885 284.669 129.764 284.818 129.663C284.967 129.563 285.147 129.494 285.358 129.457C285.575 129.421 285.835 129.428 286.136 129.479C286.451 129.531 286.711 129.631 286.918 129.778C287.131 129.926 287.295 130.109 287.41 130.326C287.526 130.537 287.598 130.777 287.626 131.046C287.661 131.309 287.654 131.585 287.606 131.874C287.583 132.009 287.554 132.163 287.518 132.335C287.49 132.502 287.442 132.655 287.372 132.795C287.31 132.93 287.215 133.04 287.089 133.124C286.97 133.203 286.808 133.226 286.602 133.191C286.62 133.088 286.649 132.951 286.691 132.78C286.734 132.603 286.772 132.414 286.806 132.215C286.846 132.017 286.873 131.814 286.888 131.605C286.91 131.398 286.899 131.208 286.855 131.035C286.813 130.856 286.736 130.705 286.625 130.581C286.521 130.451 286.36 130.368 286.142 130.331C286.065 130.318 285.967 130.308 285.85 130.302C285.739 130.29 285.622 130.3 285.498 130.332C285.374 130.364 285.248 130.425 285.12 130.516C284.994 130.601 284.883 130.731 284.788 130.906C284.693 131.075 284.616 131.3 284.556 131.58C284.503 131.855 284.481 132.201 284.49 132.619C284.426 132.727 284.357 132.784 284.283 132.792C284.215 132.8 284.13 132.796 284.028 132.779C283.822 132.744 283.664 132.645 283.553 132.481C283.449 132.312 283.382 132.099 283.353 131.843C283.323 131.588 283.322 131.297 283.351 130.972C283.385 130.647 283.435 130.312 283.5 129.967C283.565 129.615 283.641 129.261 283.727 128.906C283.821 128.545 283.907 128.207 283.987 127.89C284.074 127.568 284.152 127.277 284.222 127.018C284.3 126.754 284.352 126.542 284.379 126.381ZM288.077 131.428C288.143 131.03 288.299 130.677 288.542 130.368C288.786 130.052 289.08 129.798 289.423 129.605C289.773 129.406 290.149 129.268 290.552 129.19C290.961 129.114 291.361 129.108 291.753 129.174C291.971 129.211 292.152 129.314 292.295 129.483C292.444 129.653 292.56 129.851 292.641 130.076C292.723 130.294 292.774 130.521 292.794 130.755C292.821 130.99 292.82 131.192 292.792 131.359C292.732 131.718 292.586 132.054 292.356 132.365C292.126 132.669 291.851 132.93 291.531 133.147C291.212 133.358 290.865 133.514 290.492 133.616C290.118 133.719 289.758 133.741 289.411 133.682C289.103 133.631 288.852 133.536 288.657 133.397C288.463 133.253 288.317 133.083 288.218 132.888C288.12 132.687 288.058 132.462 288.034 132.213C288.017 131.96 288.031 131.698 288.077 131.428ZM288.879 131.662C288.851 131.829 288.839 131.979 288.843 132.112C288.855 132.239 288.888 132.354 288.944 132.455C289.006 132.558 289.094 132.646 289.207 132.717C289.321 132.783 289.468 132.831 289.648 132.861C289.886 132.901 290.134 132.876 290.393 132.788C290.653 132.693 290.893 132.561 291.113 132.394C291.34 132.221 291.532 132.022 291.688 131.797C291.845 131.573 291.943 131.345 291.981 131.114C291.999 131.011 292.008 130.897 292.009 130.772C292.01 130.646 291.997 130.529 291.969 130.418C291.942 130.308 291.892 130.211 291.82 130.126C291.749 130.041 291.649 129.988 291.52 129.967C291.405 129.947 291.26 129.963 291.087 130.013C290.92 130.064 290.739 130.136 290.546 130.229C290.358 130.323 290.168 130.433 289.975 130.559C289.789 130.686 289.615 130.815 289.455 130.947C289.294 131.078 289.16 131.208 289.053 131.335C288.952 131.463 288.894 131.572 288.879 131.662ZM293.358 130.285C293.365 130.247 293.376 130.179 293.392 130.083C293.416 129.981 293.437 129.876 293.455 129.767C293.474 129.658 293.49 129.558 293.505 129.468C293.528 129.373 293.543 129.306 293.549 129.268C293.607 129.198 293.671 129.133 293.74 129.072C293.817 129.006 293.89 128.965 293.959 128.95C294.035 128.93 294.11 128.936 294.183 128.968C294.264 129.001 294.336 129.08 294.402 129.203L294.389 129.28L294.368 129.405C294.356 129.436 294.33 129.511 294.29 129.63C294.252 129.742 294.208 129.867 294.158 130.004C294.109 130.141 294.061 130.268 294.015 130.386C293.976 130.498 293.954 130.57 293.949 130.602C293.928 130.724 293.915 130.88 293.91 131.071C293.905 131.255 293.909 131.45 293.92 131.657C293.938 131.865 293.966 132.074 294.003 132.285C294.047 132.497 294.106 132.692 294.182 132.869C294.259 133.041 294.35 133.188 294.454 133.311C294.566 133.436 294.705 133.512 294.872 133.54C295.077 133.574 295.266 133.55 295.438 133.467C295.617 133.384 295.779 133.266 295.924 133.112C296.068 132.958 296.194 132.778 296.302 132.572C296.415 132.366 296.513 132.158 296.595 131.948C296.677 131.73 296.745 131.521 296.799 131.318C296.853 131.116 296.893 130.938 296.919 130.784C296.945 130.63 296.956 130.483 296.953 130.344C296.957 130.2 296.955 130.057 296.945 129.917C296.936 129.777 296.929 129.64 296.925 129.508C296.928 129.37 296.941 129.233 296.964 129.098C296.984 128.976 297.041 128.897 297.133 128.859C297.231 128.823 297.335 128.814 297.444 128.832C297.579 128.855 297.681 128.915 297.751 129.013C297.821 129.104 297.869 129.214 297.893 129.343C297.924 129.474 297.933 129.621 297.918 129.783C297.912 129.941 297.896 130.096 297.87 130.25C297.844 130.405 297.816 130.552 297.786 130.692C297.757 130.826 297.735 130.934 297.721 131.018C297.684 131.236 297.627 131.481 297.548 131.751C297.47 132.022 297.364 132.298 297.231 132.579C297.106 132.855 296.958 133.124 296.789 133.386C296.626 133.649 296.439 133.879 296.228 134.074C296.024 134.265 295.799 134.408 295.551 134.505C295.31 134.604 295.052 134.629 294.776 134.583C294.487 134.535 294.244 134.425 294.049 134.253C293.854 134.075 293.699 133.861 293.582 133.61C293.473 133.354 293.392 133.073 293.338 132.767C293.283 132.461 293.252 132.159 293.242 131.86C293.24 131.562 293.248 131.277 293.268 131.003C293.295 130.723 293.325 130.484 293.358 130.285ZM298.328 131.001C298.338 130.943 298.351 130.886 298.367 130.829C298.384 130.766 298.406 130.713 298.433 130.672C298.461 130.624 298.496 130.587 298.54 130.561C298.591 130.537 298.654 130.531 298.731 130.544C298.796 130.554 298.858 130.618 298.917 130.733C298.985 130.844 299.047 130.983 299.105 131.151C299.164 131.313 299.216 131.49 299.263 131.683C299.316 131.876 299.359 132.055 299.391 132.219C299.43 132.377 299.46 132.514 299.48 132.63C299.501 132.746 299.513 132.807 299.519 132.815C299.64 132.604 299.774 132.376 299.921 132.13C300.068 131.884 300.234 131.661 300.419 131.461C300.612 131.256 300.824 131.093 301.056 130.974C301.293 130.855 301.563 130.821 301.865 130.872C302.019 130.898 302.159 130.948 302.285 131.022C302.419 131.09 302.529 131.181 302.616 131.295C302.71 131.403 302.778 131.527 302.821 131.666C302.863 131.805 302.871 131.958 302.843 132.125C302.819 132.266 302.745 132.356 302.619 132.395C302.5 132.434 302.37 132.442 302.229 132.418L302.133 132.402L301.788 131.918C301.775 131.916 301.766 131.911 301.761 131.904C301.748 131.902 301.735 131.9 301.722 131.897C301.717 131.89 301.708 131.885 301.695 131.883C301.47 131.845 301.283 131.88 301.133 131.987C300.991 132.088 300.872 132.227 300.776 132.402C300.682 132.571 300.608 132.757 300.554 132.959C300.508 133.156 300.471 133.338 300.443 133.505C300.421 133.633 300.412 133.767 300.415 133.906C300.419 134.039 300.426 134.172 300.437 134.306C300.448 134.433 300.456 134.566 300.459 134.706C300.463 134.838 300.453 134.975 300.429 135.116C300.384 135.386 300.217 135.497 299.928 135.448C299.768 135.421 299.615 135.31 299.469 135.114C299.325 134.911 299.188 134.664 299.059 134.372C298.937 134.08 298.824 133.764 298.723 133.424C298.623 133.077 298.54 132.743 298.476 132.422C298.411 132.101 298.363 131.812 298.334 131.556C298.31 131.302 298.309 131.116 298.328 131.001ZM304.492 135.749C304.607 135.696 304.744 135.626 304.903 135.541C305.07 135.45 305.239 135.353 305.408 135.249C305.577 135.146 305.738 135.034 305.89 134.914C306.042 134.795 306.164 134.676 306.256 134.56C306.356 134.438 306.416 134.319 306.435 134.204C306.454 134.088 306.413 133.982 306.31 133.886C306.105 133.851 305.878 133.823 305.631 133.801C305.385 133.773 305.14 133.739 304.896 133.698C304.653 133.65 304.419 133.588 304.195 133.511C303.976 133.434 303.786 133.33 303.623 133.197C303.461 133.064 303.341 132.895 303.263 132.691C303.192 132.481 303.182 132.228 303.232 131.933C303.29 131.586 303.406 131.286 303.581 131.031C303.763 130.771 303.981 130.554 304.235 130.378C304.49 130.197 304.766 130.048 305.063 129.933C305.367 129.813 305.666 129.718 305.962 129.648C306.121 129.721 306.262 129.828 306.384 129.967C306.506 130.106 306.606 130.255 306.685 130.414C306.616 130.547 306.508 130.641 306.36 130.696C306.219 130.751 306.057 130.793 305.874 130.822C305.697 130.852 305.51 130.883 305.313 130.916C305.116 130.949 304.932 131.007 304.759 131.09C304.594 131.168 304.446 131.285 304.314 131.441C304.183 131.591 304.095 131.804 304.049 132.08C304.014 132.286 304.04 132.445 304.127 132.559C304.213 132.672 304.337 132.762 304.497 132.829C304.659 132.889 304.846 132.934 305.059 132.963C305.273 132.985 305.491 133.005 305.712 133.023C305.94 133.041 306.16 133.068 306.372 133.104C306.585 133.133 306.77 133.191 306.927 133.276C307.086 133.356 307.203 133.465 307.279 133.603C307.361 133.742 307.382 133.93 307.342 134.168C307.325 134.271 307.267 134.396 307.17 134.545C307.079 134.695 306.96 134.853 306.813 135.02C306.674 135.181 306.512 135.339 306.327 135.493C306.15 135.648 305.965 135.785 305.773 135.905C305.589 136.019 305.405 136.11 305.222 136.179C305.046 136.242 304.888 136.261 304.747 136.237C304.612 136.215 304.53 136.152 304.501 136.048C304.479 135.945 304.476 135.845 304.492 135.749ZM280.518 142.385C280.538 142.269 280.577 142.114 280.636 141.919C280.695 141.725 280.77 141.516 280.86 141.294C280.958 141.066 281.069 140.837 281.193 140.607C281.324 140.378 281.464 140.177 281.611 140.004C281.76 139.824 281.919 139.686 282.087 139.588C282.256 139.485 282.434 139.449 282.62 139.48C282.627 139.481 282.633 139.485 282.638 139.493C282.644 139.494 282.654 139.495 282.667 139.498C282.679 139.506 282.694 139.512 282.713 139.515C282.732 139.525 282.761 139.543 282.803 139.57C282.851 139.598 282.893 139.628 282.927 139.66C282.968 139.687 283.003 139.716 283.031 139.747C283.066 139.773 283.086 139.792 283.09 139.806C283.089 139.813 283.091 139.823 283.095 139.837C283.093 139.85 283.091 139.863 283.089 139.875C283.094 139.883 283.096 139.89 283.095 139.896C283.057 140.121 282.953 140.331 282.781 140.527C282.61 140.722 282.424 140.922 282.225 141.127C282.032 141.332 281.847 141.552 281.669 141.786C281.491 142.02 281.377 142.285 281.327 142.58C281.261 142.978 281.256 143.34 281.313 143.667C281.372 143.987 281.469 144.294 281.604 144.587C281.747 144.875 281.924 145.159 282.135 145.439C282.352 145.719 282.586 146.016 282.837 146.329C282.835 146.342 282.835 146.362 282.837 146.388C282.84 146.409 282.84 146.425 282.838 146.438C282.818 146.56 282.758 146.639 282.66 146.676C282.562 146.705 282.459 146.711 282.35 146.693C282.061 146.644 281.809 146.536 281.593 146.368C281.384 146.194 281.205 145.986 281.054 145.742C280.91 145.5 280.79 145.233 280.694 144.939C280.605 144.641 280.54 144.339 280.499 144.035C280.464 143.732 280.447 143.439 280.449 143.155C280.457 142.866 280.481 142.61 280.518 142.385ZM287.224 143.144C287.228 143.119 287.232 143.073 287.237 143.008C287.248 142.937 287.258 142.863 287.264 142.785C287.272 142.7 287.281 142.626 287.292 142.562C287.304 142.491 287.312 142.443 287.316 142.417C287.11 142.581 286.934 142.709 286.786 142.803C286.639 142.891 286.497 142.953 286.358 142.989C286.228 143.02 286.093 143.034 285.955 143.03C285.818 143.021 285.654 142.999 285.461 142.967C285.275 142.936 285.11 142.895 284.967 142.844C284.831 142.789 284.707 142.718 284.596 142.634C284.491 142.55 284.39 142.444 284.293 142.315C284.202 142.188 284.112 142.038 284.022 141.864C284.028 141.832 284.035 141.77 284.043 141.679C284.058 141.59 284.075 141.493 284.092 141.391C284.109 141.288 284.121 141.194 284.129 141.11C284.144 141.02 284.154 140.959 284.16 140.927C284.214 140.606 284.303 140.307 284.429 140.031C284.561 139.756 284.729 139.524 284.932 139.333C285.143 139.138 285.391 139.001 285.675 138.923C285.966 138.84 286.294 138.829 286.66 138.891C287.007 138.949 287.294 139.066 287.522 139.243C287.75 139.42 287.925 139.634 288.048 139.886C288.177 140.139 288.265 140.421 288.312 140.733C288.366 141.039 288.39 141.35 288.383 141.665C288.384 141.976 288.364 142.286 288.326 142.596C288.293 142.908 288.256 143.186 288.215 143.43L288.185 143.613C288.158 143.694 288.114 143.818 288.053 143.986C287.991 144.154 287.92 144.344 287.838 144.555C287.764 144.76 287.684 144.981 287.598 145.217C287.514 145.447 287.43 145.668 287.349 145.878C287.274 146.09 287.205 146.28 287.144 146.448C287.083 146.616 287.039 146.738 287.014 146.812C286.88 146.981 286.729 147.095 286.561 147.152C286.394 147.203 286.21 147.212 286.011 147.179C286.071 146.826 286.155 146.483 286.263 146.152C286.379 145.815 286.498 145.481 286.619 145.152C286.74 144.822 286.855 144.492 286.964 144.16C287.079 143.83 287.165 143.491 287.224 143.144ZM284.995 140.968C284.973 141.096 284.958 141.226 284.949 141.356C284.948 141.481 284.962 141.596 284.991 141.7C285.027 141.798 285.088 141.888 285.173 141.968C285.266 142.043 285.399 142.095 285.573 142.124C285.733 142.151 285.915 142.112 286.117 142.008C286.327 141.898 286.525 141.763 286.71 141.602C286.897 141.436 287.058 141.261 287.194 141.08C287.33 140.898 287.408 140.746 287.429 140.624C287.444 140.534 287.417 140.437 287.349 140.333C287.287 140.23 287.207 140.138 287.108 140.055C287.011 139.966 286.905 139.889 286.791 139.824C286.683 139.759 286.594 139.721 286.523 139.709C286.279 139.668 286.067 139.672 285.887 139.721C285.708 139.764 285.56 139.841 285.442 139.954C285.324 140.066 285.228 140.208 285.153 140.38C285.084 140.554 285.031 140.749 284.995 140.968ZM292.27 147.061C291.998 147.187 291.76 147.302 291.558 147.407C291.363 147.506 291.175 147.587 290.993 147.649C290.811 147.711 290.62 147.748 290.419 147.761C290.226 147.774 289.991 147.758 289.715 147.712C289.117 147.611 288.701 147.38 288.465 147.016C288.23 146.647 288.165 146.148 288.271 145.518C288.312 145.274 288.386 145.026 288.495 144.774C288.603 144.521 288.74 144.277 288.905 144.04C289.078 143.799 289.27 143.577 289.482 143.375C289.695 143.166 289.926 142.991 290.175 142.848C290.423 142.704 290.678 142.602 290.939 142.54C291.208 142.473 291.48 142.463 291.757 142.509C292.211 142.632 292.555 142.808 292.787 143.038C293.02 143.262 293.179 143.53 293.266 143.842C293.353 144.147 293.393 144.48 293.385 144.842C293.378 145.197 293.356 145.563 293.319 145.94C293.289 146.318 293.265 146.697 293.247 147.077C293.23 147.457 293.265 147.816 293.354 148.154C293.235 148.352 293.13 148.486 293.039 148.557C292.953 148.635 292.87 148.637 292.79 148.564C292.709 148.492 292.627 148.333 292.543 148.087C292.465 147.843 292.374 147.501 292.27 147.061ZM289.086 145.675C289.025 146.041 289.047 146.322 289.153 146.518C289.266 146.709 289.499 146.834 289.852 146.893C290.115 146.937 290.373 146.934 290.626 146.884C290.886 146.829 291.119 146.736 291.326 146.606C291.534 146.469 291.712 146.294 291.86 146.081C292.008 145.869 292.105 145.621 292.153 145.338C292.172 145.223 292.202 145.063 292.243 144.858C292.285 144.648 292.308 144.437 292.31 144.226C292.312 144.015 292.281 143.828 292.216 143.666C292.152 143.496 292.03 143.397 291.85 143.366C291.516 143.31 291.194 143.345 290.882 143.471C290.571 143.591 290.291 143.765 290.042 143.994C289.792 144.222 289.583 144.488 289.413 144.789C289.245 145.084 289.136 145.38 289.086 145.675ZM294.368 144.532C294.395 144.371 294.441 144.25 294.508 144.169C294.581 144.089 294.707 144.064 294.887 144.094C294.906 144.097 294.941 144.107 294.991 144.122C295.049 144.131 295.084 144.137 295.097 144.139C295.109 144.346 295.117 144.572 295.122 144.817C295.135 145.057 295.153 145.301 295.177 145.549C295.202 145.797 295.233 146.044 295.271 146.288C295.316 146.533 295.38 146.758 295.465 146.964C295.601 146.861 295.708 146.731 295.788 146.572C295.867 146.414 295.934 146.254 295.987 146.091C296.042 145.922 296.092 145.762 296.137 145.611C296.19 145.455 296.261 145.328 296.35 145.231C296.44 145.127 296.557 145.061 296.7 145.032C296.85 145.005 297.042 145.037 297.278 145.129C297.547 145.175 297.754 145.262 297.897 145.392C298.042 145.515 298.159 145.663 298.248 145.837C298.345 146.005 298.434 146.185 298.514 146.377C298.602 146.563 298.721 146.738 298.872 146.902C298.924 146.825 298.989 146.73 299.068 146.618C299.147 146.499 299.24 146.38 299.346 146.259C299.459 146.133 299.576 146.01 299.695 145.892C299.821 145.768 299.948 145.66 300.076 145.569C300.204 145.472 300.332 145.398 300.46 145.347C300.588 145.289 300.707 145.269 300.816 145.288C301.079 145.332 301.293 145.454 301.458 145.653C301.623 145.846 301.753 146.079 301.845 146.352C301.946 146.619 302.015 146.915 302.053 147.238C302.092 147.555 302.114 147.859 302.118 148.15C302.122 148.441 302.113 148.707 302.093 148.948C302.08 149.184 302.065 149.353 302.047 149.455C302.033 149.539 302.003 149.6 301.957 149.638C301.911 149.677 301.857 149.704 301.795 149.72C301.734 149.729 301.668 149.732 301.596 149.726C301.531 149.722 301.469 149.715 301.411 149.705C301.398 149.703 301.379 149.7 301.353 149.695C301.329 149.685 301.301 149.673 301.27 149.661C301.245 149.651 301.212 149.635 301.169 149.615L301.026 146.63C301.03 146.611 301.01 146.571 300.967 146.511C300.925 146.445 300.893 146.403 300.869 146.386C300.85 146.383 300.835 146.377 300.823 146.368C300.81 146.366 300.8 146.364 300.794 146.363C300.789 146.356 300.783 146.352 300.776 146.35C300.641 146.328 300.504 146.361 300.364 146.449C300.23 146.539 300.097 146.659 299.967 146.809C299.836 146.958 299.708 147.128 299.584 147.319C299.459 147.509 299.345 147.701 299.24 147.895C299.136 148.082 299.04 148.257 298.953 148.421C298.874 148.579 298.81 148.701 298.763 148.785C298.735 148.794 298.682 148.798 298.603 148.798C298.525 148.791 298.473 148.786 298.447 148.782C298.267 148.751 298.139 148.667 298.064 148.529C297.989 148.384 297.935 148.214 297.902 148.017C297.876 147.821 297.858 147.61 297.85 147.384C297.849 147.153 297.832 146.939 297.799 146.742C297.773 146.546 297.715 146.378 297.626 146.238C297.545 146.092 297.408 146.003 297.216 145.971C297.145 145.959 297.066 146.018 296.978 146.148C296.89 146.279 296.802 146.449 296.714 146.659C296.627 146.862 296.54 147.085 296.453 147.328C296.367 147.564 296.29 147.789 296.221 148.002C296.16 148.209 296.11 148.386 296.073 148.531C296.035 148.677 296.016 148.75 296.016 148.75C296 148.767 295.971 148.785 295.928 148.804C295.886 148.817 295.841 148.832 295.792 148.851C295.749 148.87 295.704 148.882 295.657 148.887C295.616 148.894 295.586 148.895 295.567 148.892C295.387 148.862 295.227 148.753 295.087 148.564C294.948 148.369 294.83 148.131 294.732 147.851C294.641 147.565 294.564 147.255 294.501 146.921C294.445 146.588 294.404 146.264 294.377 145.949C294.351 145.635 294.336 145.352 294.332 145.1C294.334 144.85 294.346 144.66 294.368 144.532ZM303.447 149.789C303.491 149.526 303.587 149.288 303.735 149.075C303.889 148.864 304.05 148.653 304.217 148.443C304.392 148.228 304.558 148.005 304.716 147.774C304.875 147.537 304.979 147.271 305.028 146.975C305.073 146.712 305.073 146.471 305.031 146.253C304.988 146.034 304.916 145.834 304.815 145.652C304.72 145.471 304.603 145.3 304.465 145.138C304.328 144.976 304.183 144.816 304.031 144.659C303.887 144.496 303.743 144.33 303.6 144.161C303.463 143.993 303.342 143.807 303.237 143.605C303.268 143.544 303.301 143.5 303.339 143.473C303.383 143.448 303.431 143.433 303.485 143.429C303.538 143.424 303.591 143.427 303.642 143.435C303.694 143.444 303.742 143.452 303.787 143.459C304.198 143.528 304.546 143.696 304.831 143.962C305.117 144.227 305.341 144.545 305.503 144.916C305.673 145.281 305.782 145.669 305.832 146.08C305.889 146.486 305.888 146.865 305.829 147.219C305.805 147.36 305.762 147.537 305.7 147.751C305.639 147.959 305.558 148.183 305.459 148.424C305.366 148.659 305.257 148.895 305.132 149.131C305.007 149.361 304.871 149.566 304.722 149.746C304.573 149.926 304.41 150.067 304.235 150.169C304.065 150.273 303.888 150.309 303.702 150.278C303.586 150.258 303.51 150.199 303.474 150.101C303.439 149.996 303.43 149.892 303.447 149.789Z" fill="black"/>
<path d="M40.1856 75V74.9786L40.1837 74.9573L39.7772 70.2135C39.6521 68.7539 40.8031 67.5 42.2681 67.5H45.5128H52.5659C53.6345 67.5 54.3968 68.1961 54.4312 69.2095C54.5237 71.9352 54.5296 76.6245 54.4081 80.204C54.3644 81.4932 53.295 82.5 51.9829 82.5H47.2267H42.6856C41.3049 82.5 40.1856 81.3807 40.1856 80V75Z" stroke="black"/>
<path d="M46.177 110.806L46.1567 110.804H46.1364H43C41.6193 110.804 40.5 109.685 40.5 108.304V105.043V99C40.5 97.6193 41.6193 96.5 43 96.5H51.5909H51.818C53.1459 96.5 54.2421 97.5381 54.3143 98.8641L54.4995 102.266L54.2693 108.842C54.2194 110.267 52.989 111.362 51.5675 111.246L46.177 110.806Z" stroke="black"/>
<path d="M51.5081 125.841L51.5081 125.841H51.5217H51.6522C53.0329 125.841 54.1522 126.96 54.1522 128.341V131.477V131.487L54.1526 131.498L54.373 136.898C54.4309 138.318 53.2958 139.5 51.8751 139.5H45.9565H42.5757C41.2347 139.5 40.1325 138.442 40.0778 137.102L39.8474 131.457L39.8475 131.457L39.8471 131.45L39.6737 128.221C39.5954 126.763 40.7784 125.549 42.2382 125.588L51.5081 125.841Z" stroke="black"/>
<path d="M46.6034 79.9815C45.3857 79.3701 42.341 76.6188 42.0364 76.3131C41.7318 76.0074 43.4211 74.508 44.0301 74.508C44.639 74.508 46.4362 77.8288 47.0451 77.2174C47.6541 76.606 57.2302 64.3488 57.8391 64.0429C58.448 63.7371 60 65.1607 60 65.3079C59.6659 65.8774 47.8212 80.5929 46.6034 79.9815Z" fill="black"/>
<path d="M64 72.4852C68.5255 74.3235 81.7401 78 98.3942 78C119.212 78 121.022 69.9785 134.599 72.4852C137.694 73.0568 139.99 73.6544 141.839 74.2364C148.103 76.2073 149.254 78 159.036 78C171.708 78 180.759 72.4852 188 72.4852" stroke="black"/>
<path d="M63.457 101.887C88.4694 106.35 83.1735 101.448 99.9691 101.074C120.964 100.607 121.432 104.459 135.825 103.795C150.219 103.131 146.522 100.038 159.301 99.7536C172.08 99.4691 183.291 102.739 190.594 102.576" stroke="black"/>
<path d="M64 132.53C78.5655 131.466 79.3475 137.319 99.5034 135.722C113.159 134.641 114.979 128.805 142.29 134.371C148.589 136.463 157.94 135.722 167.779 135.722C180.524 135.722 188.717 132.512 196 132.512" stroke="black"/>
</svg>
