<svg width="121" height="119" viewBox="0 0 121 119" fill="none" xmlns="http://www.w3.org/2000/svg">
<path d="M116 86C110 102.4 33.5 95 4 89.5V94C12.5 101.5 36 102.5 45 101C54 99.5 75 101.5 85 103C93 104.2 109.833 96.5 116.5 93L116 86Z" fill="#A36F6F"/>
<path d="M25.0512 12.6208C24.4329 17.6656 29.6181 17.9689 29.6181 17.9689C29.6181 17.9689 31.7119 18.3042 33.904 16.7716C36.6442 14.8559 33.5527 9.42793 32.1475 7.75166C31.0234 6.41064 30.6486 4.6918 30.6018 4C29.1404 5.59645 26.2925 10.4124 25.0512 12.6208Z" fill="#FFD179"/>
<path d="M60.0563 11.6208C59.3762 16.6656 65.0799 16.9689 65.0799 16.9689C65.0799 16.9689 67.3831 17.3042 69.7944 15.7716C72.8086 13.8559 69.408 8.42793 67.8623 6.75166C66.6257 5.41064 66.2135 3.6918 66.162 3C64.5544 4.59645 61.4217 9.41241 60.0563 11.6208Z" fill="#FFD179"/>
<path d="M95.0563 13.2366C94.3762 18.6417 100.08 18.9667 100.08 18.9667C100.08 18.9667 102.383 19.3259 104.794 17.6839C107.809 15.6313 104.408 9.81564 102.862 8.01964C101.626 6.58283 101.213 4.74121 101.162 4C99.5544 5.71048 96.4217 10.8704 95.0563 13.2366Z" fill="#FFD179"/>
<path d="M12.5058 47.8845C15.9046 46.6902 21.6477 46.5134 25.2907 46.5134C48.2864 46.109 95.8722 45.5587 102.249 46.5924C111.675 46.5924 119.85 51.1746 116.045 60.8005C114.009 69.2664 120.668 75.2707 110.81 74.7177C104.844 73.5326 105.016 78.2728 99.8955 80.3663C95.6776 81.2749 92.048 80.497 88.3874 79.3337C85.82 76.3061 76.1353 74.5576 71.0335 79.9439C66.294 81.6219 63.6836 80.3663 62.1271 79.3337C52.3559 72.8508 50.713 81 48.0324 81C42.4118 81 43.5359 75.7194 36.1859 75.7194C28.4901 75.7194 30.6381 81 24.253 81C16.2113 81 16.0478 77.8901 14.1755 76.9398C13.209 76.4492 12.0522 75.8012 10.8875 75.7194C9.35692 75.6118 7.12395 75.6135 5.96826 74.5576C4.8644 73.5491 4.00315 72.5057 4.00315 70.9668C4.00315 69.9851 3.96128 69.0125 4.18296 68.0448C5.05063 66.3189 6.38821 61.7453 4.79715 57.2579C3.20609 52.7705 9.2733 49.1392 12.5058 47.8845Z" fill="#945E5E"/>
<path d="M17.4427 44C15.19 46.2907 12.4689 51.4586 19.6051 53.8042C28.5254 56.7364 49.79 57.561 61.053 56.6447C72.316 55.7284 83.7592 56.0033 91.4181 55.7284C99.0769 55.4536 111.241 52.3382 111.782 50.2307C112.322 48.1233 111.962 46.2907 109.529 44.5498" stroke="black" stroke-width="2"/>
<path d="M94.4808 12.0426C92.3407 16.9617 97.8564 19.6383 100.977 20C104.034 20 104.417 19.7287 106.901 17.8298C109.263 16.0241 107.378 10.6862 105.372 8.96808C103.767 7.59362 102.601 4.08511 102.028 3C101.111 4.15745 96.487 9.8422 94.4808 12.0426Z" stroke="black" stroke-width="2"/>
<path d="M59.1149 12.5632C58.2181 17.2713 62.7896 18.8161 65.1875 19C66.2152 19 68.7003 18.7425 70.4193 17.7126C72.5681 16.4253 72.6615 11.4598 69.8588 8.7931C67.6166 6.65977 66.5578 4.04215 66.3086 3C61.7495 6.53103 59.6132 10.8467 59.1149 12.5632Z" stroke="black" stroke-width="2"/>
<path d="M23.0666 12.8524C22.2628 18.6179 29.0035 18.9645 29.0035 18.9645C29.0035 18.9645 31.7255 19.3477 34.5752 17.5961C38.1374 15.4067 34.1185 9.20335 32.2918 7.28761C30.8304 5.75502 30.3432 3.79062 30.2823 3C28.3825 4.82452 24.6802 10.3285 23.0666 12.8524Z" stroke="black" stroke-width="2"/>
<path d="M29 23C29.0556 20.9801 29.3333 16.7522 30 16" stroke="black" stroke-width="3" stroke-linecap="round"/>
<path d="M65 22C65.1818 20.4375 65.6364 17.05 66 16" stroke="black" stroke-width="3" stroke-linecap="round"/>
<path d="M101 22C101 20.4839 101 17.1613 101 16" stroke="black" stroke-width="3" stroke-linecap="round"/>
<path d="M4 94.7381C11.7118 98.5194 31.0755 105.222 46.8364 101.782C55.1506 101.721 74.3456 101.855 84.6119 102.88C97.4447 104.161 116.187 94.8359 117 92" stroke="black" stroke-width="2"/>
<path d="M4 88.4845C9.64055 90.819 27.4538 95.4318 53.5823 95.2077C86.2429 94.9276 77.5197 96.9015 93 95.5721C115.835 93.6112 113.546 87.0588 116.48 83.5442" stroke="black" stroke-width="2" stroke-linecap="round"/>
<path d="M5.12999 77.2828C3.41584 85.6514 2.36931 103.855 11.8963 109.719C23.8051 117.049 108.7 125.845 116.188 105.137C117 100.495 117.686 87.1418 115.737 76" stroke="black" stroke-width="2"/>
<path d="M23.4211 44C19.5848 44 13.5367 44.1999 9.95742 45.5505C6.5533 46.9695 0.163938 51.076 1.83948 56.1507C3.51501 61.2253 2.10642 66.3976 1.19268 68.3493C0.959224 69.4437 1.00331 70.5435 1.00331 71.6537C1.00331 73.394 1.9103 74.5739 3.07277 75.7145C4.28982 76.9086 6.64136 76.9066 8.25317 77.0283C9.47971 77.1208 10.698 77.8536 11.7158 78.4084C13.6875 79.4831 13.8596 83 22.3284 83C29.0525 83 26.7904 77.0283 34.8949 77.0283C42.6352 77.0283 41.4514 83 47.3704 83C50.1933 83 51.9235 73.7843 62.2135 81.1156C63.8526 82.2834 66.6017 83.7033 71.5928 81.8057C76.9655 75.7145 87.1644 77.6918 89.8681 81.1156C93.7231 82.4311 97.5455 83.3109 101.987 82.2834C107.38 79.9159 107.198 74.5553 113.481 75.8955C123.862 76.5209 116.851 69.7308 118.995 60.1569C123.001 49.2712 114.392 44.0893 104.466 44.0893" stroke="black" stroke-width="2" stroke-linecap="round" stroke-linejoin="round"/>
<path d="M32 43.9827C33.2816 43.9827 39.5869 42.4164 45.4456 43.2387C50.7464 43.9827 57.049 44.0424 58 43.9826" stroke="black" stroke-width="2" stroke-linecap="round" stroke-linejoin="round"/>
<path d="M68 43.6278C70.6667 43.6278 77.568 42.2153 88 43.6278C89.9497 43.6278 91.9885 44 94 44" stroke="black" stroke-width="2" stroke-linecap="round" stroke-linejoin="round"/>
<path d="M25.9959 24.5611C26.8526 23.3934 27.9191 22.9609 28.9554 23.0028C29.9871 23.0445 31.093 23.564 31.9993 24.5259C32.0009 24.5747 32.0001 24.6461 31.9931 24.7463C31.9708 25.0662 31.9029 25.4884 31.8079 26.0787C31.799 26.1337 31.7899 26.1901 31.7806 26.2481C31.5686 27.5689 31.2862 29.4325 31.3232 31.7869C31.3816 35.5036 31.443 39.4535 31.4159 42.6376C31.4024 44.2308 31.3668 45.6176 31.2989 46.6804C31.265 47.2127 31.2238 47.6495 31.1759 47.9835C31.152 48.1502 31.1278 48.2813 31.1047 48.38C31.0824 48.4757 31.0666 48.5166 31.0647 48.5214C31.0645 48.5218 31.0645 48.522 31.0645 48.5219C30.9818 48.7043 30.8215 48.8545 30.4708 48.9397C30.0958 49.0309 29.5722 49.0226 28.9613 48.8876C27.7082 48.6109 26.4954 47.9002 25.9863 47.2291C25.4951 46.5815 25.2491 45.4822 25.1598 43.625C25.1165 42.7242 25.1105 41.7039 25.1057 40.5416C25.1055 40.488 25.1053 40.4342 25.1051 40.38C25.1006 39.2666 25.0956 38.0357 25.0575 36.6991C24.968 33.561 24.9746 30.7903 25.1374 28.6291C25.2188 27.5478 25.3377 26.6428 25.4956 25.9323C25.6586 25.1985 25.8429 24.7696 25.9959 24.5611ZM31.9923 24.4468C31.9923 24.4468 31.9926 24.4479 31.993 24.4503C31.9925 24.4481 31.9922 24.4469 31.9923 24.4468Z" stroke="black" stroke-width="2"/>
<path d="M62.6691 25.3379C63.2 24.3376 63.6401 23.7286 64.0003 23.3781C64.3466 23.0412 64.5555 23.002 64.662 23.0001C64.7984 22.9977 65.0207 23.0534 65.3933 23.3069C65.7663 23.5606 66.1794 23.9341 66.6969 24.4223C66.7656 24.487 66.8992 24.6933 66.9633 25.2575C67.0248 25.7997 67.0051 26.5087 66.9335 27.3882C66.8874 27.9538 66.8186 28.593 66.7446 29.2795C66.5988 30.633 66.4333 32.1701 66.3837 33.6891C66.2937 36.4448 66.3753 39.3134 66.4441 41.7354C66.4479 41.8693 66.4517 42.0019 66.4554 42.133C66.4909 43.3911 66.5198 44.5075 66.5167 45.4212C66.5136 46.36 66.4756 46.9965 66.4042 47.3383C66.2773 47.9464 66.0133 48.328 65.7139 48.5693C65.4062 48.8173 64.9995 48.9657 64.5233 48.9948C63.5394 49.0549 62.4345 48.5941 61.7974 47.8136C61.7303 47.7315 61.5802 47.428 61.4359 46.7435C61.3011 46.104 61.1964 45.2628 61.1237 44.2453C60.9784 42.2138 60.967 39.5761 61.0587 36.6437C61.1355 34.1906 61.3134 31.7659 61.5937 29.731C61.8801 27.6521 62.257 26.1146 62.6691 25.3379Z" stroke="black" stroke-width="2"/>
<path d="M102.534 36.8905L102.536 36.9105L102.539 36.9305C103.087 40.7096 103.08 43.3967 102.861 45.2084C102.751 46.1143 102.59 46.7889 102.426 47.2658C102.256 47.7599 102.102 47.9858 102.044 48.0496C101.56 48.5826 100.619 49.026 99.5581 48.9988C98.5468 48.9729 97.4282 48.5174 96.5451 47.2467C96.38 47.0092 96.2065 46.475 96.1039 45.526C96.0059 44.6189 95.9856 43.483 96.0086 42.1747C96.0301 40.9572 96.0883 39.6216 96.1495 38.2175C96.1538 38.1171 96.1582 38.0162 96.1626 37.915C96.2282 36.4063 96.2941 34.829 96.3164 33.2751C96.3458 31.2208 96.4543 29.3368 96.6391 27.8814C96.7318 27.1519 96.8408 26.5526 96.9612 26.1029C97.0213 25.8783 97.08 25.7072 97.1334 25.5837C97.1841 25.4662 97.2163 25.4243 97.216 25.4241C97.216 25.4241 97.2155 25.4246 97.2146 25.4257C98.0303 24.5066 99.1766 23.6052 100.19 23.2058C100.695 23.0065 101.072 22.9697 101.323 23.0208C101.521 23.0613 101.72 23.169 101.9 23.5104C102.602 24.8426 102.631 26.2355 102.512 28.3832C102.499 28.6316 102.483 28.8883 102.467 29.1537C102.347 31.1537 102.197 33.6536 102.534 36.8905Z" stroke="black" stroke-width="2"/>
<path d="M80.9206 81.1303C78.8115 81.1303 75.9466 81.894 74 83C72.8333 84.6667 69.1 87.1421 63.5 83.7104C56.5 79.4207 54 79.5 50.5 83.7104C47.7 87.0787 44.3333 84.6402 43 83C34 75.5 31 80 29.5 81.658C28 83.316 21 86.5002 15 83.7104C10.2 81.4785 6.98674 79.3012 5.9801 78.4915C5.9801 80.8445 4.5 84.2448 4.5 86.5002C4.5 88.4365 9.29776 89.1638 10.6864 89.7986C20.5 91.5002 25.9955 92.213 27.7498 92.213C28.4764 92.213 36.7741 92.9733 37.5 93.0002C39.6575 93.0801 42.3256 93.2405 44.4194 93.7331C48.5845 94.7132 53.4296 93.7172 57.6996 93.7963C60.3765 93.8458 63.1001 94.324 65.7478 94.324C67.4542 94.324 83.6474 94.6484 85.2745 94.8518H91.2117C93.1597 94.8518 95.039 94.1151 97.017 94.0601C100.556 93.9618 105.735 92.3695 108.5 90.2193C111.169 88.1431 115 86.0598 115 82.1858C115 80.9041 114.949 78.9492 114 78C113.001 77.0008 110.297 79.2877 109.419 79.7522C108.077 80.4629 107.416 82.261 106.106 83.0947C104.704 83.9866 102.979 83.9013 101.503 84.4287C99.2136 85.2463 96.2098 84.8245 93.7185 84.8245C92.1072 84.8245 90.3049 84.4444 88.8368 83.7104C87.5296 83.0568 85.7028 82.6251 84.6148 81.658C83.7172 80.8601 82.0435 81.1303 80.9206 81.1303Z" fill="#FFF9BE"/>
<path d="M19 110.5C9.8 108.9 6.16667 100.333 6 97.5C13.5 100.5 27 105.5 38 104.5C46.4651 103.73 44 104.5 47 103.5C50 102.5 84.5 105.5 92.5 104.5C98.9 103.7 110.333 99.1667 114.5 97C115.3 103.8 113.167 107.667 112 108C88 123.5 30.5 112.5 19 110.5Z" fill="#FFF9BE"/>
</svg>
